<svg xmlns="http://www.w3.org/2000/svg" xmlns:xlink="http://www.w3.org/1999/xlink" viewBox="0 0 1091.6 808.47"><defs><pattern id="a" width="72" height="72" patternTransform="matrix(1, 0, 0, -1, 53, 1143)" patternUnits="userSpaceOnUse" viewBox="0 0 72 72"><rect width="72" height="72" fill="none"/><line x1="71.75" y1="68.4" x2="144.25" y2="68.4" fill="none" stroke="#231f20" stroke-width="0.72"/><line x1="71.75" y1="54" x2="144.25" y2="54" fill="none" stroke="#231f20" stroke-width="0.72"/><line x1="71.75" y1="39.6" x2="144.25" y2="39.6" fill="none" stroke="#231f20" stroke-width="0.72"/><line x1="71.75" y1="25.2" x2="144.25" y2="25.2" fill="none" stroke="#231f20" stroke-width="0.72"/><line x1="71.75" y1="10.8" x2="144.25" y2="10.8" fill="none" stroke="#231f20" stroke-width="0.72"/><line x1="71.75" y1="61.2" x2="144.25" y2="61.2" fill="none" stroke="#231f20" stroke-width="0.72"/><line x1="71.75" y1="46.8" x2="144.25" y2="46.8" fill="none" stroke="#231f20" stroke-width="0.72"/><line x1="71.75" y1="32.4" x2="144.25" y2="32.4" fill="none" stroke="#231f20" stroke-width="0.72"/><line x1="71.75" y1="18" x2="144.25" y2="18" fill="none" stroke="#231f20" stroke-width="0.72"/><line x1="71.75" y1="3.6" x2="144.25" y2="3.6" fill="none" stroke="#231f20" stroke-width="0.72"/><line x1="-0.25" y1="68.4" x2="72.25" y2="68.4" fill="none" stroke="#231f20" stroke-width="0.72"/><line x1="-0.25" y1="54" x2="72.25" y2="54" fill="none" stroke="#231f20" stroke-width="0.72"/><line x1="-0.25" y1="39.6" x2="72.25" y2="39.6" fill="none" stroke="#231f20" stroke-width="0.72"/><line x1="-0.25" y1="25.2" x2="72.25" y2="25.2" fill="none" stroke="#231f20" stroke-width="0.72"/><line x1="-0.25" y1="10.8" x2="72.25" y2="10.8" fill="none" stroke="#231f20" stroke-width="0.72"/><line x1="-0.25" y1="61.2" x2="72.25" y2="61.2" fill="none" stroke="#231f20" stroke-width="0.72"/><line x1="-0.25" y1="46.8" x2="72.25" y2="46.8" fill="none" stroke="#231f20" stroke-width="0.72"/><line x1="-0.25" y1="32.4" x2="72.25" y2="32.4" fill="none" stroke="#231f20" stroke-width="0.72"/><line x1="-0.25" y1="18" x2="72.25" y2="18" fill="none" stroke="#231f20" stroke-width="0.72"/><line x1="-0.25" y1="3.6" x2="72.25" y2="3.6" fill="none" stroke="#231f20" stroke-width="0.72"/><line x1="-72.25" y1="68.4" x2="0.25" y2="68.4" fill="none" stroke="#231f20" stroke-width="0.72"/><line x1="-72.25" y1="54" x2="0.25" y2="54" fill="none" stroke="#231f20" stroke-width="0.72"/><line x1="-72.25" y1="39.6" x2="0.25" y2="39.6" fill="none" stroke="#231f20" stroke-width="0.72"/><line x1="-72.25" y1="25.2" x2="0.25" y2="25.2" fill="none" stroke="#231f20" stroke-width="0.72"/><line x1="-72.25" y1="10.8" x2="0.25" y2="10.8" fill="none" stroke="#231f20" stroke-width="0.72"/><line x1="-72.25" y1="61.2" x2="0.25" y2="61.2" fill="none" stroke="#231f20" stroke-width="0.72"/><line x1="-72.25" y1="46.8" x2="0.25" y2="46.8" fill="none" stroke="#231f20" stroke-width="0.72"/><line x1="-72.25" y1="32.4" x2="0.25" y2="32.4" fill="none" stroke="#231f20" stroke-width="0.72"/><line x1="-72.25" y1="18" x2="0.25" y2="18" fill="none" stroke="#231f20" stroke-width="0.72"/><line x1="-72.25" y1="3.6" x2="0.25" y2="3.6" fill="none" stroke="#231f20" stroke-width="0.72"/></pattern><pattern id="b" width="72" height="72" patternTransform="matrix(1, 0, 0, -1, 53, 1143)" patternUnits="userSpaceOnUse" viewBox="0 0 72 72"><rect width="72" height="72" fill="none"/><rect width="72" height="72" fill="none"/><line x1="54" y1="0.25" x2="54" y2="-72.25" fill="none" stroke="#231f20" stroke-width="0.3"/><line x1="18" y1="0.25" x2="18" y2="-72.25" fill="none" stroke="#231f20" stroke-width="0.3"/><line x1="71.75" y1="54" x2="144.25" y2="54" fill="none" stroke="#231f20" stroke-width="0.3"/><line x1="71.75" y1="18" x2="144.25" y2="18" fill="none" stroke="#231f20" stroke-width="0.3"/><line x1="-0.25" y1="54" x2="72.25" y2="54" fill="none" stroke="#231f20" stroke-width="0.3"/><line x1="54" y1="72.25" x2="54" y2="-0.25" fill="none" stroke="#231f20" stroke-width="0.3"/><line x1="-0.25" y1="18" x2="72.25" y2="18" fill="none" stroke="#231f20" stroke-width="0.3"/><line x1="18" y1="72.25" x2="18" y2="-0.25" fill="none" stroke="#231f20" stroke-width="0.3"/><line x1="-72.25" y1="54" x2="0.25" y2="54" fill="none" stroke="#231f20" stroke-width="0.3"/><line x1="-72.25" y1="18" x2="0.25" y2="18" fill="none" stroke="#231f20" stroke-width="0.3"/><line x1="54" y1="144.25" x2="54" y2="71.75" fill="none" stroke="#231f20" stroke-width="0.3"/><line x1="18" y1="144.25" x2="18" y2="71.75" fill="none" stroke="#231f20" stroke-width="0.3"/></pattern></defs><path d="M78.28,807a79.66,79.66,0,0,1-56.09-23.33l-1-1L391.72,405.79l17.19-18.28,11.24,10.67L545.72,517.62l142.17-136L706,401.15l364.48,381.43-1,1A79,79,0,0,1,1013.37,807Z" fill="#d3c544"/><path d="M78.28,807a79.66,79.66,0,0,1-56.09-23.33l-1-1L391.72,405.79l17.19-18.28,11.24,10.67L545.72,517.62l142.17-136L706,401.15l364.48,381.43-1,1A79,79,0,0,1,1013.37,807Z" fill="url(#a)"/><path d="M687.86,383.79l17,18.41,363.48,380.39a78,78,0,0,1-55,22.88H78.28a77.61,77.61,0,0,1-55-22.88L392.8,406.85,409,389.64l10.15,9.63L545.72,519.7,687.86,383.79m.13-4.28-2.2,2.11L545.72,515.55,421.2,397.09,411,387.46l-2.18-2.08-2.07,2.2-16.16,17.19L21.11,780.48,19,782.6l2.09,2.1a81.16,81.16,0,0,0,57.16,23.77h935.09a80.44,80.44,0,0,0,57.12-23.77l2.07-2.07-2-2.12L707.06,400.12l-17-18.37Z" fill="#3b4793"/><path d="M408.61,390.48,22.37,25.23A82.19,82.19,0,0,0,0,79.59v649.3a77.6,77.6,0,0,0,22.88,55.05L392.43,408.2ZM1086,54.3a80.43,80.43,0,0,0-21.17-33.2L686.29,382.39l17.2,17.2,365.23,383.15a77.57,77.57,0,0,0,22.88-55.06V78.39A76,76,0,0,0,1086,54.3Z" fill="#eada49"/><path d="M408.61,390.48,22.37,25.23A82.19,82.19,0,0,0,0,79.59v649.3a77.6,77.6,0,0,0,22.88,55.05L392.43,408.2ZM1086,54.3a80.43,80.43,0,0,0-21.17-33.2L686.29,382.39l17.2,17.2,365.23,383.15a77.57,77.57,0,0,0,22.88-55.06V78.39A76,76,0,0,0,1086,54.3Z" fill="url(#b)"/><path d="M419.35,400.83l-10.14-9.62L22.93,26.14l.67-.73A76.78,76.78,0,0,1,79.22,1h936.43A75.69,75.69,0,0,1,1068,22.61l.74.73-379.26,362L546.72,521.92Z" fill="#fff44f"/><path d="M1015.65,2a75,75,0,0,1,51.63,21.33L688.77,384.63,546.66,520.54,420,400.11l-10.15-9.63L24.33,26.09A75.49,75.49,0,0,1,79.22,2h936.43m0-2H79.22A77.81,77.81,0,0,0,22.87,24.73l-1.35,1.45L23,27.54,408.52,391.93l10.2,9.63L545.29,522l1.43,1.3,1.38-1.3L690.16,386.08l378.5-361.3,1.5-1.43-1.44-1.45a76.69,76.69,0,0,0-53-21.9Z" fill="#595cf3"/></svg>