<?xml version="1.0" encoding="utf-8"?>
<!-- Generator: Adobe Illustrator 24.2.1, SVG Export Plug-In . SVG Version: 6.00 Build 0)  -->
<svg version="1.1" id="Layer_1" xmlns="http://www.w3.org/2000/svg" xmlns:xlink="http://www.w3.org/1999/xlink" x="0px" y="0px"
	 viewBox="0 0 1091.6 803.6" enable-background="new 0 0 1091.6 803.6" xml:space="preserve">
<path fill="#CCCCCC" d="M688.5,381.9L546.4,517.8L419.8,397.4l-10.1-9.6L393.4,405L23.9,780.7c14.6,14.7,34.4,22.9,55.1,22.9H1014
	c20.6,0,40.4-8.3,55-22.9L705.5,400.4L688.5,381.9z"/>
<path fill="#DDDDDD" d="M408.6,388.5L22.4,23.2C8.5,38,0.5,57.3,0,77.6v649.3c0,20.7,8.2,40.5,22.9,55l369.5-375.7L408.6,388.5z
	 M1086,52.3c-4.2-12.6-11.5-24.1-21.2-33.2L686.3,380.4l17.2,17.2l365.2,383.1c14.7-14.6,22.9-34.4,22.9-55.1V76.4
	C1091.1,68.1,1089.2,60,1086,52.3z"/>
<path fill="#EFEFEF" d="M408.6,387.5l10.1,9.6l126.6,120.4l142.1-135.9L1066,20.3c-13.8-13.5-32.3-21.1-51.6-21.3H77.9
	C57.1-0.9,37.2,7.8,23,23.1L408.6,387.5z"/>
</svg>
