<svg xmlns="http://www.w3.org/2000/svg" viewBox="0 0 1091.62 803.62"><path d="M687.49,381.94,545.38,517.85,418.76,397.42l-10.15-9.63L392.43,405,22.88,780.74a77.61,77.61,0,0,0,55.06,22.88H1013a77.92,77.92,0,0,0,55-22.88L704.52,400.35Z" transform="translate(0)"/><path d="M408.61,388.48,22.37,23.23A82.19,82.19,0,0,0,0,77.59v649.3a77.6,77.6,0,0,0,22.88,55.05L392.43,406.2ZM1086,52.3a80.43,80.43,0,0,0-21.17-33.2L686.29,380.39l17.2,17.2,365.25,383.15a77.57,77.57,0,0,0,22.88-55.06V76.39A75.52,75.52,0,0,0,1086,52.3Z" transform="translate(0)" fill="#353535"/><path d="M408.61,388.48l10.15,9.63L545.38,518.54,687.49,382.63,1066,21.33A75,75,0,0,0,1014.37,0H77.94A75.49,75.49,0,0,0,23.05,24.09Z" transform="translate(0)" fill="#9f9fa0"/></svg>