<svg xmlns="http://www.w3.org/2000/svg" viewBox="0 0 1091.62 808.47"><path d="M76.56,805a79.64,79.64,0,0,1-56.09-23.33l-1-1L390,403.79l17.19-18.28,11.24,10.67L544,515.62l142.17-136,18.07,19.53,364.48,381.43-1,1A79,79,0,0,1,1011.65,805Z" transform="translate(1.72 2)" style="fill:#3b4793"/><path d="M686.14,381.79l17,18.41,363.48,380.39a78,78,0,0,1-55,22.88H76.56a77.64,77.64,0,0,1-55-22.88L391.08,404.85l16.18-17.21,10.15,9.63L544,517.7,686.14,381.79m.13-4.28-2.2,2.11L544,513.55,419.48,395.09l-10.16-9.63-2.18-2.08-2.07,2.2-16.16,17.19L19.39,778.48l-2.08,2.12,2.09,2.1a81.16,81.16,0,0,0,57.16,23.77h935.09a80.44,80.44,0,0,0,57.12-23.77l2.07-2.07-2-2.12L705.34,398.12l-17-18.37-2.07-2.24Z" transform="translate(1.72 2)" style="fill:#3b4793"/><path d="M406.89,388.48,20.65,23.23A82.19,82.19,0,0,0-1.72,77.59v649.3a77.6,77.6,0,0,0,22.88,55.05L390.71,406.2ZM1084.28,52.3a80.43,80.43,0,0,0-21.17-33.2L684.57,380.39l17.2,17.2L1067,780.74a77.57,77.57,0,0,0,22.88-55.06V76.39A75.79,75.79,0,0,0,1084.28,52.3Z" transform="translate(1.72 2)" style="fill:#4b51c4"/><path d="M417.63,398.83l-10.14-9.62L21.21,24.14l.67-.73A76.78,76.78,0,0,1,77.5-1h936.43a75.69,75.69,0,0,1,52.33,21.61l.74.73-379.26,362L545,519.92Z" transform="translate(1.72 2)" style="fill:#595cf3"/><path d="M1013.93,0a75,75,0,0,1,51.63,21.33L687.05,382.63,544.94,518.54,418.32,398.11l-10.15-9.63L22.61,24.09A75.51,75.51,0,0,1,77.5,0h936.43m0-2H77.5A77.77,77.77,0,0,0,21.15,22.73L19.8,24.18l1.44,1.36L406.8,389.93,417,399.56,543.57,520,545,521.3l1.38-1.31L688.44,384.08l378.5-361.3,1.5-1.43L1067,19.9A76.65,76.65,0,0,0,1014-2Z" transform="translate(1.72 2)" style="fill:#595cf3"/></svg>