<svg xmlns="http://www.w3.org/2000/svg" viewBox="0 0 101.18 69.95"><defs><style>.cls-1{fill:#231f20;}.cls-2{fill:#f9f9fa;}</style></defs><g id="Layer_2" data-name="Layer 2"><g id="Layer_1-2" data-name="Layer 1"><rect class="cls-1" width="101.18" height="69.95" rx="15.51"/><path class="cls-2" d="M9.76,54.92a2.52,2.52,0,0,0,3.52.56l25.6-18.54.21.16A17.44,17.44,0,0,0,54.9,40.48a22,22,0,0,0,7.26-3.36l.17-.12L87.85,55.48a2.52,2.52,0,1,0,3-4.08L66.54,33.82l19-14.34a2.46,2.46,0,0,0,1-1.66A2.52,2.52,0,0,0,84.41,15l-.35,0a2.49,2.49,0,0,0-1.51.5L59.12,33.1c-.09.07-8.89,6.5-17,0L18.74,15.45a2.58,2.58,0,0,0-3.53.5,2.52,2.52,0,0,0,.5,3.53l19,14.29L10.32,51.4a2.53,2.53,0,0,0-1,1.64A2.57,2.57,0,0,0,9.76,54.92Z"/></g></g></svg>