<svg xmlns="http://www.w3.org/2000/svg" xmlns:xlink="http://www.w3.org/1999/xlink" viewBox="0 0 639.06 344.54"><defs><clipPath id="a" transform="translate(0 -0.66)"><path d="M278.77,26.41v2.45c-4.88,2.83-12.88,2.83-17.79,0V26.41C265.9,29.24,273.9,29.24,278.77,26.41Z" style="fill:none"/></clipPath><clipPath id="b" transform="translate(0 -0.66)"><path d="M323.73,54.41a.75.75,0,0,0-.71,0V52a.8.8,0,0,1,.71,0h0c0,.82,0,1.63,0,2.45Z" style="fill:none"/></clipPath><clipPath id="c" transform="translate(0 -0.66)"><path d="M323.88,54.61a.24.24,0,0,0-.15-.2c0-.82,0-1.63,0-2.45a.25.25,0,0,1,.15.21C323.88,52.9,323.88,53.88,323.88,54.61Z" style="fill:none"/></clipPath><clipPath id="d" transform="translate(0 -0.66)"><path d="M323.89,52.17v2.44a.25.25,0,0,1-.15.21V52.37A.24.24,0,0,0,323.89,52.17Z" style="fill:none"/></clipPath><clipPath id="e" transform="translate(0 -0.66)"><path d="M341.57,64.71a.75.75,0,0,0-.7,0V62.27a.77.77,0,0,1,.71,0h0v2.45Z" style="fill:none"/></clipPath><clipPath id="f" transform="translate(0 -0.66)"><path d="M341.72,64.92a.26.26,0,0,0-.14-.21V62.26a.27.27,0,0,1,.15.21C341.73,63.2,341.73,64.18,341.72,64.92Z" style="fill:none"/></clipPath><clipPath id="g" transform="translate(0 -0.66)"><path d="M341.73,62.47v2.45a.24.24,0,0,1-.14.2V62.68A.27.27,0,0,0,341.73,62.47Z" style="fill:none"/></clipPath><clipPath id="h" transform="translate(0 -0.66)"><path d="M359.57,72.77v2.44c0-.07-.05-.14-.15-.2a.8.8,0,0,0-.71,0V72.57a.76.76,0,0,1,.72,0A.22.22,0,0,1,359.57,72.77Z" style="fill:none"/></clipPath><clipPath id="i" transform="translate(0 -0.66)"><path d="M359.57,72.77v2.44a.25.25,0,0,1-.15.21V73A.24.24,0,0,0,359.57,72.77Z" style="fill:none"/></clipPath><clipPath id="j" transform="translate(0 -0.66)"><path d="M377.42,83.07v2.45a.26.26,0,0,0-.14-.21.83.83,0,0,0-.72,0V82.87a.75.75,0,0,1,.71,0A.24.24,0,0,1,377.42,83.07Z" style="fill:none"/></clipPath><clipPath id="k" transform="translate(0 -0.66)"><path d="M377.42,83.07v2.45a.24.24,0,0,1-.15.2V83.28A.25.25,0,0,0,377.42,83.07Z" style="fill:none"/></clipPath><clipPath id="l" transform="translate(0 -0.66)"><path d="M430.79,116.22a.75.75,0,0,0-.7,0v-2.44a.77.77,0,0,1,.71,0h0v2.45Z" style="fill:none"/></clipPath><clipPath id="m" transform="translate(0 -0.66)"><path d="M430.94,116.43a.26.26,0,0,0-.14-.21v-2.45a.27.27,0,0,1,.15.21C431,114.72,431,115.69,430.94,116.43Z" style="fill:none"/></clipPath><clipPath id="n" transform="translate(0 -0.66)"><path d="M431,114v2.45a.25.25,0,0,1-.14.2v-2.44A.25.25,0,0,0,431,114Z" style="fill:none"/></clipPath><clipPath id="o" transform="translate(0 -0.66)"><path d="M448.8,124.28v2.45a.25.25,0,0,0-.15-.21.8.8,0,0,0-.71,0v-2.44a.77.77,0,0,1,.72,0A.24.24,0,0,1,448.8,124.28Z" style="fill:none"/></clipPath><clipPath id="p" transform="translate(0 -0.66)"><path d="M448.8,124.28v2.45a.24.24,0,0,1-.15.2v-2.44A.25.25,0,0,0,448.8,124.28Z" style="fill:none"/></clipPath><clipPath id="q" transform="translate(0 -0.66)"><path d="M466.63,134.58V137a.25.25,0,0,0-.15-.21.77.77,0,0,0-.71,0v-2.45a.75.75,0,0,1,.71,0A.23.23,0,0,1,466.63,134.58Z" style="fill:none"/></clipPath><clipPath id="r" transform="translate(0 -0.66)"><path d="M466.64,134.58V137a.24.24,0,0,1-.15.2v-2.44A.25.25,0,0,0,466.64,134.58Z" style="fill:none"/></clipPath><clipPath id="s" transform="translate(0 -0.66)"><path d="M0,131.84V129.4c0,1.88,1.23,3.76,3.69,5.18V137C1.23,135.6,0,133.72,0,131.84Z" style="fill:none"/></clipPath><clipPath id="t" transform="translate(0 -0.66)"><path d="M484.48,144.88v2.45a.23.23,0,0,0-.14-.2.75.75,0,0,0-.71,0v-2.45a.83.83,0,0,1,.72,0A.26.26,0,0,1,484.48,144.88Z" style="fill:none"/></clipPath><clipPath id="u" transform="translate(0 -0.66)"><path d="M484.48,144.89v2.44a.28.28,0,0,1-.14.21v-2.45C484.43,145,484.48,145,484.48,144.89Z" style="fill:none"/></clipPath><clipPath id="v" transform="translate(0 -0.66)"><path d="M306.62,144.89v2.44a.23.23,0,0,0-.14-.2.75.75,0,0,0-.71,0v-2.45a.83.83,0,0,1,.72,0A.26.26,0,0,1,306.62,144.89Z" style="fill:none"/></clipPath><clipPath id="w" transform="translate(0 -0.66)"><path d="M306.62,144.89v2.44a.27.27,0,0,1-.15.21v-2.45A.24.24,0,0,0,306.62,144.89Z" style="fill:none"/></clipPath><clipPath id="x" transform="translate(0 -0.66)"><path d="M136.74,162.79v-2.45a.24.24,0,0,1,.15-.2v2.44A.24.24,0,0,0,136.74,162.79Z" style="fill:none"/></clipPath><clipPath id="y" transform="translate(0 -0.66)"><path d="M136.74,162.79v-2.45a.25.25,0,0,0,.15.21.8.8,0,0,0,.71,0V163a.75.75,0,0,1-.71,0A.23.23,0,0,1,136.74,162.79Z" style="fill:none"/></clipPath><clipPath id="z" transform="translate(0 -0.66)"><path d="M154.58,173.09v-2.44a.3.3,0,0,1,.15-.21v2.44A.27.27,0,0,0,154.58,173.09Z" style="fill:none"/></clipPath><clipPath id="aa" transform="translate(0 -0.66)"><path d="M154.58,173.09v-2.44a.24.24,0,0,0,.14.2.8.8,0,0,0,.71,0v2.44a.77.77,0,0,1-.72,0A.25.25,0,0,1,154.58,173.09Z" style="fill:none"/></clipPath><clipPath id="ab" transform="translate(0 -0.66)"><path d="M172.42,183.39v-2.45a.26.26,0,0,1,.14-.2v2.44A.25.25,0,0,0,172.42,183.39Z" style="fill:none"/></clipPath><clipPath id="ac" transform="translate(0 -0.66)"><path d="M172.42,183.39v-2.45a.25.25,0,0,0,.15.21.75.75,0,0,0,.7,0v2.44a.77.77,0,0,1-.71,0A.27.27,0,0,1,172.42,183.39Z" style="fill:none"/></clipPath><clipPath id="ad" transform="translate(0 -0.66)"><path d="M190.27,193.69v-2.44a.25.25,0,0,1,.15-.21v2.45A.23.23,0,0,0,190.27,193.69Z" style="fill:none"/></clipPath><clipPath id="ae" transform="translate(0 -0.66)"><path d="M190.27,193.69v-2.44a.24.24,0,0,0,.15.2.8.8,0,0,0,.71,0v2.45a.78.78,0,0,1-.7,0A.25.25,0,0,1,190.27,193.69Z" style="fill:none"/></clipPath><clipPath id="af" transform="translate(0 -0.66)"><path d="M208.26,203.79c-.1.06-.15.13-.15.2v-2.44a.28.28,0,0,1,.14-.21Z" style="fill:none"/></clipPath><clipPath id="ag" transform="translate(0 -0.66)"><path d="M208.11,204v-2.44a.27.27,0,0,0,.15.21.75.75,0,0,0,.7,0v2.45a.8.8,0,0,1-.71,0A.24.24,0,0,1,208.11,204Z" style="fill:none"/></clipPath><clipPath id="ah" transform="translate(0 -0.66)"><path d="M413.68,206.7v2.45a.25.25,0,0,0-.15-.21.8.8,0,0,0-.71,0V206.5a.77.77,0,0,1,.71,0A.28.28,0,0,1,413.68,206.7Z" style="fill:none"/></clipPath><clipPath id="ai" transform="translate(0 -0.66)"><path d="M413.69,206.7v2.45c0,.07-.05.14-.15.2v-2.44A.25.25,0,0,0,413.69,206.7Z" style="fill:none"/></clipPath><clipPath id="aj" transform="translate(0 -0.66)"><path d="M243.8,224.6v-2.44A.27.27,0,0,1,244,222v2.45A.24.24,0,0,0,243.8,224.6Z" style="fill:none"/></clipPath><clipPath id="ak" transform="translate(0 -0.66)"><path d="M243.8,224.6v-2.44c0,.07,0,.14.14.2a.8.8,0,0,0,.71,0v2.44a.77.77,0,0,1-.72,0A.23.23,0,0,1,243.8,224.6Z" style="fill:none"/></clipPath><clipPath id="al" transform="translate(0 -0.66)"><path d="M261.64,234.9v-2.45a.26.26,0,0,1,.14-.2v2.44A.27.27,0,0,0,261.64,234.9Z" style="fill:none"/></clipPath><clipPath id="am" transform="translate(0 -0.66)"><path d="M261.64,234.9v-2.45a.25.25,0,0,0,.15.21.75.75,0,0,0,.71,0v2.45a.8.8,0,0,1-.71,0A.27.27,0,0,1,261.64,234.9Z" style="fill:none"/></clipPath><clipPath id="an" transform="translate(0 -0.66)"><path d="M279.63,245a.24.24,0,0,0-.15.2v-2.44a.25.25,0,0,1,.15-.21C279.64,243.29,279.63,244.26,279.63,245Z" style="fill:none"/></clipPath><clipPath id="ao" transform="translate(0 -0.66)"><path d="M279.49,245.2v-2.44a.27.27,0,0,0,.15.21.77.77,0,0,0,.71,0v2.45a.81.81,0,0,1-.71,0A.24.24,0,0,1,279.49,245.2Z" style="fill:none"/></clipPath><clipPath id="ap" transform="translate(0 -0.66)"><path d="M297.33,255.5v-2.44a.28.28,0,0,1,.14-.21v2.45C297.38,255.36,297.33,255.43,297.33,255.5Z" style="fill:none"/></clipPath><clipPath id="aq" transform="translate(0 -0.66)"><path d="M297.33,255.51v-2.45a.25.25,0,0,0,.15.21.75.75,0,0,0,.7,0v2.45a.8.8,0,0,1-.71,0A.24.24,0,0,1,297.33,255.51Z" style="fill:none"/></clipPath><clipPath id="ar" transform="translate(0 -0.66)"><path d="M315.17,265.81v-2.45c0-.07.05-.14.15-.2v2.44A.27.27,0,0,0,315.17,265.81Z" style="fill:none"/></clipPath><clipPath id="as" transform="translate(0 -0.66)"><path d="M315.17,265.81v-2.45a.25.25,0,0,0,.15.21.8.8,0,0,0,.71,0V266a.75.75,0,0,1-.71,0A.24.24,0,0,1,315.17,265.81Z" style="fill:none"/></clipPath><clipPath id="at" transform="translate(0 -0.66)"><path d="M639.06,186.13v2.45c0,1.85-1.21,3.7-3.63,5.11v-2.44C637.84,189.84,639.06,188,639.06,186.13Z" style="fill:none"/></clipPath><clipPath id="au" transform="translate(0 -0.66)"><path d="M378.37,340.63v2.45c-4.87,2.83-12.88,2.83-17.79,0v-2.44C365.49,343.46,373.5,343.46,378.37,340.63Z" style="fill:none"/></clipPath></defs><g style="isolation:isolate"><polygon points="323.09 0 323.08 2.45 278.76 28.2 278.77 25.76 323.09 0" style="fill:#232222"/><polygon points="260.99 25.76 260.98 28.2 216.37 2.45 216.38 0 260.99 25.76" style="fill:#181818"/><g style="isolation:isolate"><g style="clip-path:url(#a)"><g style="isolation:isolate"><path d="M278.77,26.41v2.45a14.19,14.19,0,0,1-2.74,1.2V27.61a14.37,14.37,0,0,0,2.73-1.2" transform="translate(0 -0.66)" style="fill:#202020"/><path d="M276,27.61v2.45a19.71,19.71,0,0,1-2.38.59V28.2a16.56,16.56,0,0,0,2.38-.59" transform="translate(0 -0.66)" style="fill:#201f1f"/><path d="M273.66,28.2v2.45c-.53.09-1.06.17-1.61.22V28.43c.54-.06,1.08-.13,1.61-.23" transform="translate(0 -0.66)" style="fill:#1f1e1e"/><path d="M272.05,28.43v2.44c-.46.05-.93.08-1.4.1V28.52c.48,0,.94-.05,1.41-.09" transform="translate(0 -0.66)" style="fill:#1e1d1d"/><path d="M270.64,28.52V31c-.43,0-.87,0-1.3,0V28.53c.43,0,.86,0,1.29,0" transform="translate(0 -0.66)" style="fill:#1d1c1c"/><path d="M269.35,28.53V31c-.42,0-.83,0-1.25-.06V28.46c.41,0,.83.06,1.25.07" transform="translate(0 -0.66)" style="fill:#1c1b1b"/><path d="M268.1,28.46v2.45c-.41,0-.82-.08-1.23-.14V28.32c.41.06.82.11,1.23.14" transform="translate(0 -0.66)" style="fill:#1b1a1a"/><path d="M266.87,28.32v2.45c-.42-.06-.84-.13-1.25-.22V28.11c.41.08.83.15,1.25.21" transform="translate(0 -0.66)" style="fill:#1a1a1a"/><path d="M265.62,28.11v2.44c-.44-.09-.88-.2-1.31-.32V27.78c.42.13.86.23,1.31.33" transform="translate(0 -0.66)" style="fill:#191919"/><path d="M264.31,27.78v2.45c-.52-.15-1-.32-1.52-.51V27.27a14.26,14.26,0,0,0,1.52.51" transform="translate(0 -0.66)" style="fill:#181818"/><path d="M262.79,27.27v2.45a14.92,14.92,0,0,1-1.8-.86V26.41a13.6,13.6,0,0,0,1.8.86" transform="translate(0 -0.66)" style="fill:#171717"/></g></g></g><g style="isolation:isolate"><g style="clip-path:url(#b)"><g style="isolation:isolate"><path d="M323.89,52.17v2.44a.24.24,0,0,0-.15-.2l-.07,0V51.93l.07,0a.25.25,0,0,1,.15.21" transform="translate(0 -0.66)" style="fill:#212020"/><path d="M323.67,51.93v2.44l-.06,0V51.91l.06,0" transform="translate(0 -0.66)" style="fill:#222121"/><path d="M323.61,51.91v2.44h-.05V51.89l.05,0" transform="translate(0 -0.66)" style="fill:#232222"/><path d="M323.56,51.89v2.45h-.05V51.89h.05" transform="translate(0 -0.66)" style="fill:#252323"/><path d="M323.51,51.89v2.44h-.05V51.88h.05" transform="translate(0 -0.66)" style="fill:#262525"/><path d="M323.46,51.88v2.45h-.05V51.88h0" transform="translate(0 -0.66)" style="fill:#272626"/><path d="M323.41,51.88v2.44h0V51.88h.05" transform="translate(0 -0.66)" style="fill:#282727"/><path d="M323.36,51.88v2.44h-.05V51.88h.06" transform="translate(0 -0.66)" style="fill:#2a2828"/><path d="M323.3,51.88v2.45h-.07V51.89h.06" transform="translate(0 -0.66)" style="fill:#2b2929"/><path d="M323.24,51.89v2.45l-.1,0V51.91l.1,0" transform="translate(0 -0.66)" style="fill:#2c2b2b"/><path d="M323.14,51.91v2.45l-.11,0V52l.11-.05" transform="translate(0 -0.66)" style="fill:#2d2c2c"/></g></g></g><g style="isolation:isolate"><g style="clip-path:url(#c)"><g style="isolation:isolate"><path d="M323.89,52.17v2.44a.24.24,0,0,0-.15-.2l-.07,0V51.93l.07,0a.25.25,0,0,1,.15.21" transform="translate(0 -0.66)" style="fill:#212020"/></g></g></g><g style="isolation:isolate"><g style="clip-path:url(#d)"><g style="isolation:isolate"><polyline points="323.88 51.51 323.88 53.96 323.88 53.96 323.88 51.52 323.88 51.51" style="fill:#5c5c64"/><path d="M323.89,52.17v0a0,0,0,0,0,0,0" transform="translate(0 -0.66)" style="fill:#5f5f68"/><path d="M323.88,52.2v2.45a0,0,0,0,0,0,0V52.23a0,0,0,0,0,0,0" transform="translate(0 -0.66)" style="fill:#63636b"/><path d="M323.87,52.23v2.44l0,0V52.26a0,0,0,0,0,0,0" transform="translate(0 -0.66)" style="fill:#66666f"/><path d="M323.86,52.26V54.7l0,0V52.29s0,0,0,0" transform="translate(0 -0.66)" style="fill:#696972"/><path d="M323.84,52.29v2.44s0,0,0,0V52.32l0,0" transform="translate(0 -0.66)" style="fill:#6c6c76"/><path d="M323.81,52.32v2.45l-.06,0V52.37l.06,0" transform="translate(0 -0.66)" style="fill:#6f6f79"/><polyline points="323.74 51.71 323.74 54.16 323.73 54.16 323.74 51.72 323.74 51.71" style="fill:#72727d"/></g></g></g><g style="isolation:isolate"><g style="clip-path:url(#e)"><g style="isolation:isolate"><path d="M341.73,62.47v2.45a.25.25,0,0,0-.15-.21l-.07,0V62.23l.07,0a.27.27,0,0,1,.15.21" transform="translate(0 -0.66)" style="fill:#212020"/><path d="M341.51,62.23v2.44l-.06,0V62.21l.06,0" transform="translate(0 -0.66)" style="fill:#222121"/><path d="M341.45,62.21v2.44h-.05V62.2h.05" transform="translate(0 -0.66)" style="fill:#232222"/><path d="M341.4,62.2v2.44h-.05V62.19h0" transform="translate(0 -0.66)" style="fill:#252323"/><path d="M341.35,62.19v2.44h0V62.18h.05" transform="translate(0 -0.66)" style="fill:#262525"/><path d="M341.3,62.18v2.45h-.05V62.18h0" transform="translate(0 -0.66)" style="fill:#272626"/><path d="M341.26,62.18v2.44h-.05V62.18h.05" transform="translate(0 -0.66)" style="fill:#282727"/><path d="M341.21,62.18v2.44h-.06V62.18h.06" transform="translate(0 -0.66)" style="fill:#2a2828"/><path d="M341.15,62.18v2.45h-.06V62.19h.06" transform="translate(0 -0.66)" style="fill:#2b2929"/><path d="M341.09,62.19v2.45l-.1,0V62.22l.1,0" transform="translate(0 -0.66)" style="fill:#2c2b2b"/><path d="M341,62.22v2.44l-.11,0V62.27l.12-.05" transform="translate(0 -0.66)" style="fill:#2d2c2c"/></g></g></g><g style="isolation:isolate"><g style="clip-path:url(#f)"><g style="isolation:isolate"><path d="M341.73,62.47v2.45a.25.25,0,0,0-.15-.21l-.07,0V62.23l.07,0a.27.27,0,0,1,.15.21" transform="translate(0 -0.66)" style="fill:#212020"/></g></g></g><g style="isolation:isolate"><g style="clip-path:url(#g)"><g style="isolation:isolate"><polyline points="341.73 61.82 341.72 64.26 341.72 64.27 341.73 61.82 341.73 61.82" style="fill:#5c5c64"/><path d="M341.73,62.48v0" transform="translate(0 -0.66)" style="fill:#5f5f68"/><path d="M341.73,62.5V65a0,0,0,0,1,0,0V62.5" transform="translate(0 -0.66)" style="fill:#63636b"/><path d="M341.72,62.53V65a0,0,0,0,1,0,0V62.56s0,0,0,0" transform="translate(0 -0.66)" style="fill:#66666f"/><path d="M341.71,62.56V65l0,0V62.59s0,0,0,0" transform="translate(0 -0.66)" style="fill:#696972"/><path d="M341.69,62.59V65l0,0V62.62l0,0" transform="translate(0 -0.66)" style="fill:#6c6c76"/><path d="M341.66,62.62v2.45l-.07.05V62.67a.18.18,0,0,0,.07-.05" transform="translate(0 -0.66)" style="fill:#6f6f79"/><polyline points="341.59 62.02 341.58 64.46 341.58 64.47 341.58 62.02 341.59 62.02" style="fill:#72727d"/></g></g></g><g style="isolation:isolate"><g style="clip-path:url(#h)"><g style="isolation:isolate"><path d="M359.57,72.77v2.44c0-.07-.05-.14-.15-.2l-.07,0V72.53l.08,0a.22.22,0,0,1,.14.2" transform="translate(0 -0.66)" style="fill:#212020"/><path d="M359.35,72.53V75l-.06,0V72.51l.06,0" transform="translate(0 -0.66)" style="fill:#222121"/><path d="M359.29,72.51V75l-.06,0V72.5h.05" transform="translate(0 -0.66)" style="fill:#232222"/><path d="M359.24,72.5v2.44h-.05V72.49h.05" transform="translate(0 -0.66)" style="fill:#252323"/><path d="M359.19,72.49v2.44h-.05V72.48h.05" transform="translate(0 -0.66)" style="fill:#262525"/><path d="M359.14,72.48v2.45h-.05V72.48h.05" transform="translate(0 -0.66)" style="fill:#272626"/><path d="M359.09,72.48v2.45H359V72.48h0" transform="translate(0 -0.66)" style="fill:#282727"/><path d="M359,72.48v2.45h0V72.48H359" transform="translate(0 -0.66)" style="fill:#2a2828"/><path d="M359,72.48v2.45h-.07V72.49H359" transform="translate(0 -0.66)" style="fill:#2b2929"/><path d="M358.92,72.49v2.45l-.09,0V72.52l.1,0" transform="translate(0 -0.66)" style="fill:#2c2b2b"/><path d="M358.82,72.52V75l-.11.05V72.57l.11,0" transform="translate(0 -0.66)" style="fill:#2d2c2c"/></g></g></g><g style="isolation:isolate"><g style="clip-path:url(#i)"><g style="isolation:isolate"><polyline points="359.57 72.11 359.56 74.56 359.56 74.56 359.57 72.12 359.57 72.11" style="fill:#5c5c64"/><path d="M359.57,72.77v2.45a0,0,0,0,1,0,0V72.77" transform="translate(0 -0.66)" style="fill:#5f5f68"/><path d="M359.57,72.8v0a0,0,0,0,0,0,0" transform="translate(0 -0.66)" style="fill:#63636b"/><path d="M359.56,72.83v2.44l0,0V72.86s0,0,0,0" transform="translate(0 -0.66)" style="fill:#66666f"/><path d="M359.55,72.86V75.3s0,0,0,0V72.89l0,0" transform="translate(0 -0.66)" style="fill:#696972"/><path d="M359.53,72.89v2.44l0,0V72.92l0,0" transform="translate(0 -0.66)" style="fill:#6c6c76"/><path d="M359.5,72.92v2.45l-.07,0V73a.18.18,0,0,0,.07,0" transform="translate(0 -0.66)" style="fill:#6f6f79"/><polyline points="359.43 72.32 359.42 74.76 359.42 74.77 359.42 72.32 359.43 72.32" style="fill:#72727d"/></g></g></g><g style="isolation:isolate"><g style="clip-path:url(#j)"><g style="isolation:isolate"><path d="M377.42,83.07v2.45a.26.26,0,0,0-.14-.21l-.08,0V82.83l.07,0a.24.24,0,0,1,.15.2" transform="translate(0 -0.66)" style="fill:#212020"/><path d="M377.2,82.83v2.45l-.06,0V82.81l.06,0" transform="translate(0 -0.66)" style="fill:#222121"/><path d="M377.14,82.81v2.45h-.05V82.8h.05" transform="translate(0 -0.66)" style="fill:#232222"/><path d="M377.09,82.8v2.45H377V82.79h0" transform="translate(0 -0.66)" style="fill:#252323"/><path d="M377,82.79v2.45h0V82.79H377" transform="translate(0 -0.66)" style="fill:#262525"/><path d="M377,82.79v2.44h-.05V82.78H377" transform="translate(0 -0.66)" style="fill:#272626"/><path d="M376.94,82.78v2.45h-.05V82.78h.05" transform="translate(0 -0.66)" style="fill:#282727"/><path d="M376.89,82.78v2.45h-.06V82.79h.06" transform="translate(0 -0.66)" style="fill:#2a2828"/><path d="M376.83,82.79v2.44h-.06V82.8h.06" transform="translate(0 -0.66)" style="fill:#2b2929"/><path d="M376.77,82.8v2.44l-.1,0V82.82l.1,0" transform="translate(0 -0.66)" style="fill:#2c2b2b"/><path d="M376.67,82.82v2.45l-.11,0V82.87l.11-.05" transform="translate(0 -0.66)" style="fill:#2d2c2c"/></g></g></g><g style="isolation:isolate"><g style="clip-path:url(#k)"><g style="isolation:isolate"><polyline points="377.41 82.42 377.41 84.86 377.41 84.87 377.41 82.42 377.41 82.42" style="fill:#5c5c64"/><path d="M377.42,83.08v0a0,0,0,0,0,0,0" transform="translate(0 -0.66)" style="fill:#5f5f68"/><path d="M377.41,83.1v2.45a0,0,0,0,0,0,0V83.13a0,0,0,0,0,0,0" transform="translate(0 -0.66)" style="fill:#63636b"/><path d="M377.4,83.13v2.45l0,0V83.16a0,0,0,0,0,0,0" transform="translate(0 -0.66)" style="fill:#66666f"/><path d="M377.39,83.16v2.45s0,0,0,0V83.19s0,0,0,0" transform="translate(0 -0.66)" style="fill:#696972"/><path d="M377.37,83.19v2.45l0,0V83.23l0,0" transform="translate(0 -0.66)" style="fill:#6c6c76"/><path d="M377.34,83.23v2.44l-.06,0V83.27l.07,0" transform="translate(0 -0.66)" style="fill:#6f6f79"/><polyline points="377.27 82.62 377.27 85.06 377.26 85.07 377.27 82.62 377.27 82.62" style="fill:#72727d"/></g></g></g><g style="isolation:isolate"><g style="clip-path:url(#l)"><g style="isolation:isolate"><path d="M431,114v2.45a.25.25,0,0,0-.15-.21l-.07,0v-2.44l.07,0a.27.27,0,0,1,.15.21" transform="translate(0 -0.66)" style="fill:#212020"/><path d="M430.73,113.74v2.44l-.06,0v-2.44l.06,0" transform="translate(0 -0.66)" style="fill:#222121"/><path d="M430.67,113.72v2.44h-.05v-2.44h.05" transform="translate(0 -0.66)" style="fill:#232222"/><path d="M430.62,113.71v2.44h-.05V113.7h.05" transform="translate(0 -0.66)" style="fill:#252323"/><path d="M430.57,113.7v2.44h0v-2.45h.05" transform="translate(0 -0.66)" style="fill:#262525"/><path d="M430.52,113.69v2.45h0v-2.45h0" transform="translate(0 -0.66)" style="fill:#272626"/><path d="M430.48,113.69v2.45h-.05v-2.45h.05" transform="translate(0 -0.66)" style="fill:#282727"/><path d="M430.43,113.69v2.45h-.06v-2.45h.06" transform="translate(0 -0.66)" style="fill:#2a2828"/><path d="M430.37,113.69v2.45h-.06V113.7h.06" transform="translate(0 -0.66)" style="fill:#2b2929"/><path d="M430.31,113.7v2.45l-.1,0v-2.44l.1,0" transform="translate(0 -0.66)" style="fill:#2c2b2b"/><path d="M430.21,113.73v2.44l-.11,0v-2.44l.12,0" transform="translate(0 -0.66)" style="fill:#2d2c2c"/></g></g></g><g style="isolation:isolate"><g style="clip-path:url(#m)"><g style="isolation:isolate"><path d="M431,114v2.45a.25.25,0,0,0-.15-.21l-.07,0v-2.44l.07,0a.27.27,0,0,1,.15.21" transform="translate(0 -0.66)" style="fill:#212020"/></g></g></g><g style="isolation:isolate"><g style="clip-path:url(#n)"><g style="isolation:isolate"><polyline points="430.95 113.33 430.94 115.77 430.94 115.78 430.95 113.33 430.95 113.33" style="fill:#5c5c64"/><path d="M431,114v0" transform="translate(0 -0.66)" style="fill:#5f5f68"/><path d="M431,114v2.45a0,0,0,0,1,0,0V114s0,0,0,0" transform="translate(0 -0.66)" style="fill:#63636b"/><path d="M430.94,114v2.45s0,0,0,0V114" transform="translate(0 -0.66)" style="fill:#66666f"/><path d="M430.93,114.07v2.45l0,0V114.1l0,0" transform="translate(0 -0.66)" style="fill:#696972"/><path d="M430.91,114.1v2.45l0,0v-2.44l0,0" transform="translate(0 -0.66)" style="fill:#6c6c76"/><path d="M430.87,114.14v2.44l-.07,0v-2.45l.06,0" transform="translate(0 -0.66)" style="fill:#6f6f79"/><polyline points="430.81 113.53 430.8 115.97 430.8 115.98 430.8 113.53 430.81 113.53" style="fill:#72727d"/></g></g></g><g style="isolation:isolate"><g style="clip-path:url(#o)"><g style="isolation:isolate"><path d="M448.8,124.28v2.45a.25.25,0,0,0-.15-.21l-.07,0V124l.08,0a.24.24,0,0,1,.15.2" transform="translate(0 -0.66)" style="fill:#212020"/><path d="M448.57,124v2.45l-.07,0V124l.06,0" transform="translate(0 -0.66)" style="fill:#222121"/><path d="M448.51,124v2.45l-.05,0V124h.05" transform="translate(0 -0.66)" style="fill:#232222"/><path d="M448.46,124v2.44h-.05V124h0" transform="translate(0 -0.66)" style="fill:#252323"/><path d="M448.41,124v2.44h0V124h.05" transform="translate(0 -0.66)" style="fill:#262525"/><path d="M448.36,124v2.45h-.05V124h.05" transform="translate(0 -0.66)" style="fill:#272626"/><path d="M448.31,124v2.45h-.05V124h.05" transform="translate(0 -0.66)" style="fill:#282727"/><path d="M448.26,124v2.45h-.05V124h.06" transform="translate(0 -0.66)" style="fill:#2a2828"/><path d="M448.2,124v2.45h-.07V124h.06" transform="translate(0 -0.66)" style="fill:#2b2929"/><path d="M448.14,124v2.45l-.09,0V124l.1,0" transform="translate(0 -0.66)" style="fill:#2c2b2b"/><path d="M448,124v2.44l-.11,0v-2.44l.11,0" transform="translate(0 -0.66)" style="fill:#2d2c2c"/></g></g></g><g style="isolation:isolate"><g style="clip-path:url(#p)"><g style="isolation:isolate"><polyline points="448.79 123.63 448.79 126.08 448.79 126.08 448.79 123.63 448.79 123.63" style="fill:#5c5c64"/><path d="M448.8,124.29v0" transform="translate(0 -0.66)" style="fill:#5f5f68"/><path d="M448.79,124.32v2.44a0,0,0,0,0,0,0v-2.44a0,0,0,0,0,0,0" transform="translate(0 -0.66)" style="fill:#63636b"/><path d="M448.78,124.35v2.44l0,0v-2.45s0,0,0,0" transform="translate(0 -0.66)" style="fill:#66666f"/><path d="M448.77,124.37v2.45s0,0,0,0V124.4l0,0" transform="translate(0 -0.66)" style="fill:#696972"/><path d="M448.75,124.4v2.45l0,0v-2.44l0,0" transform="translate(0 -0.66)" style="fill:#6c6c76"/><path d="M448.72,124.44v2.44l-.06.05v-2.44l.06,0" transform="translate(0 -0.66)" style="fill:#6f6f79"/><polyline points="448.65 123.83 448.65 126.28 448.64 126.28 448.65 123.83 448.65 123.83" style="fill:#72727d"/></g></g></g><g style="isolation:isolate"><g style="clip-path:url(#q)"><g style="isolation:isolate"><path d="M466.63,134.58V137a.25.25,0,0,0-.15-.21l-.07,0v-2.45l.07,0a.23.23,0,0,1,.14.2" transform="translate(0 -0.66)" style="fill:#212020"/><path d="M466.42,134.34v2.45l-.06,0v-2.45l.06,0" transform="translate(0 -0.66)" style="fill:#222121"/><path d="M466.36,134.32v2.45h-.05v-2.45h.06" transform="translate(0 -0.66)" style="fill:#232222"/><path d="M466.3,134.31v2.45h-.05V134.3h.05" transform="translate(0 -0.66)" style="fill:#252323"/><path d="M466.25,134.3v2.45h-.05V134.3h0" transform="translate(0 -0.66)" style="fill:#262525"/><path d="M466.21,134.3v2.44h-.05v-2.45h0" transform="translate(0 -0.66)" style="fill:#272626"/><path d="M466.16,134.29v2.45h0v-2.45h.06" transform="translate(0 -0.66)" style="fill:#282727"/><path d="M466.1,134.29v2.45H466V134.3h.05" transform="translate(0 -0.66)" style="fill:#2a2828"/><path d="M466.05,134.3v2.44H466v-2.44h.07" transform="translate(0 -0.66)" style="fill:#2b2929"/><path d="M466,134.31v2.44l-.1,0v-2.45l.09,0" transform="translate(0 -0.66)" style="fill:#2c2b2b"/><path d="M465.89,134.33v2.45l-.11.05v-2.45l.11,0" transform="translate(0 -0.66)" style="fill:#2d2c2c"/></g></g></g><g style="isolation:isolate"><g style="clip-path:url(#r)"><g style="isolation:isolate"><polyline points="466.63 133.93 466.63 136.37 466.63 136.38 466.63 133.93 466.63 133.93" style="fill:#5c5c64"/><path d="M466.64,134.59v0" transform="translate(0 -0.66)" style="fill:#5f5f68"/><path d="M466.63,134.62v2.44a0,0,0,0,0,0,0v-2.47" transform="translate(0 -0.66)" style="fill:#63636b"/><path d="M466.62,134.64v2.45l0,0v-2.45a0,0,0,0,0,0,0" transform="translate(0 -0.66)" style="fill:#66666f"/><path d="M466.61,134.67v2.45l0,0V134.7l0,0" transform="translate(0 -0.66)" style="fill:#696972"/><path d="M466.59,134.7v2.45l0,0v-2.44l0,0" transform="translate(0 -0.66)" style="fill:#6c6c76"/><path d="M466.56,134.74v2.44l-.06,0v-2.45l.07,0" transform="translate(0 -0.66)" style="fill:#6f6f79"/><polyline points="466.49 134.13 466.49 136.57 466.48 136.58 466.49 134.13 466.49 134.13" style="fill:#72727d"/></g></g></g><g style="isolation:isolate"><g style="clip-path:url(#s)"><g style="isolation:isolate"><path d="M3.7,134.58V137C1.23,135.6,0,133.72,0,131.84V129.4c0,1.88,1.23,3.76,3.69,5.18" transform="translate(0 -0.66)" style="fill:#212020"/></g></g></g><g style="isolation:isolate"><g style="clip-path:url(#t)"><g style="isolation:isolate"><path d="M484.48,144.88v2.45a.23.23,0,0,0-.14-.2l-.07,0v-2.44l.08,0a.26.26,0,0,1,.14.2" transform="translate(0 -0.66)" style="fill:#212020"/><path d="M484.26,144.65v2.44l-.06,0v-2.44l.06,0" transform="translate(0 -0.66)" style="fill:#222121"/><path d="M484.2,144.63v2.44h-.06v-2.45l.05,0" transform="translate(0 -0.66)" style="fill:#232222"/><path d="M484.15,144.61v2.45h-.05V144.6h0" transform="translate(0 -0.66)" style="fill:#252323"/><path d="M484.1,144.6v2.45h0V144.6h.05" transform="translate(0 -0.66)" style="fill:#262525"/><path d="M484.05,144.6V147H484V144.6h.05" transform="translate(0 -0.66)" style="fill:#272626"/><path d="M484,144.6V147h-.05V144.6H484" transform="translate(0 -0.66)" style="fill:#282727"/><path d="M484,144.6V147h-.05V144.6H484" transform="translate(0 -0.66)" style="fill:#2a2828"/><path d="M483.89,144.6v2.45h-.07v-2.45h.06" transform="translate(0 -0.66)" style="fill:#2b2929"/><path d="M483.83,144.61v2.45l-.09,0v-2.45l.1,0" transform="translate(0 -0.66)" style="fill:#2c2b2b"/><path d="M483.73,144.63v2.45l-.11,0v-2.45l.11-.05" transform="translate(0 -0.66)" style="fill:#2d2c2c"/></g></g></g><g style="isolation:isolate"><g style="clip-path:url(#u)"><g style="isolation:isolate"><polyline points="484.48 144.23 484.47 146.68 484.47 146.68 484.48 144.23 484.48 144.23" style="fill:#5c5c64"/><path d="M484.48,144.89v0" transform="translate(0 -0.66)" style="fill:#5f5f68"/><path d="M484.48,144.92v2.44a0,0,0,0,1,0,0V145s0,0,0,0" transform="translate(0 -0.66)" style="fill:#63636b"/><path d="M484.47,145v2.44s0,0,0,0V145s0,0,0,0" transform="translate(0 -0.66)" style="fill:#66666f"/><path d="M484.46,145v2.44l0,0V145l0,0" transform="translate(0 -0.66)" style="fill:#696972"/><path d="M484.44,145v2.44l0,0V145l0,0" transform="translate(0 -0.66)" style="fill:#6c6c76"/><path d="M484.4,145v2.45l-.07,0v-2.44s.05,0,.06-.05" transform="translate(0 -0.66)" style="fill:#6f6f79"/><polyline points="484.34 144.43 484.33 146.88 484.32 146.88 484.33 144.44 484.34 144.43" style="fill:#72727d"/></g></g></g><g style="isolation:isolate"><g style="clip-path:url(#v)"><g style="isolation:isolate"><path d="M306.62,144.89v2.44a.23.23,0,0,0-.14-.2l-.07,0v-2.44l.08,0a.26.26,0,0,1,.14.21" transform="translate(0 -0.66)" style="fill:#212020"/><path d="M306.4,144.65v2.44l-.06,0v-2.44l.06,0" transform="translate(0 -0.66)" style="fill:#222121"/><path d="M306.34,144.63v2.44h-.06v-2.45l0,0" transform="translate(0 -0.66)" style="fill:#232222"/><path d="M306.29,144.61v2.45h0v-2.44h.05" transform="translate(0 -0.66)" style="fill:#252323"/><path d="M306.24,144.61v2.44h-.05V144.6h.05" transform="translate(0 -0.66)" style="fill:#262525"/><path d="M306.19,144.6v2.45h0V144.6h.05" transform="translate(0 -0.66)" style="fill:#272626"/><path d="M306.14,144.6V147h-.06V144.6h.05" transform="translate(0 -0.66)" style="fill:#282727"/><path d="M306.09,144.6V147H306V144.6h0" transform="translate(0 -0.66)" style="fill:#2a2828"/><path d="M306,144.6v2.45H306v-2.45H306" transform="translate(0 -0.66)" style="fill:#2b2929"/><path d="M306,144.61v2.45l-.09,0v-2.45l.09,0" transform="translate(0 -0.66)" style="fill:#2c2b2b"/><path d="M305.88,144.63v2.45l-.11,0v-2.45l.12-.05" transform="translate(0 -0.66)" style="fill:#2d2c2c"/></g></g></g><g style="isolation:isolate"><g style="clip-path:url(#w)"><g style="isolation:isolate"><polyline points="306.62 144.23 306.61 146.68 306.61 146.68 306.62 144.24 306.62 144.23" style="fill:#5c5c64"/><path d="M306.62,144.89v0" transform="translate(0 -0.66)" style="fill:#5f5f68"/><path d="M306.62,144.92v2.44a0,0,0,0,1,0,0V145s0,0,0,0" transform="translate(0 -0.66)" style="fill:#63636b"/><path d="M306.61,145v2.44a0,0,0,0,1,0,0V145s0,0,0,0" transform="translate(0 -0.66)" style="fill:#66666f"/><path d="M306.6,145v2.44l0,0V145l0,0" transform="translate(0 -0.66)" style="fill:#696972"/><path d="M306.58,145v2.44l0,0V145l0,0" transform="translate(0 -0.66)" style="fill:#6c6c76"/><path d="M306.54,145v2.45l-.07,0v-2.44s0,0,.06-.05" transform="translate(0 -0.66)" style="fill:#6f6f79"/><polyline points="306.48 144.43 306.47 146.88 306.47 146.88 306.47 144.44 306.48 144.43" style="fill:#72727d"/></g></g></g><polygon points="323.03 51.31 323.02 53.75 136.88 161.93 136.89 159.48 323.03 51.31" style="fill:#312f2f"/><g style="isolation:isolate"><g style="clip-path:url(#x)"><g style="isolation:isolate"><polyline points="136.89 159.48 136.88 161.93 136.88 161.93 136.88 159.49 136.89 159.48" style="fill:#2d2c2c"/><path d="M136.88,160.14v2.45l-.07,0v-2.44l.06-.05" transform="translate(0 -0.66)" style="fill:#2c2b2b"/><path d="M136.82,160.19v2.44l0,0v-2.45l0,0" transform="translate(0 -0.66)" style="fill:#2b2929"/><path d="M136.79,160.22v2.45l0,0v-2.45l0,0" transform="translate(0 -0.66)" style="fill:#2a2828"/><path d="M136.77,160.25v2.45s0,0,0,0v-2.45l0,0" transform="translate(0 -0.66)" style="fill:#282727"/><path d="M136.75,160.28v0" transform="translate(0 -0.66)" style="fill:#272626"/><path d="M136.75,160.31v0a0,0,0,0,1,0,0" transform="translate(0 -0.66)" style="fill:#262525"/><polyline points="136.74 159.68 136.73 162.13 136.73 162.13 136.74 159.69 136.74 159.68" style="fill:#252323"/></g></g></g><polygon points="323.74 51.72 323.73 54.16 137.59 162.34 137.6 159.89 323.74 51.72" style="fill:#7b7b85"/><g style="isolation:isolate"><g style="clip-path:url(#y)"><g style="isolation:isolate"><path d="M137.6,160.55V163l-.11,0v-2.45l.11,0" transform="translate(0 -0.66)" style="fill:#72727d"/><path d="M137.49,160.59V163l-.09,0v-2.44l.1,0" transform="translate(0 -0.66)" style="fill:#6f6f79"/><path d="M137.39,160.62v2.44h-.07v-2.44h.06" transform="translate(0 -0.66)" style="fill:#6c6c76"/><path d="M137.33,160.63v2.44h0v-2.45h.06" transform="translate(0 -0.66)" style="fill:#696972"/><path d="M137.27,160.63v2.45h-.05v-2.45h.05" transform="translate(0 -0.66)" style="fill:#66666f"/><path d="M137.22,160.63v2.45h-.05v-2.44h.05" transform="translate(0 -0.66)" style="fill:#63636b"/><path d="M137.17,160.63v2.44h0v-2.45h0" transform="translate(0 -0.66)" style="fill:#5f5f68"/><path d="M137.12,160.62v2.45h-.05v-2.45h.05" transform="translate(0 -0.66)" style="fill:#5c5c64"/><path d="M137.07,160.61v2.45H137V160.6h0" transform="translate(0 -0.66)" style="fill:#595961"/><path d="M137,160.6v2.45l-.06,0v-2.45l.06,0" transform="translate(0 -0.66)" style="fill:#56565d"/><path d="M137,160.58V163l-.07,0a.23.23,0,0,1-.14-.2v-2.45a.25.25,0,0,0,.15.21l.07,0" transform="translate(0 -0.66)" style="fill:#53535a"/></g></g></g><path d="M323.74,52a.22.22,0,0,1,0,.41L137.6,160.55a.8.8,0,0,1-.71,0,.22.22,0,0,1,0-.41L323,52A.8.8,0,0,1,323.74,52Z" transform="translate(0 -0.66)" style="fill:#898995"/><polygon points="340.87 61.61 340.87 64.06 154.73 172.23 154.73 169.78 340.87 61.61" style="fill:#312f2f"/><g style="isolation:isolate"><g style="clip-path:url(#z)"><g style="isolation:isolate"><polyline points="154.73 169.78 154.73 172.23 154.72 172.23 154.73 169.79 154.73 169.78" style="fill:#2d2c2c"/><path d="M154.73,170.44v2.45l-.07.05v-2.45l.07-.05" transform="translate(0 -0.66)" style="fill:#2c2b2b"/><path d="M154.66,170.49v2.45l0,0v-2.44l0,0" transform="translate(0 -0.66)" style="fill:#2b2929"/><path d="M154.63,170.53V173l0,0v-2.44l0,0" transform="translate(0 -0.66)" style="fill:#2a2828"/><path d="M154.61,170.56v0a0,0,0,0,1,0,0" transform="translate(0 -0.66)" style="fill:#282727"/><path d="M154.6,170.59v0s0,0,0,0" transform="translate(0 -0.66)" style="fill:#272626"/><path d="M154.59,170.61v0a0,0,0,0,0,0,0" transform="translate(0 -0.66)" style="fill:#262525"/><polyline points="154.58 169.99 154.58 172.43 154.58 172.44 154.58 169.99 154.58 169.99" style="fill:#252323"/></g></g></g><polygon points="341.58 62.02 341.58 64.47 155.44 172.64 155.44 170.19 341.58 62.02" style="fill:#7b7b85"/><g style="isolation:isolate"><g style="clip-path:url(#aa)"><g style="isolation:isolate"><path d="M155.44,170.85v2.44l-.11.05V170.9l.11-.05" transform="translate(0 -0.66)" style="fill:#72727d"/><path d="M155.33,170.9v2.44l-.1,0v-2.45l.09,0" transform="translate(0 -0.66)" style="fill:#6f6f79"/><path d="M155.24,170.92v2.45h-.06v-2.45h.07" transform="translate(0 -0.66)" style="fill:#6c6c76"/><path d="M155.17,170.93v2.45h-.06v-2.45h0" transform="translate(0 -0.66)" style="fill:#696972"/><path d="M155.12,170.93v2.45h-.05v-2.45h.05" transform="translate(0 -0.66)" style="fill:#66666f"/><path d="M155.07,170.93v2.45H155v-2.45h0" transform="translate(0 -0.66)" style="fill:#63636b"/><path d="M155,170.93v2.45h0v-2.44H155" transform="translate(0 -0.66)" style="fill:#5f5f68"/><path d="M155,170.93v2.44h-.05v-2.44H155" transform="translate(0 -0.66)" style="fill:#5c5c64"/><path d="M154.92,170.92v2.44h0V170.9l0,0" transform="translate(0 -0.66)" style="fill:#595961"/><path d="M154.87,170.9v2.45l-.06,0v-2.45l.06,0" transform="translate(0 -0.66)" style="fill:#56565d"/><path d="M154.81,170.88v2.45l-.08,0a.25.25,0,0,1-.14-.2v-2.44a.24.24,0,0,0,.14.2l.08,0" transform="translate(0 -0.66)" style="fill:#53535a"/></g></g></g><path d="M341.58,62.26c.2.12.2.3,0,.42L155.44,170.85a.8.8,0,0,1-.71,0c-.2-.12-.19-.3,0-.41L340.88,62.27A.75.75,0,0,1,341.58,62.26Z" transform="translate(0 -0.66)" style="fill:#898995"/><polygon points="358.71 71.91 358.7 74.36 172.56 182.53 172.57 180.08 358.71 71.91" style="fill:#312f2f"/><g style="isolation:isolate"><g style="clip-path:url(#ab)"><g style="isolation:isolate"><polyline points="172.57 180.08 172.56 182.53 172.56 182.53 172.56 180.09 172.57 180.08" style="fill:#2d2c2c"/><path d="M172.57,180.74v2.45l-.06,0v-2.44l.07,0" transform="translate(0 -0.66)" style="fill:#2c2b2b"/><path d="M172.5,180.79v2.44l0,0v-2.45l0,0" transform="translate(0 -0.66)" style="fill:#2b2929"/><path d="M172.47,180.82v2.45l0,0v-2.45l0,0" transform="translate(0 -0.66)" style="fill:#2a2828"/><path d="M172.45,180.85v2.45s0,0,0,0v-2.45s0,0,0,0" transform="translate(0 -0.66)" style="fill:#282727"/><path d="M172.44,180.88v2.45a0,0,0,0,1,0,0v-2.45a0,0,0,0,1,0,0" transform="translate(0 -0.66)" style="fill:#272626"/><path d="M172.43,180.91v0" transform="translate(0 -0.66)" style="fill:#262525"/><polyline points="172.43 180.28 172.42 182.73 172.42 182.73 172.43 180.29 172.43 180.28" style="fill:#252323"/></g></g></g><polygon points="359.42 72.32 359.42 74.77 173.28 182.94 173.28 180.49 359.42 72.32" style="fill:#7b7b85"/><g style="isolation:isolate"><g style="clip-path:url(#ac)"><g style="isolation:isolate"><path d="M173.28,181.15v2.44l-.12,0V181.2l.11,0" transform="translate(0 -0.66)" style="fill:#72727d"/><path d="M173.17,181.2v2.44l-.09,0v-2.45l.1,0" transform="translate(0 -0.66)" style="fill:#6f6f79"/><path d="M173.07,181.22v2.45H173v-2.45h.06" transform="translate(0 -0.66)" style="fill:#6c6c76"/><path d="M173,181.23v2.45H173v-2.45H173" transform="translate(0 -0.66)" style="fill:#696972"/><path d="M173,181.23v2.45h0v-2.44h0" transform="translate(0 -0.66)" style="fill:#66666f"/><path d="M172.9,181.24v2.44h-.05v-2.45h0" transform="translate(0 -0.66)" style="fill:#63636b"/><path d="M172.86,181.23v2.45h0v-2.44h.05" transform="translate(0 -0.66)" style="fill:#5f5f68"/><path d="M172.81,181.23v2.44h-.05v-2.44h.05" transform="translate(0 -0.66)" style="fill:#5c5c64"/><path d="M172.76,181.22v2.44h-.05v-2.44h0" transform="translate(0 -0.66)" style="fill:#595961"/><path d="M172.71,181.21v2.44l-.06,0v-2.44l.06,0" transform="translate(0 -0.66)" style="fill:#56565d"/><path d="M172.65,181.19v2.44l-.07,0a.27.27,0,0,1-.15-.21v-2.45a.25.25,0,0,0,.15.21l.07,0" transform="translate(0 -0.66)" style="fill:#53535a"/></g></g></g><polygon points="376.56 82.21 376.55 84.66 190.41 192.83 190.42 190.39 376.56 82.21" style="fill:#312f2f"/><g style="isolation:isolate"><g style="clip-path:url(#ad)"><g style="isolation:isolate"><polyline points="190.42 190.39 190.41 192.83 190.4 192.84 190.41 190.39 190.42 190.39" style="fill:#2d2c2c"/><path d="M190.41,191.05v2.44l-.07,0v-2.45l.06,0" transform="translate(0 -0.66)" style="fill:#2c2b2b"/><path d="M190.35,191.09v2.45l0,0v-2.44l0,0" transform="translate(0 -0.66)" style="fill:#2b2929"/><path d="M190.32,191.13v2.44l0,0v-2.44l0,0" transform="translate(0 -0.66)" style="fill:#2a2828"/><path d="M190.3,191.16v2.44a0,0,0,0,0,0,0v-2.44l0,0" transform="translate(0 -0.66)" style="fill:#282727"/><path d="M190.28,191.19v2.44a0,0,0,0,0,0,0v-2.47" transform="translate(0 -0.66)" style="fill:#272626"/><path d="M190.28,191.21v0a0,0,0,0,1,0,0" transform="translate(0 -0.66)" style="fill:#262525"/><polyline points="190.27 190.59 190.26 193.03 190.26 193.04 190.27 190.59 190.27 190.59" style="fill:#252323"/></g></g></g><polygon points="377.27 82.62 377.26 85.07 191.12 193.24 191.13 190.79 377.27 82.62" style="fill:#7b7b85"/><g style="isolation:isolate"><g style="clip-path:url(#ae)"><g style="isolation:isolate"><path d="M191.13,191.45v2.45l-.11,0V191.5l.11-.05" transform="translate(0 -0.66)" style="fill:#72727d"/><path d="M191,191.5V194l-.1,0v-2.45l.1,0" transform="translate(0 -0.66)" style="fill:#6f6f79"/><path d="M190.92,191.52V194h-.06v-2.45h.06" transform="translate(0 -0.66)" style="fill:#6c6c76"/><path d="M190.86,191.53V194h-.06v-2.44h.06" transform="translate(0 -0.66)" style="fill:#696972"/><path d="M190.8,191.54V194h0v-2.44h.05" transform="translate(0 -0.66)" style="fill:#66666f"/><path d="M190.75,191.54V194h-.05v-2.45h.05" transform="translate(0 -0.66)" style="fill:#63636b"/><path d="M190.7,191.53V194h-.05v-2.44h0" transform="translate(0 -0.66)" style="fill:#5f5f68"/><path d="M190.65,191.53V194h0v-2.45h.05" transform="translate(0 -0.66)" style="fill:#5c5c64"/><path d="M190.6,191.52V194l-.05,0v-2.44h0" transform="translate(0 -0.66)" style="fill:#595961"/><path d="M190.55,191.51V194l-.06,0v-2.44l.06,0" transform="translate(0 -0.66)" style="fill:#56565d"/><path d="M190.49,191.49v2.44l-.06,0a.25.25,0,0,1-.15-.21v-2.44a.24.24,0,0,0,.15.2l.07,0" transform="translate(0 -0.66)" style="fill:#53535a"/></g></g></g><path d="M377.27,82.87c.19.11.2.29,0,.41L191.13,191.45a.8.8,0,0,1-.71,0c-.2-.11-.2-.29,0-.41L376.56,82.87A.75.75,0,0,1,377.27,82.87Z" transform="translate(0 -0.66)" style="fill:#898995"/><polygon points="305.76 144.03 305.76 146.47 208.25 203.13 208.26 200.69 305.76 144.03" style="fill:#312f2f"/><g style="isolation:isolate"><g style="clip-path:url(#af)"><g style="isolation:isolate"><polyline points="208.26 200.69 208.25 203.13 208.25 203.14 208.26 200.69 208.26 200.69" style="fill:#2d2c2c"/><path d="M208.26,201.35v2.44s-.05,0-.06.05V201.4a.18.18,0,0,1,.07-.05" transform="translate(0 -0.66)" style="fill:#2c2b2b"/><path d="M208.19,201.4v2.44s0,0,0,0v-2.44l0,0" transform="translate(0 -0.66)" style="fill:#2b2929"/><path d="M208.16,201.43v2.44s0,0,0,0v-2.44l0,0" transform="translate(0 -0.66)" style="fill:#2a2828"/><path d="M208.14,201.46v2.44l0,0v-2.44s0,0,0,0" transform="translate(0 -0.66)" style="fill:#282727"/><path d="M208.13,201.49v2.44a0,0,0,0,1,0,0v-2.44s0,0,0,0" transform="translate(0 -0.66)" style="fill:#272626"/><path d="M208.12,201.52v0" transform="translate(0 -0.66)" style="fill:#262525"/><polyline points="208.12 200.89 208.11 203.34 208.11 203.34 208.12 200.89 208.12 200.89" style="fill:#252323"/></g></g></g><polygon points="306.47 144.44 306.47 146.88 208.97 203.54 208.97 201.1 306.47 144.44" style="fill:#7b7b85"/><g style="isolation:isolate"><g style="clip-path:url(#ag)"><g style="isolation:isolate"><path d="M209,201.75v2.45l-.11.05V201.8l.11-.05" transform="translate(0 -0.66)" style="fill:#72727d"/><path d="M208.86,201.8v2.45l-.1,0v-2.44l.09,0" transform="translate(0 -0.66)" style="fill:#6f6f79"/><path d="M208.77,201.83v2.44h-.07v-2.44h.07" transform="translate(0 -0.66)" style="fill:#6c6c76"/><path d="M208.7,201.84v2.44h-.05v-2.44h0" transform="translate(0 -0.66)" style="fill:#696972"/><path d="M208.65,201.84v2.44h0v-2.44h.06" transform="translate(0 -0.66)" style="fill:#66666f"/><path d="M208.59,201.84v2.44h-.05v-2.44h.05" transform="translate(0 -0.66)" style="fill:#63636b"/><path d="M208.54,201.84v2.44h0v-2.45h0" transform="translate(0 -0.66)" style="fill:#5f5f68"/><path d="M208.5,201.83v2.45h-.05v-2.45h.05" transform="translate(0 -0.66)" style="fill:#5c5c64"/><path d="M208.45,201.82v2.45h-.05v-2.45h0" transform="translate(0 -0.66)" style="fill:#595961"/><path d="M208.4,201.81v2.45l-.06,0v-2.45l.06,0" transform="translate(0 -0.66)" style="fill:#56565d"/><path d="M208.34,201.79v2.45l-.07,0a.24.24,0,0,1-.15-.21v-2.44a.27.27,0,0,0,.15.21l.07,0" transform="translate(0 -0.66)" style="fill:#53535a"/></g></g></g><path d="M306.48,144.68a.22.22,0,0,1,0,.41L209,201.75a.75.75,0,0,1-.7,0c-.2-.12-.2-.3,0-.42l97.51-56.66A.8.8,0,0,1,306.48,144.68Z" transform="translate(0 -0.66)" style="fill:#898995"/><g style="isolation:isolate"><g style="clip-path:url(#ah)"><g style="isolation:isolate"><path d="M413.68,206.7v2.45a.25.25,0,0,0-.15-.21l-.07,0v-2.45l.07,0a.28.28,0,0,1,.14.21" transform="translate(0 -0.66)" style="fill:#212020"/><path d="M413.47,206.46v2.45l-.06,0v-2.45l.06,0" transform="translate(0 -0.66)" style="fill:#222121"/><path d="M413.41,206.44v2.45l0,0v-2.44h.05" transform="translate(0 -0.66)" style="fill:#232222"/><path d="M413.36,206.43v2.44h-.05v-2.44h.05" transform="translate(0 -0.66)" style="fill:#252323"/><path d="M413.31,206.42v2.44h-.05v-2.45h.05" transform="translate(0 -0.66)" style="fill:#262525"/><path d="M413.26,206.41v2.45h-.05v-2.45h.05" transform="translate(0 -0.66)" style="fill:#272626"/><path d="M413.21,206.41v2.45h-.05v-2.45h0" transform="translate(0 -0.66)" style="fill:#282727"/><path d="M413.16,206.41v2.45h0v-2.45h.06" transform="translate(0 -0.66)" style="fill:#2a2828"/><path d="M413.1,206.41v2.45H413v-2.45h.06" transform="translate(0 -0.66)" style="fill:#2b2929"/><path d="M413,206.42v2.45l-.1,0v-2.44l.1,0" transform="translate(0 -0.66)" style="fill:#2c2b2b"/><path d="M412.94,206.45v2.44l-.11.05V206.5l.11-.05" transform="translate(0 -0.66)" style="fill:#2d2c2c"/></g></g></g><g style="isolation:isolate"><g style="clip-path:url(#ai)"><g style="isolation:isolate"><polyline points="413.68 206.05 413.68 208.49 413.68 208.5 413.68 206.05 413.68 206.05" style="fill:#5c5c64"/><path d="M413.69,206.71v0" transform="translate(0 -0.66)" style="fill:#5f5f68"/><path d="M413.68,206.73v2.45a0,0,0,0,0,0,0v-2.45a0,0,0,0,0,0,0" transform="translate(0 -0.66)" style="fill:#63636b"/><path d="M413.67,206.76v2.45l0,0v-2.45a0,0,0,0,0,0,0" transform="translate(0 -0.66)" style="fill:#66666f"/><path d="M413.66,206.79v2.45l0,0v-2.45l0,0" transform="translate(0 -0.66)" style="fill:#696972"/><path d="M413.64,206.82v2.45l0,0v-2.45l0,0" transform="translate(0 -0.66)" style="fill:#6c6c76"/><path d="M413.61,206.85v2.45l-.06,0V206.9a.18.18,0,0,0,.07-.05" transform="translate(0 -0.66)" style="fill:#6f6f79"/><polyline points="413.54 206.25 413.54 208.69 413.53 208.7 413.54 206.25 413.54 206.25" style="fill:#72727d"/></g></g></g><polygon points="430.09 113.12 430.09 115.57 243.95 223.74 243.95 221.29 430.09 113.12" style="fill:#312f2f"/><g style="isolation:isolate"><g style="clip-path:url(#aj)"><g style="isolation:isolate"><polyline points="243.95 221.29 243.95 223.74 243.94 223.74 243.95 221.3 243.95 221.29" style="fill:#2d2c2c"/><path d="M244,222v2.45l-.07,0V222L244,222" transform="translate(0 -0.66)" style="fill:#2c2b2b"/><path d="M243.88,222v2.45l0,0V222l0,0" transform="translate(0 -0.66)" style="fill:#2b2929"/><path d="M243.85,222v2.44l0,0v-2.44l0,0" transform="translate(0 -0.66)" style="fill:#2a2828"/><path d="M243.83,222.07v2.44s0,0,0,0V222.1a0,0,0,0,1,0,0" transform="translate(0 -0.66)" style="fill:#282727"/><path d="M243.82,222.1v2.44s0,0,0,0V222.1" transform="translate(0 -0.66)" style="fill:#272626"/><path d="M243.81,222.12v0s0,0,0,0" transform="translate(0 -0.66)" style="fill:#262525"/><polyline points="243.8 221.5 243.8 223.94 243.8 223.95 243.8 221.5 243.8 221.5" style="fill:#252323"/></g></g></g><polygon points="430.8 113.53 430.8 115.98 244.66 224.15 244.66 221.7 430.8 113.53" style="fill:#7b7b85"/><path d="M430.8,113.77c.2.12.2.3,0,.42L244.66,222.36a.8.8,0,0,1-.71,0c-.2-.12-.19-.3,0-.41L430.1,113.78A.75.75,0,0,1,430.8,113.77Z" transform="translate(0 -0.66)" style="fill:#898995"/><g style="isolation:isolate"><g style="clip-path:url(#ak)"><g style="isolation:isolate"><path d="M244.66,222.36v2.44l-.11,0v-2.44l.11,0" transform="translate(0 -0.66)" style="fill:#72727d"/><path d="M244.55,222.41v2.44l-.1,0v-2.45l.09,0" transform="translate(0 -0.66)" style="fill:#6f6f79"/><path d="M244.46,222.43v2.45h-.06v-2.45h.07" transform="translate(0 -0.66)" style="fill:#6c6c76"/><path d="M244.39,222.44v2.45h-.06v-2.45h0" transform="translate(0 -0.66)" style="fill:#696972"/><path d="M244.34,222.44v2.45h-.05v-2.45h.05" transform="translate(0 -0.66)" style="fill:#66666f"/><path d="M244.29,222.44v2.45h-.05v-2.45h0" transform="translate(0 -0.66)" style="fill:#63636b"/><path d="M244.24,222.44v2.45h0v-2.44h.05" transform="translate(0 -0.66)" style="fill:#5f5f68"/><path d="M244.19,222.44v2.44h-.05v-2.44h.05" transform="translate(0 -0.66)" style="fill:#5c5c64"/><path d="M244.14,222.43v2.44h0v-2.44h0" transform="translate(0 -0.66)" style="fill:#595961"/><path d="M244.09,222.42v2.44l-.06,0v-2.45l.07,0" transform="translate(0 -0.66)" style="fill:#56565d"/><path d="M244,222.39v2.45l-.08,0a.23.23,0,0,1-.14-.2v-2.44c0,.07,0,.14.14.2l.07,0" transform="translate(0 -0.66)" style="fill:#53535a"/></g></g></g><polygon points="447.93 123.42 447.92 125.87 261.78 234.04 261.79 231.59 447.93 123.42" style="fill:#312f2f"/><g style="isolation:isolate"><g style="clip-path:url(#al)"><g style="isolation:isolate"><polyline points="261.79 231.59 261.78 234.04 261.78 234.04 261.79 231.6 261.79 231.59" style="fill:#2d2c2c"/><path d="M261.79,232.25v2.45a.15.15,0,0,0-.06.05V232.3l.07-.05" transform="translate(0 -0.66)" style="fill:#2c2b2b"/><path d="M261.72,232.3v2.45l0,0v-2.45l0,0" transform="translate(0 -0.66)" style="fill:#2b2929"/><path d="M261.69,232.33v2.45l0,0v-2.45l0,0" transform="translate(0 -0.66)" style="fill:#2a2828"/><path d="M261.67,232.36v0" transform="translate(0 -0.66)" style="fill:#282727"/><path d="M261.66,232.39v0a0,0,0,0,1,0,0" transform="translate(0 -0.66)" style="fill:#272626"/><path d="M261.65,232.42v0" transform="translate(0 -0.66)" style="fill:#262525"/><polyline points="261.64 231.79 261.64 234.24 261.64 234.25 261.64 231.8 261.64 231.79" style="fill:#252323"/></g></g></g><polygon points="448.65 123.83 448.64 126.28 262.5 234.45 262.51 232.01 448.65 123.83" style="fill:#7b7b85"/><g style="isolation:isolate"><g style="clip-path:url(#am)"><g style="isolation:isolate"><path d="M262.51,232.66v2.45l-.11,0v-2.45l.11-.05" transform="translate(0 -0.66)" style="fill:#72727d"/><path d="M262.4,232.71v2.45l-.09,0v-2.45l.1,0" transform="translate(0 -0.66)" style="fill:#6f6f79"/><path d="M262.3,232.73v2.45h-.07v-2.45h.06" transform="translate(0 -0.66)" style="fill:#6c6c76"/><path d="M262.24,232.74v2.45h-.05v-2.44h.06" transform="translate(0 -0.66)" style="fill:#696972"/><path d="M262.18,232.75v2.44h-.06v-2.44h.05" transform="translate(0 -0.66)" style="fill:#66666f"/><path d="M262.13,232.75v2.44h0v-2.45h.05" transform="translate(0 -0.66)" style="fill:#63636b"/><path d="M262.08,232.74v2.45H262v-2.44h.05" transform="translate(0 -0.66)" style="fill:#5f5f68"/><path d="M262,232.74v2.44h0v-2.45h0" transform="translate(0 -0.66)" style="fill:#5c5c64"/><path d="M262,232.73v2.45l-.06,0v-2.44H262" transform="translate(0 -0.66)" style="fill:#595961"/><path d="M261.93,232.72v2.44l-.06,0V232.7l.06,0" transform="translate(0 -0.66)" style="fill:#56565d"/><path d="M261.87,232.7v2.44l-.07,0a.27.27,0,0,1-.15-.21v-2.45a.25.25,0,0,0,.15.21l.07,0" transform="translate(0 -0.66)" style="fill:#53535a"/></g></g></g><polygon points="465.78 133.72 465.77 136.17 279.63 244.34 279.64 241.9 465.78 133.72" style="fill:#312f2f"/><g style="isolation:isolate"><g style="clip-path:url(#an)"><g style="isolation:isolate"><polyline points="279.64 241.9 279.63 244.34 279.62 244.35 279.63 241.9 279.64 241.9" style="fill:#2d2c2c"/><path d="M279.63,242.56V245l-.06.05V242.6l.06,0" transform="translate(0 -0.66)" style="fill:#2c2b2b"/><path d="M279.57,242.6v2.45l0,0v-2.44l0,0" transform="translate(0 -0.66)" style="fill:#2b2929"/><path d="M279.54,242.64v2.44s0,0,0,0v-2.44l0,0" transform="translate(0 -0.66)" style="fill:#2a2828"/><path d="M279.52,242.67v2.44a0,0,0,0,0,0,0V242.7l0,0" transform="translate(0 -0.66)" style="fill:#282727"/><path d="M279.5,242.7v2.44a0,0,0,0,0,0,0v-2.45a0,0,0,0,0,0,0" transform="translate(0 -0.66)" style="fill:#272626"/><path d="M279.49,242.72v2.45s0,0,0,0v-2.48" transform="translate(0 -0.66)" style="fill:#262525"/><polyline points="279.49 242.1 279.48 244.54 279.48 244.55 279.49 242.1 279.49 242.1" style="fill:#252323"/></g></g></g><polygon points="466.49 134.13 466.48 136.58 280.34 244.75 280.35 242.31 466.49 134.13" style="fill:#7b7b85"/><g style="isolation:isolate"><g style="clip-path:url(#ao)"><g style="isolation:isolate"><path d="M280.35,243v2.45l-.11.05V243l.11,0" transform="translate(0 -0.66)" style="fill:#72727d"/><path d="M280.24,243v2.45l-.1,0V243l.1,0" transform="translate(0 -0.66)" style="fill:#6f6f79"/><path d="M280.14,243v2.45h-.06V243h.06" transform="translate(0 -0.66)" style="fill:#6c6c76"/><path d="M280.08,243v2.45H280v-2.44h.06" transform="translate(0 -0.66)" style="fill:#696972"/><path d="M280,243.05v2.44H280v-2.44h0" transform="translate(0 -0.66)" style="fill:#66666f"/><path d="M280,243.05v2.44h0V243H280" transform="translate(0 -0.66)" style="fill:#63636b"/><path d="M279.92,243v2.45h-.05V243h.05" transform="translate(0 -0.66)" style="fill:#5f5f68"/><path d="M279.87,243v2.44h-.05V243h.05" transform="translate(0 -0.66)" style="fill:#5c5c64"/><path d="M279.82,243v2.45l-.05,0V243h.05" transform="translate(0 -0.66)" style="fill:#595961"/><path d="M279.77,243v2.44l-.06,0V243l.06,0" transform="translate(0 -0.66)" style="fill:#56565d"/><path d="M279.71,243v2.44l-.07,0a.24.24,0,0,1-.14-.21v-2.44a.27.27,0,0,0,.15.21l.07,0" transform="translate(0 -0.66)" style="fill:#53535a"/></g></g></g><path d="M466.49,134.38c.19.11.19.29,0,.41L280.35,243a.77.77,0,0,1-.71,0c-.2-.12-.2-.3,0-.42L465.78,134.38A.81.81,0,0,1,466.49,134.38Z" transform="translate(0 -0.66)" style="fill:#898995"/><polygon points="483.62 144.03 483.61 146.47 297.47 254.65 297.48 252.2 483.62 144.03" style="fill:#312f2f"/><g style="isolation:isolate"><g style="clip-path:url(#ap)"><g style="isolation:isolate"><polyline points="297.48 252.2 297.47 254.65 297.47 254.65 297.48 252.2 297.48 252.2" style="fill:#2d2c2c"/><path d="M297.48,252.86v2.44s-.05,0-.06,0v-2.44a.18.18,0,0,1,.07,0" transform="translate(0 -0.66)" style="fill:#2c2b2b"/><path d="M297.41,252.91v2.44l0,0v-2.45l0,0" transform="translate(0 -0.66)" style="fill:#2b2929"/><path d="M297.38,252.94v2.45l0,0V253l0,0" transform="translate(0 -0.66)" style="fill:#2a2828"/><path d="M297.36,253v0" transform="translate(0 -0.66)" style="fill:#282727"/><path d="M297.35,253v0a0,0,0,0,1,0,0" transform="translate(0 -0.66)" style="fill:#272626"/><path d="M297.34,253v0" transform="translate(0 -0.66)" style="fill:#262525"/><polyline points="297.33 252.4 297.33 254.84 297.33 254.85 297.33 252.4 297.33 252.4" style="fill:#252323"/></g></g></g><polygon points="484.33 144.44 484.32 146.88 298.18 255.06 298.19 252.61 484.33 144.44" style="fill:#7b7b85"/><g style="isolation:isolate"><g style="clip-path:url(#aq)"><g style="isolation:isolate"><path d="M298.19,253.26v2.45l-.12,0v-2.45l.11-.05" transform="translate(0 -0.66)" style="fill:#72727d"/><path d="M298.08,253.31v2.45l-.09,0v-2.44l.09,0" transform="translate(0 -0.66)" style="fill:#6f6f79"/><path d="M298,253.34v2.44h-.07v-2.44H298" transform="translate(0 -0.66)" style="fill:#6c6c76"/><path d="M297.92,253.35v2.44h-.05v-2.45h.06" transform="translate(0 -0.66)" style="fill:#696972"/><path d="M297.86,253.35v2.45h-.05v-2.45h.05" transform="translate(0 -0.66)" style="fill:#66666f"/><path d="M297.81,253.35v2.45h-.05v-2.44h.05" transform="translate(0 -0.66)" style="fill:#63636b"/><path d="M297.76,253.35v2.44h-.05v-2.45h.05" transform="translate(0 -0.66)" style="fill:#5f5f68"/><path d="M297.71,253.34v2.45h0v-2.45h0" transform="translate(0 -0.66)" style="fill:#5c5c64"/><path d="M297.67,253.33v2.45h-.05v-2.45h.06" transform="translate(0 -0.66)" style="fill:#595961"/><path d="M297.61,253.32v2.45l-.06,0V253.3l.05,0" transform="translate(0 -0.66)" style="fill:#56565d"/><path d="M297.56,253.3v2.45l-.07,0a.24.24,0,0,1-.15-.2v-2.45a.25.25,0,0,0,.15.21l.07,0" transform="translate(0 -0.66)" style="fill:#53535a"/></g></g></g><path d="M484.34,144.68a.22.22,0,0,1,0,.41L298.19,253.26a.75.75,0,0,1-.7,0c-.2-.12-.2-.3,0-.41L483.62,144.68A.83.83,0,0,1,484.34,144.68Z" transform="translate(0 -0.66)" style="fill:#898995"/><polygon points="412.83 205.84 412.82 208.29 315.32 264.95 315.33 262.5 412.83 205.84" style="fill:#312f2f"/><g style="isolation:isolate"><g style="clip-path:url(#ar)"><g style="isolation:isolate"><polyline points="315.33 262.5 315.32 264.95 315.31 264.95 315.32 262.51 315.33 262.5" style="fill:#2d2c2c"/><path d="M315.32,263.16v2.45a.18.18,0,0,0-.07.05v-2.45l.06,0" transform="translate(0 -0.66)" style="fill:#2c2b2b"/><path d="M315.26,263.21v2.45l0,0v-2.45l0,0" transform="translate(0 -0.66)" style="fill:#2b2929"/><path d="M315.23,263.24v2.45s0,0,0,0v-2.45l0,0" transform="translate(0 -0.66)" style="fill:#2a2828"/><path d="M315.21,263.27v2.45a0,0,0,0,0,0,0V263.3l0,0" transform="translate(0 -0.66)" style="fill:#282727"/><path d="M315.19,263.3v2.45a0,0,0,0,0,0,0v-2.45a0,0,0,0,0,0,0" transform="translate(0 -0.66)" style="fill:#272626"/><path d="M315.18,263.33v2.45s0,0,0,0v-2.48" transform="translate(0 -0.66)" style="fill:#262525"/><polyline points="315.18 262.7 315.17 265.15 315.17 265.15 315.18 262.71 315.18 262.7" style="fill:#252323"/></g></g></g><polygon points="413.54 206.25 413.53 208.7 316.03 265.36 316.04 262.91 413.54 206.25" style="fill:#7b7b85"/><g style="isolation:isolate"><g style="clip-path:url(#as)"><g style="isolation:isolate"><path d="M316,263.57V266l-.11.05v-2.44l.11-.05" transform="translate(0 -0.66)" style="fill:#72727d"/><path d="M315.93,263.62v2.44l-.1,0v-2.45l.1,0" transform="translate(0 -0.66)" style="fill:#6f6f79"/><path d="M315.83,263.64v2.45h-.06v-2.44h.06" transform="translate(0 -0.66)" style="fill:#6c6c76"/><path d="M315.77,263.65v2.44h-.06v-2.45h.06" transform="translate(0 -0.66)" style="fill:#696972"/><path d="M315.71,263.65v2.45h-.05v-2.45h0" transform="translate(0 -0.66)" style="fill:#66666f"/><path d="M315.66,263.65v2.45h0v-2.45h.05" transform="translate(0 -0.66)" style="fill:#63636b"/><path d="M315.61,263.65v2.45h0v-2.45h.05" transform="translate(0 -0.66)" style="fill:#5f5f68"/><path d="M315.56,263.64v2.45h-.05v-2.44h.05" transform="translate(0 -0.66)" style="fill:#5c5c64"/><path d="M315.51,263.64v2.44h-.06v-2.45l.05,0" transform="translate(0 -0.66)" style="fill:#595961"/><path d="M315.46,263.62v2.45l-.06,0V263.6l.06,0" transform="translate(0 -0.66)" style="fill:#56565d"/><path d="M315.4,263.6v2.45l-.07,0a.24.24,0,0,1-.15-.2v-2.45a.25.25,0,0,0,.15.21l.07,0" transform="translate(0 -0.66)" style="fill:#53535a"/></g></g></g><path d="M635.36,180.94c4.91,2.84,4.94,7.47.06,10.31l-257,149.38c-4.87,2.83-12.88,2.83-17.79,0L3.7,134.58c-4.9-2.83-4.93-7.46-.06-10.3L216.38.66,261,26.41c4.9,2.83,12.91,2.83,17.78,0L323.09.66ZM262.51,232.66,448.65,124.49a.22.22,0,0,0,0-.41.76.76,0,0,0-.72,0L261.79,232.25a.22.22,0,0,0,0,.41.75.75,0,0,0,.71,0m35.68,20.6L484.33,145.09a.22.22,0,0,0,0-.41.83.83,0,0,0-.72,0L297.48,252.85c-.19.12-.19.3,0,.42a.75.75,0,0,0,.7,0M173.28,181.15,359.42,73c.2-.12.2-.3,0-.41a.77.77,0,0,0-.72,0L172.57,180.74a.22.22,0,0,0,0,.41.75.75,0,0,0,.7,0m-17.84-10.3L341.58,62.68c.2-.12.2-.3,0-.42a.77.77,0,0,0-.71,0L154.73,170.44c-.19.11-.2.29,0,.41a.8.8,0,0,0,.71,0m89.22,51.51L430.8,114.19c.2-.12.2-.3,0-.42a.77.77,0,0,0-.71,0L244,222c-.19.11-.2.29,0,.41a.8.8,0,0,0,.71,0M280.35,243,466.49,134.79c.19-.12.19-.3,0-.41a.75.75,0,0,0-.71,0L279.64,242.55c-.2.12-.2.3,0,.41a.75.75,0,0,0,.71,0M137.6,160.55,323.74,52.37a.22.22,0,0,0,0-.41.8.8,0,0,0-.71,0L136.89,160.14a.22.22,0,0,0,0,.41.8.8,0,0,0,.71,0m53.53,30.9L377.27,83.28c.19-.12.19-.3,0-.41a.75.75,0,0,0-.71,0L190.42,191c-.2.12-.2.3,0,.41a.77.77,0,0,0,.71,0M316,263.57l97.5-56.66a.23.23,0,0,0,0-.42.77.77,0,0,0-.71,0l-97.5,56.66a.22.22,0,0,0,0,.41.83.83,0,0,0,.72,0M209,201.75l97.5-56.66a.22.22,0,0,0,0-.41.83.83,0,0,0-.72,0l-97.5,56.66c-.19.12-.19.3,0,.42a.75.75,0,0,0,.7,0" transform="translate(0 -0.66)" style="fill:#363535"/><path d="M323.09.66,278.77,26.41c-4.87,2.83-12.87,2.83-17.78,0L216.38.66Z" transform="translate(0 -0.66)" style="fill:#272626"/><path d="M359.43,72.57c.2.11.19.29,0,.4L173.28,181.15a.75.75,0,0,1-.7,0,.22.22,0,0,1,0-.41L358.71,72.57A.76.76,0,0,1,359.43,72.57Z" transform="translate(0 -0.66)" style="fill:#898995"/><g style="isolation:isolate"><g style="clip-path:url(#at)"><g style="isolation:isolate"><path d="M639.06,186.13v0" transform="translate(0 -0.66)" style="fill:#252323"/><path d="M639.06,186.25v2.44a3.63,3.63,0,0,1-.08.73V187a4.41,4.41,0,0,0,.08-.72" transform="translate(0 -0.66)" style="fill:#262525"/><path d="M639,187v2.45a6.29,6.29,0,0,1-.2.71v-2.45A4.44,4.44,0,0,0,639,187" transform="translate(0 -0.66)" style="fill:#272626"/><path d="M638.77,187.68v2.45a7.79,7.79,0,0,1-.34.72V188.4a5.76,5.76,0,0,0,.33-.72" transform="translate(0 -0.66)" style="fill:#282727"/><path d="M638.44,188.4v2.45a5.53,5.53,0,0,1-.51.75v-2.45a7.09,7.09,0,0,0,.51-.75" transform="translate(0 -0.66)" style="fill:#2a2828"/><path d="M637.93,189.15v2.45a7.36,7.36,0,0,1-.77.83V190a6.07,6.07,0,0,0,.78-.84" transform="translate(0 -0.66)" style="fill:#2b2929"/><path d="M637.15,190v2.44a9.39,9.39,0,0,1-1.58,1.17v-2.44a9.67,9.67,0,0,0,1.58-1.17" transform="translate(0 -0.66)" style="fill:#2c2b2b"/><path d="M635.57,191.16v2.44l-.15.09v-2.44l.15-.09" transform="translate(0 -0.66)" style="fill:#2d2c2c"/></g></g></g><path d="M448.65,124.08a.22.22,0,0,1,0,.41L262.51,232.66a.75.75,0,0,1-.71,0,.22.22,0,0,1,0-.41L447.93,124.08A.77.77,0,0,1,448.65,124.08Z" transform="translate(0 -0.66)" style="fill:#898995"/><path d="M413.54,206.49c.19.12.2.3,0,.42L316,263.57a.8.8,0,0,1-.71,0,.22.22,0,0,1,0-.41l97.5-56.66A.77.77,0,0,1,413.54,206.49Z" transform="translate(0 -0.66)" style="fill:#898995"/><polygon points="635.42 190.59 635.41 193.04 378.36 342.42 378.37 339.98 635.42 190.59" style="fill:#312f2f"/><polygon points="360.58 339.97 360.57 342.42 3.69 136.37 3.7 133.93 360.58 339.97" style="fill:#222121"/><g style="isolation:isolate"><g style="clip-path:url(#au)"><g style="isolation:isolate"><path d="M378.37,340.63v2.45a14.37,14.37,0,0,1-2.73,1.2v-2.45a14.37,14.37,0,0,0,2.73-1.2" transform="translate(0 -0.66)" style="fill:#2d2c2c"/><path d="M375.64,341.83v2.45a19.71,19.71,0,0,1-2.38.59v-2.45a18.39,18.39,0,0,0,2.38-.59" transform="translate(0 -0.66)" style="fill:#2c2b2b"/><path d="M373.26,342.42v2.45c-.53.09-1.07.17-1.61.22v-2.44c.54-.06,1.08-.13,1.61-.23" transform="translate(0 -0.66)" style="fill:#2b2929"/><path d="M371.65,342.65v2.44c-.47.05-.93.08-1.4.1v-2.45q.7,0,1.41-.09" transform="translate(0 -0.66)" style="fill:#2a2828"/><path d="M370.24,342.74v2.45h-1.3v-2.44c.44,0,.87,0,1.3,0" transform="translate(0 -0.66)" style="fill:#282727"/><path d="M368.94,342.75v2.44c-.42,0-.84,0-1.25-.07v-2.44c.41,0,.83.06,1.24.07" transform="translate(0 -0.66)" style="fill:#272626"/><path d="M367.7,342.68v2.44c-.41,0-.82-.07-1.23-.13v-2.45c.4.06.81.11,1.23.14" transform="translate(0 -0.66)" style="fill:#262525"/><path d="M366.47,342.54V345c-.42-.06-.84-.13-1.25-.22v-2.45c.42.09.83.16,1.26.22" transform="translate(0 -0.66)" style="fill:#252323"/><path d="M365.21,342.32v2.45c-.45-.09-.89-.2-1.32-.32V342c.43.12.87.23,1.31.32" transform="translate(0 -0.66)" style="fill:#232222"/><path d="M363.9,342v2.45a15.1,15.1,0,0,1-1.52-.52v-2.44c.49.19,1,.36,1.52.51" transform="translate(0 -0.66)" style="fill:#222121"/><path d="M362.38,341.49v2.44a13.55,13.55,0,0,1-1.8-.86v-2.44a13.6,13.6,0,0,0,1.8.86" transform="translate(0 -0.66)" style="fill:#212020"/></g></g></g></g></svg>