<svg xmlns="http://www.w3.org/2000/svg" xmlns:xlink="http://www.w3.org/1999/xlink" viewBox="0 0 639.07 344.55"><defs><clipPath id="a" transform="translate(0.04 -0.17)"><path d="M278.75,25.93v2.44c-4.88,2.84-12.88,2.83-17.79,0V25.92C265.87,28.76,273.87,28.76,278.75,25.93Z" style="fill:none"/></clipPath><clipPath id="b" transform="translate(0.04 -0.17)"><path d="M323.86,51.68v2.44c0-.07-.05-.14-.15-.2a.8.8,0,0,0-.71,0V51.48a.75.75,0,0,1,.71,0A.24.24,0,0,1,323.86,51.68Z" style="fill:none"/></clipPath><clipPath id="c" transform="translate(0.04 -0.17)"><path d="M323.86,51.68v2.44a.25.25,0,0,1-.15.21V51.89A.27.27,0,0,0,323.86,51.68Z" style="fill:none"/></clipPath><clipPath id="d" transform="translate(0.04 -0.17)"><path d="M341.7,62v2.45a.26.26,0,0,0-.14-.21.8.8,0,0,0-.71,0V61.78a.75.75,0,0,1,.71,0A.24.24,0,0,1,341.7,62Z" style="fill:none"/></clipPath><clipPath id="e" transform="translate(0.04 -0.17)"><path d="M341.7,62v2.45a.25.25,0,0,1-.14.2V62.19A.25.25,0,0,0,341.7,62Z" style="fill:none"/></clipPath><clipPath id="f" transform="translate(0.04 -0.17)"><path d="M359.54,72.29v2.44a.27.27,0,0,0-.15-.21.77.77,0,0,0-.71,0V72.08a.78.78,0,0,1,.7,0A.25.25,0,0,1,359.54,72.29Z" style="fill:none"/></clipPath><clipPath id="g" transform="translate(0.04 -0.17)"><path d="M359.54,72.29v2.44a.25.25,0,0,1-.15.21V72.49A.26.26,0,0,0,359.54,72.29Z" style="fill:none"/></clipPath><clipPath id="h" transform="translate(0.04 -0.17)"><path d="M377.39,82.59V85a.24.24,0,0,0-.15-.2.78.78,0,0,0-.7,0V82.38a.8.8,0,0,1,.71,0A.25.25,0,0,1,377.39,82.59Z" style="fill:none"/></clipPath><clipPath id="i" transform="translate(0.04 -0.17)"><path d="M377.39,82.59V85a.26.26,0,0,1-.14.21V82.79A.24.24,0,0,0,377.39,82.59Z" style="fill:none"/></clipPath><clipPath id="j" transform="translate(0.04 -0.17)"><path d="M430.92,113.49v2.45a.23.23,0,0,0-.14-.2.75.75,0,0,0-.71,0v-2.45a.8.8,0,0,1,.71,0A.24.24,0,0,1,430.92,113.49Z" style="fill:none"/></clipPath><clipPath id="k" transform="translate(0.04 -0.17)"><path d="M430.92,113.49v2.45a.24.24,0,0,1-.15.2V113.7A.25.25,0,0,0,430.92,113.49Z" style="fill:none"/></clipPath><clipPath id="l" transform="translate(0.04 -0.17)"><path d="M448.76,123.8v2.44a.24.24,0,0,0-.15-.2.75.75,0,0,0-.71,0v-2.45a.8.8,0,0,1,.71,0A.24.24,0,0,1,448.76,123.8Z" style="fill:none"/></clipPath><clipPath id="m" transform="translate(0.04 -0.17)"><path d="M448.76,123.8v2.44a.25.25,0,0,1-.15.21V124A.26.26,0,0,0,448.76,123.8Z" style="fill:none"/></clipPath><clipPath id="n" transform="translate(0.04 -0.17)"><path d="M466.45,136.34a.8.8,0,0,0-.71,0V133.9a.77.77,0,0,1,.71,0h0c0,.82,0,1.63,0,2.45Z" style="fill:none"/></clipPath><clipPath id="o" transform="translate(0.04 -0.17)"><path d="M466.6,136.55a.25.25,0,0,0-.15-.21c0-.82,0-1.63,0-2.45a.25.25,0,0,1,.15.21C466.61,134.83,466.6,135.81,466.6,136.55Z" style="fill:none"/></clipPath><clipPath id="p" transform="translate(0.04 -0.17)"><path d="M466.61,134.1v2.44a.25.25,0,0,1-.15.21V134.3A.24.24,0,0,0,466.61,134.1Z" style="fill:none"/></clipPath><clipPath id="q" transform="translate(0.04 -0.17)"><path d="M0,131.36v-2.45c0,1.88,1.23,3.77,3.7,5.19v2.45C1.19,135.12,0,133.24,0,131.36Z" style="fill:none"/></clipPath><clipPath id="r" transform="translate(0.04 -0.17)"><path d="M484.45,144.4v2.45a.25.25,0,0,0-.15-.21.81.81,0,0,0-.71,0V144.2a.75.75,0,0,1,.7,0A.27.27,0,0,1,484.45,144.4Z" style="fill:none"/></clipPath><clipPath id="s" transform="translate(0.04 -0.17)"><path d="M484.45,144.4v2.45a.24.24,0,0,1-.15.2v-2.44A.26.26,0,0,0,484.45,144.4Z" style="fill:none"/></clipPath><clipPath id="t" transform="translate(0.04 -0.17)"><path d="M306.59,144.41v2.44a.27.27,0,0,0-.15-.21.78.78,0,0,0-.7,0V144.2a.73.73,0,0,1,.7,0A.25.25,0,0,1,306.59,144.41Z" style="fill:none"/></clipPath><clipPath id="u" transform="translate(0.04 -0.17)"><path d="M306.59,144.41v2.44a.22.22,0,0,1-.14.2v-2.44A.26.26,0,0,0,306.59,144.41Z" style="fill:none"/></clipPath><clipPath id="v" transform="translate(0.04 -0.17)"><path d="M136.7,162.3v-2.45a.26.26,0,0,1,.14-.2v2.45A.23.23,0,0,0,136.7,162.3Z" style="fill:none"/></clipPath><clipPath id="w" transform="translate(0.04 -0.17)"><path d="M136.7,162.3v-2.45a.25.25,0,0,0,.15.21.75.75,0,0,0,.7,0v2.45a.78.78,0,0,1-.7,0A.27.27,0,0,1,136.7,162.3Z" style="fill:none"/></clipPath><clipPath id="x" transform="translate(0.04 -0.17)"><path d="M154.55,172.6v-2.44a.25.25,0,0,1,.15-.21v2.45A.26.26,0,0,0,154.55,172.6Z" style="fill:none"/></clipPath><clipPath id="y" transform="translate(0.04 -0.17)"><path d="M154.55,172.6v-2.44a.24.24,0,0,0,.15.2.73.73,0,0,0,.7,0v2.45a.78.78,0,0,1-.7,0A.25.25,0,0,1,154.55,172.6Z" style="fill:none"/></clipPath><clipPath id="z" transform="translate(0.04 -0.17)"><path d="M172.39,182.91v-2.45a.25.25,0,0,1,.14-.2v2.44A.25.25,0,0,0,172.39,182.91Z" style="fill:none"/></clipPath><clipPath id="aa" transform="translate(0.04 -0.17)"><path d="M172.39,182.9v-2.44a.25.25,0,0,0,.14.2.77.77,0,0,0,.71,0v2.44a.78.78,0,0,1-.7,0A.25.25,0,0,1,172.39,182.9Z" style="fill:none"/></clipPath><clipPath id="ab" transform="translate(0.04 -0.17)"><path d="M190.24,193.21v-2.45c0-.07,0-.14.15-.2V193A.23.23,0,0,0,190.24,193.21Z" style="fill:none"/></clipPath><clipPath id="ac" transform="translate(0.04 -0.17)"><path d="M190.24,193.21v-2.45a.24.24,0,0,0,.14.21.8.8,0,0,0,.71,0v2.45a.77.77,0,0,1-.71,0A.25.25,0,0,1,190.24,193.21Z" style="fill:none"/></clipPath><clipPath id="ad" transform="translate(0.04 -0.17)"><path d="M208.08,203.51v-2.44a.26.26,0,0,1,.14-.21v2.45A.25.25,0,0,0,208.08,203.51Z" style="fill:none"/></clipPath><clipPath id="ae" transform="translate(0.04 -0.17)"><path d="M208.08,203.51v-2.44a.26.26,0,0,0,.14.2.8.8,0,0,0,.71,0v2.45a.75.75,0,0,1-.7,0A.24.24,0,0,1,208.08,203.51Z" style="fill:none"/></clipPath><clipPath id="af" transform="translate(0.04 -0.17)"><path d="M413.5,208.46a.77.77,0,0,0-.71,0V206a.75.75,0,0,1,.7,0h0v2.45Z" style="fill:none"/></clipPath><clipPath id="ag" transform="translate(0.04 -0.17)"><path d="M413.65,208.67a.25.25,0,0,0-.15-.21V206a.28.28,0,0,1,.16.21C413.65,207,413.65,207.93,413.65,208.67Z" style="fill:none"/></clipPath><clipPath id="ah" transform="translate(0.04 -0.17)"><path d="M413.66,206.22v2.45a.26.26,0,0,1-.14.2v-2.45A.24.24,0,0,0,413.66,206.22Z" style="fill:none"/></clipPath><clipPath id="ai" transform="translate(0.04 -0.17)"><path d="M243.77,224.11v-2.44a.23.23,0,0,1,.15-.2v2.44A.24.24,0,0,0,243.77,224.11Z" style="fill:none"/></clipPath><clipPath id="aj" transform="translate(0.04 -0.17)"><path d="M243.77,224.11v-2.44a.27.27,0,0,0,.15.21.78.78,0,0,0,.7,0v2.44a.78.78,0,0,1-.7,0A.25.25,0,0,1,243.77,224.11Z" style="fill:none"/></clipPath><clipPath id="ak" transform="translate(0.04 -0.17)"><path d="M261.61,234.41V232a.25.25,0,0,1,.14-.2v2.44A.26.26,0,0,0,261.61,234.41Z" style="fill:none"/></clipPath><clipPath id="al" transform="translate(0.04 -0.17)"><path d="M261.61,234.41V232a.27.27,0,0,0,.15.21.78.78,0,0,0,.7,0v2.44a.78.78,0,0,1-.7,0A.24.24,0,0,1,261.61,234.41Z" style="fill:none"/></clipPath><clipPath id="am" transform="translate(0.04 -0.17)"><path d="M279.46,244.72v-2.45c0-.07.05-.14.15-.2v2.45A.23.23,0,0,0,279.46,244.72Z" style="fill:none"/></clipPath><clipPath id="an" transform="translate(0.04 -0.17)"><path d="M279.46,244.72v-2.45a.25.25,0,0,0,.15.21.81.81,0,0,0,.71,0v2.45a.77.77,0,0,1-.71,0A.25.25,0,0,1,279.46,244.72Z" style="fill:none"/></clipPath><clipPath id="ao" transform="translate(0.04 -0.17)"><path d="M297.3,255v-2.44a.26.26,0,0,1,.14-.21v2.45A.26.26,0,0,0,297.3,255Z" style="fill:none"/></clipPath><clipPath id="ap" transform="translate(0.04 -0.17)"><path d="M297.3,255v-2.44a.26.26,0,0,0,.14.2.8.8,0,0,0,.71,0v2.45a.78.78,0,0,1-.7,0A.25.25,0,0,1,297.3,255Z" style="fill:none"/></clipPath><clipPath id="aq" transform="translate(0.04 -0.17)"><path d="M315.14,265.32v-2.45a.26.26,0,0,1,.14-.2v2.45A.25.25,0,0,0,315.14,265.32Z" style="fill:none"/></clipPath><clipPath id="ar" transform="translate(0.04 -0.17)"><path d="M315.14,265.32v-2.45a.24.24,0,0,0,.15.21.77.77,0,0,0,.71,0v2.44a.8.8,0,0,1-.71,0A.27.27,0,0,1,315.14,265.32Z" style="fill:none"/></clipPath><clipPath id="as" transform="translate(0.04 -0.17)"><path d="M639,185.64v2.45c0,1.85-1.22,3.71-3.64,5.11v-2.44C637.81,189.35,639,187.5,639,185.64Z" style="fill:none"/></clipPath><clipPath id="at" transform="translate(0.04 -0.17)"><path d="M378.33,340.14v2.45c-4.88,2.83-12.88,2.84-17.79,0v-2.44C365.46,343,373.46,343,378.33,340.14Z" style="fill:none"/></clipPath></defs><g style="isolation:isolate"><polygon points="323.1 0 323.1 2.45 278.77 28.2 278.78 25.76 323.1 0" style="fill:#767575"/><polygon points="261 25.75 260.99 28.2 216.38 2.44 216.39 0 261 25.75" style="fill:#525252"/><g style="isolation:isolate"><g style="clip-path:url(#a)"><g style="isolation:isolate"><path d="M278.75,25.93v2.44a13.06,13.06,0,0,1-2.74,1.2V27.13a14.46,14.46,0,0,0,2.74-1.2" transform="translate(0.04 -0.17)" style="fill:#6e6d6d"/><path d="M276,27.13v2.44a18,18,0,0,1-2.38.6V27.72a18,18,0,0,0,2.38-.59" transform="translate(0.04 -0.17)" style="fill:#6b6a6a"/><path d="M273.63,27.72v2.45c-.52.09-1.06.17-1.6.22V27.94c.55-.05,1.08-.12,1.61-.22" transform="translate(0.04 -0.17)" style="fill:#686767"/><path d="M272,27.94v2.45q-.7.08-1.41.09V28c.47,0,.94-.05,1.4-.1" transform="translate(0.04 -0.17)" style="fill:#656464"/><path d="M270.62,28v2.44c-.43,0-.86,0-1.29,0V28c.44,0,.87,0,1.3,0" transform="translate(0.04 -0.17)" style="fill:#626161"/><path d="M269.32,28v2.45c-.42,0-.84,0-1.25-.07V28c.41,0,.83.05,1.24.06" transform="translate(0.04 -0.17)" style="fill:#5f5e5e"/><path d="M268.08,28v2.44c-.41,0-.82-.08-1.23-.13V27.84c.4.06.81.1,1.23.14" transform="translate(0.04 -0.17)" style="fill:#5c5b5b"/><path d="M266.85,27.84v2.45c-.42-.06-.84-.14-1.25-.22V27.62c.41.09.83.16,1.25.22" transform="translate(0.04 -0.17)" style="fill:#595858"/><path d="M265.6,27.62v2.45c-.45-.09-.88-.2-1.31-.32V27.3c.43.12.87.23,1.32.32" transform="translate(0.04 -0.17)" style="fill:#565555"/><path d="M264.28,27.3v2.45a14.47,14.47,0,0,1-1.53-.52V26.79c.49.19,1,.36,1.52.51" transform="translate(0.04 -0.17)" style="fill:#535252"/><path d="M262.76,26.79v2.44a14.23,14.23,0,0,1-1.8-.86V25.92a13,13,0,0,0,1.8.87" transform="translate(0.04 -0.17)" style="fill:#504f4f"/></g></g></g><path d="M323.07.17,278.75,25.93c-4.88,2.83-12.88,2.83-17.79,0L216.35.17Z" transform="translate(0.04 -0.17)" style="fill:#848383"/><g style="isolation:isolate"><g style="clip-path:url(#b)"><g style="isolation:isolate"><path d="M323.86,51.68v2.44c0-.07-.05-.14-.15-.2l-.07,0V51.44l.07,0a.24.24,0,0,1,.15.2" transform="translate(0.04 -0.17)" style="fill:#6e6c6c"/><path d="M323.64,51.44v2.45l-.06,0V51.42l.06,0" transform="translate(0.04 -0.17)" style="fill:#727070"/><path d="M323.58,51.42v2.45l-.05,0V51.41h.06" transform="translate(0.04 -0.17)" style="fill:#767474"/><path d="M323.52,51.41v2.44h0V51.4h0" transform="translate(0.04 -0.17)" style="fill:#7a7878"/><path d="M323.47,51.4v2.44h-.05V51.39h.05" transform="translate(0.04 -0.17)" style="fill:#7f7c7c"/><path d="M323.42,51.39v2.45h-.05V51.39h0" transform="translate(0.04 -0.17)" style="fill:#838080"/><path d="M323.38,51.39v2.45h-.05V51.39h.06" transform="translate(0.04 -0.17)" style="fill:#878484"/><path d="M323.32,51.39v2.45h-.06V51.39h.05" transform="translate(0.04 -0.17)" style="fill:#8b8989"/><path d="M323.27,51.39v2.45h-.06V51.4h.07" transform="translate(0.04 -0.17)" style="fill:#8f8d8d"/><path d="M323.2,51.4v2.45l-.1,0V51.43l.09,0" transform="translate(0.04 -0.17)" style="fill:#949191"/><path d="M323.11,51.43v2.44l-.11.05V51.48l.11,0" transform="translate(0.04 -0.17)" style="fill:#989595"/></g></g></g><g style="isolation:isolate"><g style="clip-path:url(#c)"><g style="isolation:isolate"><polyline points="323.89 51.51 323.89 53.96 323.89 53.96 323.89 51.52 323.89 51.51" style="fill:#5c5c64"/><path d="M323.86,51.68v0a0,0,0,0,0,0,0" transform="translate(0.04 -0.17)" style="fill:#5f5f68"/><path d="M323.85,51.71v0" transform="translate(0.04 -0.17)" style="fill:#63636b"/><path d="M323.85,51.74v0l0,0" transform="translate(0.04 -0.17)" style="fill:#66666f"/><path d="M323.83,51.77v2.44l0,0V51.8l0,0" transform="translate(0.04 -0.17)" style="fill:#696972"/><path d="M323.81,51.8v2.44a.05.05,0,0,1,0,0V51.83l0,0" transform="translate(0.04 -0.17)" style="fill:#6c6c76"/><path d="M323.78,51.83v2.45l-.06,0V51.88a.18.18,0,0,0,.07-.05" transform="translate(0.04 -0.17)" style="fill:#6f6f79"/><polyline points="323.75 51.71 323.74 54.16 323.74 54.16 323.74 51.72 323.75 51.71" style="fill:#72727d"/></g></g></g><g style="isolation:isolate"><g style="clip-path:url(#d)"><g style="isolation:isolate"><path d="M341.7,62v2.45a.26.26,0,0,0-.14-.21l-.07,0V61.74l.07,0a.24.24,0,0,1,.15.2" transform="translate(0.04 -0.17)" style="fill:#6e6c6c"/><path d="M341.48,61.74v2.45l-.07,0V61.72l.06,0" transform="translate(0.04 -0.17)" style="fill:#727070"/><path d="M341.42,61.72v2.45h-.05V61.71h.05" transform="translate(0.04 -0.17)" style="fill:#767474"/><path d="M341.37,61.71v2.45h-.05V61.7h.05" transform="translate(0.04 -0.17)" style="fill:#7a7878"/><path d="M341.32,61.7v2.45h-.05V61.7h.05" transform="translate(0.04 -0.17)" style="fill:#7f7c7c"/><path d="M341.27,61.7v2.44h-.05V61.69h0" transform="translate(0.04 -0.17)" style="fill:#838080"/><path d="M341.22,61.69v2.45h0V61.69h.05" transform="translate(0.04 -0.17)" style="fill:#878484"/><path d="M341.17,61.69v2.45h-.05V61.7h.06" transform="translate(0.04 -0.17)" style="fill:#8b8989"/><path d="M341.11,61.7v2.44H341V61.71h.06" transform="translate(0.04 -0.17)" style="fill:#8f8d8d"/><path d="M341.05,61.71v2.44l-.09,0V61.73l.1,0" transform="translate(0.04 -0.17)" style="fill:#949191"/><path d="M341,61.73v2.45l-.11,0V61.78l.11-.05" transform="translate(0.04 -0.17)" style="fill:#989595"/></g></g></g><g style="isolation:isolate"><g style="clip-path:url(#e)"><g style="isolation:isolate"><polyline points="341.74 61.81 341.73 64.26 341.73 64.26 341.74 61.82 341.74 61.81" style="fill:#5c5c64"/><path d="M341.7,62v0" transform="translate(0.04 -0.17)" style="fill:#5f5f68"/><path d="M341.7,62v2.45s0,0,0,0V62a0,0,0,0,1,0,0" transform="translate(0.04 -0.17)" style="fill:#63636b"/><path d="M341.69,62v2.45s0,0,0,0V62.07l0,0" transform="translate(0.04 -0.17)" style="fill:#66666f"/><path d="M341.67,62.07v2.45l0,0V62.1l0,0" transform="translate(0.04 -0.17)" style="fill:#696972"/><path d="M341.65,62.1v2.45l0,0V62.14l0,0" transform="translate(0.04 -0.17)" style="fill:#6c6c76"/><path d="M341.62,62.14v2.44l-.07,0V62.18l.06,0" transform="translate(0.04 -0.17)" style="fill:#6f6f79"/><polyline points="341.59 62.02 341.59 64.46 341.58 64.47 341.59 62.02 341.59 62.02" style="fill:#72727d"/></g></g></g><g style="isolation:isolate"><g style="clip-path:url(#f)"><g style="isolation:isolate"><path d="M359.54,72.29v2.44a.27.27,0,0,0-.15-.21l-.07,0V72l.07,0a.25.25,0,0,1,.15.21" transform="translate(0.04 -0.17)" style="fill:#6e6c6c"/><path d="M359.32,72v2.45l-.06,0V72h.05" transform="translate(0.04 -0.17)" style="fill:#727070"/><path d="M359.27,72v2.44h-.05V72l.06,0" transform="translate(0.04 -0.17)" style="fill:#767474"/><path d="M359.21,72v2.45h0V72h0" transform="translate(0.04 -0.17)" style="fill:#7a7878"/><path d="M359.17,72v2.45h-.05V72h.05" transform="translate(0.04 -0.17)" style="fill:#7f7c7c"/><path d="M359.12,72v2.44h-.05V72h.05" transform="translate(0.04 -0.17)" style="fill:#838080"/><path d="M359.07,72v2.44H359V72h.05" transform="translate(0.04 -0.17)" style="fill:#878484"/><path d="M359,72v2.44H359V72H359" transform="translate(0.04 -0.17)" style="fill:#8b8989"/><path d="M359,72v2.45h-.06V72H359" transform="translate(0.04 -0.17)" style="fill:#8f8d8d"/><path d="M358.9,72v2.44l-.1,0V72l.1,0" transform="translate(0.04 -0.17)" style="fill:#949191"/><path d="M358.8,72v2.45l-.11,0V72.08l.11,0" transform="translate(0.04 -0.17)" style="fill:#989595"/></g></g></g><g style="isolation:isolate"><g style="clip-path:url(#g)"><g style="isolation:isolate"><polyline points="359.58 72.12 359.57 74.56 359.57 74.57 359.58 72.12 359.58 72.12" style="fill:#5c5c64"/><path d="M359.54,72.29v2.45s0,0,0,0V72.29" transform="translate(0.04 -0.17)" style="fill:#5f5f68"/><path d="M359.54,72.32v0a0,0,0,0,0,0,0" transform="translate(0.04 -0.17)" style="fill:#63636b"/><path d="M359.53,72.35v2.44l0,0V72.38s0,0,0,0" transform="translate(0.04 -0.17)" style="fill:#66666f"/><path d="M359.52,72.38v2.44s0,0,0,0V72.41l0,0" transform="translate(0.04 -0.17)" style="fill:#696972"/><path d="M359.5,72.41v2.44l0,0V72.44l0,0" transform="translate(0.04 -0.17)" style="fill:#6c6c76"/><path d="M359.47,72.44v2.45l-.06,0V72.49l.07,0" transform="translate(0.04 -0.17)" style="fill:#6f6f79"/><polyline points="359.44 72.32 359.43 74.77 359.43 74.77 359.43 72.32 359.44 72.32" style="fill:#72727d"/></g></g></g><g style="isolation:isolate"><g style="clip-path:url(#h)"><g style="isolation:isolate"><path d="M377.39,82.59V85a.24.24,0,0,0-.15-.2l-.07,0V82.35l.07,0a.25.25,0,0,1,.15.21" transform="translate(0.04 -0.17)" style="fill:#6e6c6c"/><path d="M377.17,82.35v2.44l-.06,0V82.33l.06,0" transform="translate(0.04 -0.17)" style="fill:#727070"/><path d="M377.11,82.33v2.44h-.05V82.32h.05" transform="translate(0.04 -0.17)" style="fill:#767474"/><path d="M377.06,82.32v2.44H377V82.31h.05" transform="translate(0.04 -0.17)" style="fill:#7a7878"/><path d="M377,82.31v2.44h0V82.3H377" transform="translate(0.04 -0.17)" style="fill:#7f7c7c"/><path d="M377,82.3v2.45h0V82.3h0" transform="translate(0.04 -0.17)" style="fill:#838080"/><path d="M376.91,82.3v2.44h-.06V82.3h.05" transform="translate(0.04 -0.17)" style="fill:#878484"/><path d="M376.86,82.3v2.44h-.05V82.3h.05" transform="translate(0.04 -0.17)" style="fill:#8b8989"/><path d="M376.81,82.3v2.45h-.07V82.31h.07" transform="translate(0.04 -0.17)" style="fill:#8f8d8d"/><path d="M376.74,82.31v2.45l-.09,0V82.34l.1,0" transform="translate(0.04 -0.17)" style="fill:#949191"/><path d="M376.64,82.34v2.44l-.11,0V82.38l.11,0" transform="translate(0.04 -0.17)" style="fill:#989595"/></g></g></g><g style="isolation:isolate"><g style="clip-path:url(#i)"><g style="isolation:isolate"><polyline points="377.43 82.42 377.42 84.87 377.42 84.87 377.43 82.42 377.43 82.42" style="fill:#5c5c64"/><path d="M377.39,82.59v0" transform="translate(0.04 -0.17)" style="fill:#5f5f68"/><path d="M377.39,82.62v2.45s0,0,0,0V82.65a0,0,0,0,1,0,0" transform="translate(0.04 -0.17)" style="fill:#63636b"/><path d="M377.38,82.65V85.1s0,0,0,0V82.68l0,0" transform="translate(0.04 -0.17)" style="fill:#66666f"/><path d="M377.36,82.68v2.44s0,0,0,0V82.71l0,0" transform="translate(0.04 -0.17)" style="fill:#696972"/><path d="M377.34,82.71v2.44l0,0V82.74l0,0" transform="translate(0.04 -0.17)" style="fill:#6c6c76"/><path d="M377.31,82.74v2.45l-.07,0V82.79l.06-.05" transform="translate(0.04 -0.17)" style="fill:#6f6f79"/><polyline points="377.29 82.62 377.28 85.07 377.27 85.07 377.28 82.63 377.29 82.62" style="fill:#72727d"/></g></g></g><g style="isolation:isolate"><g style="clip-path:url(#j)"><g style="isolation:isolate"><path d="M430.92,113.49v2.45a.23.23,0,0,0-.14-.2l-.08,0v-2.45l.07,0a.24.24,0,0,1,.15.2" transform="translate(0.04 -0.17)" style="fill:#6e6c6c"/><path d="M430.7,113.25v2.45l-.06,0v-2.45l.06,0" transform="translate(0.04 -0.17)" style="fill:#727070"/><path d="M430.64,113.23v2.45h-.05v-2.45h.05" transform="translate(0.04 -0.17)" style="fill:#767474"/><path d="M430.59,113.22v2.45h-.05v-2.45h0" transform="translate(0.04 -0.17)" style="fill:#7a7878"/><path d="M430.54,113.21v2.45h0v-2.44h.05" transform="translate(0.04 -0.17)" style="fill:#7f7c7c"/><path d="M430.49,113.21v2.44h-.05V113.2h.05" transform="translate(0.04 -0.17)" style="fill:#838080"/><path d="M430.44,113.2v2.45h-.05V113.2h.05" transform="translate(0.04 -0.17)" style="fill:#878484"/><path d="M430.39,113.2v2.45h-.05v-2.44h.06" transform="translate(0.04 -0.17)" style="fill:#8b8989"/><path d="M430.33,113.21v2.44h-.07v-2.44h.06" transform="translate(0.04 -0.17)" style="fill:#8f8d8d"/><path d="M430.27,113.22v2.44l-.09,0v-2.45l.1,0" transform="translate(0.04 -0.17)" style="fill:#949191"/><path d="M430.17,113.24v2.45l-.11,0v-2.45l.11-.05" transform="translate(0.04 -0.17)" style="fill:#989595"/></g></g></g><g style="isolation:isolate"><g style="clip-path:url(#k)"><g style="isolation:isolate"><polyline points="430.95 113.32 430.95 115.77 430.95 115.77 430.95 113.33 430.95 113.32" style="fill:#5c5c64"/><path d="M430.92,113.5v0" transform="translate(0.04 -0.17)" style="fill:#5f5f68"/><path d="M430.92,113.53V116s0,0,0,0v-2.47" transform="translate(0.04 -0.17)" style="fill:#63636b"/><path d="M430.91,113.55V116s0,0,0,0v-2.45l0,0" transform="translate(0.04 -0.17)" style="fill:#66666f"/><path d="M430.89,113.58V116s0,0,0,0v-2.45s0,0,0,0" transform="translate(0.04 -0.17)" style="fill:#696972"/><path d="M430.87,113.61v2.45l0,0v-2.44l0,0" transform="translate(0.04 -0.17)" style="fill:#6c6c76"/><path d="M430.84,113.65v2.44a.1.1,0,0,1-.06,0V113.7l.06,0" transform="translate(0.04 -0.17)" style="fill:#6f6f79"/><polyline points="430.81 113.53 430.81 115.97 430.8 115.98 430.81 113.53 430.81 113.53" style="fill:#72727d"/></g></g></g><g style="isolation:isolate"><g style="clip-path:url(#l)"><g style="isolation:isolate"><path d="M448.76,123.8v2.44a.24.24,0,0,0-.15-.2l-.07,0v-2.44l.07,0a.24.24,0,0,1,.14.21" transform="translate(0.04 -0.17)" style="fill:#6e6c6c"/><path d="M448.55,123.56V126l-.06,0v-2.44l.06,0" transform="translate(0.04 -0.17)" style="fill:#727070"/><path d="M448.49,123.54V126h-.05v-2.45l.06,0" transform="translate(0.04 -0.17)" style="fill:#767474"/><path d="M448.43,123.52V126h-.05v-2.44h.05" transform="translate(0.04 -0.17)" style="fill:#7a7878"/><path d="M448.38,123.52V126h-.05v-2.45h.05" transform="translate(0.04 -0.17)" style="fill:#7f7c7c"/><path d="M448.33,123.51V126h-.05v-2.44h.05" transform="translate(0.04 -0.17)" style="fill:#838080"/><path d="M448.28,123.51V126h0v-2.44h0" transform="translate(0.04 -0.17)" style="fill:#878484"/><path d="M448.23,123.51V126h-.06v-2.45h.05" transform="translate(0.04 -0.17)" style="fill:#8b8989"/><path d="M448.18,123.51V126h-.06v-2.45h.07" transform="translate(0.04 -0.17)" style="fill:#8f8d8d"/><path d="M448.11,123.52V126l-.1,0v-2.45l.09,0" transform="translate(0.04 -0.17)" style="fill:#949191"/><path d="M448,123.54V126l-.11.05v-2.45l.11,0" transform="translate(0.04 -0.17)" style="fill:#989595"/></g></g></g><g style="isolation:isolate"><g style="clip-path:url(#m)"><g style="isolation:isolate"><polyline points="448.8 123.63 448.79 126.07 448.79 126.08 448.8 123.63 448.8 123.63" style="fill:#5c5c64"/><path d="M448.76,123.8v2.45a0,0,0,0,1,0,0V123.8" transform="translate(0.04 -0.17)" style="fill:#5f5f68"/><path d="M448.76,123.83v0a0,0,0,0,0,0,0" transform="translate(0.04 -0.17)" style="fill:#63636b"/><path d="M448.75,123.86v2.44l0,0v-2.44s0,0,0,0" transform="translate(0.04 -0.17)" style="fill:#66666f"/><path d="M448.74,123.89v2.44s0,0,0,0v-2.44l0,0" transform="translate(0.04 -0.17)" style="fill:#696972"/><path d="M448.72,123.92v2.44l0,0V124l0,0" transform="translate(0.04 -0.17)" style="fill:#6c6c76"/><path d="M448.69,124v2.45l-.06,0V124l.07,0" transform="translate(0.04 -0.17)" style="fill:#6f6f79"/><polyline points="448.66 123.83 448.65 126.28 448.65 126.28 448.65 123.83 448.66 123.83" style="fill:#72727d"/></g></g></g><g style="isolation:isolate"><g style="clip-path:url(#n)"><g style="isolation:isolate"><path d="M466.61,134.1v2.44a.24.24,0,0,0-.15-.2l-.07,0v-2.44l.07,0a.25.25,0,0,1,.15.21" transform="translate(0.04 -0.17)" style="fill:#6e6c6c"/><path d="M466.39,133.86v2.44l-.06,0v-2.44l.06,0" transform="translate(0.04 -0.17)" style="fill:#727070"/><path d="M466.33,133.84v2.44h-.05v-2.44h.05" transform="translate(0.04 -0.17)" style="fill:#767474"/><path d="M466.28,133.83v2.44h0v-2.44h0" transform="translate(0.04 -0.17)" style="fill:#7a7878"/><path d="M466.23,133.82v2.44h-.05v-2.45h.05" transform="translate(0.04 -0.17)" style="fill:#7f7c7c"/><path d="M466.18,133.81v2.45h-.05v-2.44h.05" transform="translate(0.04 -0.17)" style="fill:#838080"/><path d="M466.13,133.81v2.44h-.05v-2.45h.05" transform="translate(0.04 -0.17)" style="fill:#878484"/><path d="M466.08,133.81v2.45H466v-2.45h.06" transform="translate(0.04 -0.17)" style="fill:#8b8989"/><path d="M466,133.81v2.45H466v-2.45H466" transform="translate(0.04 -0.17)" style="fill:#8f8d8d"/><path d="M466,133.82v2.45l-.09,0v-2.44l.1,0" transform="translate(0.04 -0.17)" style="fill:#949191"/><path d="M465.86,133.85v2.44l-.12.05V133.9l.11-.05" transform="translate(0.04 -0.17)" style="fill:#989595"/></g></g></g><g style="isolation:isolate"><g style="clip-path:url(#o)"><g style="isolation:isolate"><path d="M466.61,134.1v2.44a.24.24,0,0,0-.15-.2l-.07,0v-2.44l.07,0a.25.25,0,0,1,.15.21" transform="translate(0.04 -0.17)" style="fill:#6e6c6c"/></g></g></g><g style="isolation:isolate"><g style="clip-path:url(#p)"><g style="isolation:isolate"><polyline points="466.64 133.93 466.64 136.38 466.64 136.38 466.64 133.94 466.64 133.93" style="fill:#5c5c64"/><path d="M466.61,134.1v0" transform="translate(0.04 -0.17)" style="fill:#5f5f68"/><path d="M466.61,134.13v2.45s0,0,0,0v-2.45a0,0,0,0,1,0,0" transform="translate(0.04 -0.17)" style="fill:#63636b"/><path d="M466.6,134.16v0l0,0" transform="translate(0.04 -0.17)" style="fill:#66666f"/><path d="M466.58,134.19v2.45l0,0v-2.45l0,0" transform="translate(0.04 -0.17)" style="fill:#696972"/><path d="M466.56,134.22v2.45l0,0v-2.45l0,0" transform="translate(0.04 -0.17)" style="fill:#6c6c76"/><path d="M466.53,134.25v2.45l-.07.05V134.3l.06-.05" transform="translate(0.04 -0.17)" style="fill:#6f6f79"/><polyline points="466.5 134.13 466.5 136.58 466.49 136.58 466.5 134.14 466.5 134.13" style="fill:#72727d"/></g></g></g><g style="isolation:isolate"><g style="clip-path:url(#q)"><g style="isolation:isolate"><path d="M3.67,134.1v2.45c-2.47-1.43-3.7-3.31-3.7-5.19v-2.45c0,1.88,1.23,3.77,3.7,5.19" transform="translate(0.04 -0.17)" style="fill:#6e6c6c"/></g></g></g><g style="isolation:isolate"><g style="clip-path:url(#r)"><g style="isolation:isolate"><path d="M484.45,144.4v2.45a.25.25,0,0,0-.15-.21l-.08,0v-2.45l.07,0a.27.27,0,0,1,.15.21" transform="translate(0.04 -0.17)" style="fill:#6e6c6c"/><path d="M484.23,144.16v2.45l-.06,0v-2.45l.06,0" transform="translate(0.04 -0.17)" style="fill:#727070"/><path d="M484.17,144.14v2.45l-.05,0v-2.44h.05" transform="translate(0.04 -0.17)" style="fill:#767474"/><path d="M484.12,144.13v2.44h0v-2.44h.05" transform="translate(0.04 -0.17)" style="fill:#7a7878"/><path d="M484.07,144.12v2.44H484v-2.45h0" transform="translate(0.04 -0.17)" style="fill:#7f7c7c"/><path d="M484,144.11v2.45h0v-2.45h0" transform="translate(0.04 -0.17)" style="fill:#838080"/><path d="M484,144.11v2.45h-.05v-2.45H484" transform="translate(0.04 -0.17)" style="fill:#878484"/><path d="M483.93,144.11v2.45h-.05v-2.45h.06" transform="translate(0.04 -0.17)" style="fill:#8b8989"/><path d="M483.87,144.11v2.45h-.07v-2.45h.06" transform="translate(0.04 -0.17)" style="fill:#8f8d8d"/><path d="M483.81,144.12v2.45l-.09,0v-2.44l.1,0" transform="translate(0.04 -0.17)" style="fill:#949191"/><path d="M483.71,144.15v2.44l-.12,0V144.2l.11,0" transform="translate(0.04 -0.17)" style="fill:#989595"/></g></g></g><g style="isolation:isolate"><g style="clip-path:url(#s)"><g style="isolation:isolate"><polyline points="484.49 144.23 484.48 146.68 484.48 146.68 484.49 144.24 484.49 144.23" style="fill:#5c5c64"/><path d="M484.45,144.41v2.44a0,0,0,0,1,0,0v-2.47" transform="translate(0.04 -0.17)" style="fill:#5f5f68"/><path d="M484.45,144.44v0" transform="translate(0.04 -0.17)" style="fill:#63636b"/><path d="M484.44,144.46v2.45l0,0v-2.45s0,0,0,0" transform="translate(0.04 -0.17)" style="fill:#66666f"/><path d="M484.43,144.49v2.45l0,0v-2.45l0,0" transform="translate(0.04 -0.17)" style="fill:#696972"/><path d="M484.41,144.52V147l0,0v-2.44l0,0" transform="translate(0.04 -0.17)" style="fill:#6c6c76"/><path d="M484.38,144.56V147l-.06.05V144.6l.07,0" transform="translate(0.04 -0.17)" style="fill:#6f6f79"/><polyline points="484.35 144.44 484.34 146.88 484.34 146.88 484.34 144.44 484.35 144.44" style="fill:#72727d"/></g></g></g><g style="isolation:isolate"><g style="clip-path:url(#t)"><g style="isolation:isolate"><path d="M306.59,144.41v2.44a.27.27,0,0,0-.15-.21l-.07,0v-2.45l.08,0a.25.25,0,0,1,.15.21" transform="translate(0.04 -0.17)" style="fill:#6e6c6c"/><path d="M306.36,144.16v2.45l-.06,0v-2.45l.06,0" transform="translate(0.04 -0.17)" style="fill:#727070"/><path d="M306.3,144.14v2.45h-.06v-2.45h.05" transform="translate(0.04 -0.17)" style="fill:#767474"/><path d="M306.25,144.13v2.45h0v-2.45h.05" transform="translate(0.04 -0.17)" style="fill:#7a7878"/><path d="M306.2,144.12v2.45h-.05v-2.44h0" transform="translate(0.04 -0.17)" style="fill:#7f7c7c"/><path d="M306.16,144.12v2.44h0v-2.45h.05" transform="translate(0.04 -0.17)" style="fill:#838080"/><path d="M306.11,144.11v2.45h-.05v-2.45h.05" transform="translate(0.04 -0.17)" style="fill:#878484"/><path d="M306.06,144.11v2.45H306v-2.44h.05" transform="translate(0.04 -0.17)" style="fill:#8b8989"/><path d="M306,144.12v2.44h-.06v-2.44H306" transform="translate(0.04 -0.17)" style="fill:#8f8d8d"/><path d="M305.94,144.13v2.44l-.1,0v-2.44l.09,0" transform="translate(0.04 -0.17)" style="fill:#949191"/><path d="M305.85,144.15v2.44l-.11,0V144.2l.11,0" transform="translate(0.04 -0.17)" style="fill:#989595"/></g></g></g><g style="isolation:isolate"><g style="clip-path:url(#u)"><g style="isolation:isolate"><polyline points="306.63 144.24 306.62 146.69 306.62 146.69 306.63 144.25 306.63 144.24" style="fill:#5c5c64"/><path d="M306.59,144.41v0" transform="translate(0.04 -0.17)" style="fill:#5f5f68"/><path d="M306.59,144.44v2.45s0,0,0,0v-2.47" transform="translate(0.04 -0.17)" style="fill:#63636b"/><path d="M306.58,144.47v2.44a0,0,0,0,1,0,0v-2.47" transform="translate(0.04 -0.17)" style="fill:#66666f"/><path d="M306.57,144.5v2.44l0,0v-2.45s0,0,0,0" transform="translate(0.04 -0.17)" style="fill:#696972"/><path d="M306.55,144.52V147l0,0v-2.44l0,0" transform="translate(0.04 -0.17)" style="fill:#6c6c76"/><path d="M306.52,144.56V147l-.06.05V144.6l.07,0" transform="translate(0.04 -0.17)" style="fill:#6f6f79"/><polyline points="306.49 144.44 306.48 146.88 306.48 146.89 306.48 144.44 306.49 144.44" style="fill:#72727d"/></g></g></g><polygon points="323.03 51.31 323.03 53.75 136.88 161.93 136.89 159.48 323.03 51.31" style="fill:#a3a0a0"/><g style="isolation:isolate"><g style="clip-path:url(#v)"><g style="isolation:isolate"><polyline points="136.89 159.48 136.88 161.93 136.88 161.93 136.88 159.49 136.89 159.48" style="fill:#989595"/><path d="M136.85,159.66v2.44l-.06.05V159.7l.07,0" transform="translate(0.04 -0.17)" style="fill:#949191"/><path d="M136.78,159.7v2.45l0,0v-2.45l0,0" transform="translate(0.04 -0.17)" style="fill:#8f8d8d"/><path d="M136.75,159.73v2.45s0,0,0,0v-2.45s0,0,0,0" transform="translate(0.04 -0.17)" style="fill:#8b8989"/><path d="M136.73,159.76v2.45l0,0v-2.45s0,0,0,0" transform="translate(0.04 -0.17)" style="fill:#878484"/><path d="M136.72,159.79v0a0,0,0,0,0,0,0" transform="translate(0.04 -0.17)" style="fill:#838080"/><path d="M136.71,159.82v2.44a0,0,0,0,0,0,0v-2.47" transform="translate(0.04 -0.17)" style="fill:#7f7c7c"/><polyline points="136.75 159.68 136.74 162.13 136.74 162.13 136.75 159.69 136.75 159.68" style="fill:#7a7878"/></g></g></g><polygon points="323.74 51.72 323.74 54.16 137.59 162.34 137.6 159.89 323.74 51.72" style="fill:#7b7b85"/><g style="isolation:isolate"><g style="clip-path:url(#w)"><g style="isolation:isolate"><path d="M137.56,160.06v2.45l-.11,0v-2.44l.11-.05" transform="translate(0.04 -0.17)" style="fill:#72727d"/><path d="M137.45,160.11v2.44l-.09,0v-2.45l.09,0" transform="translate(0.04 -0.17)" style="fill:#6f6f79"/><path d="M137.36,160.13v2.45h-.06v-2.45h.07" transform="translate(0.04 -0.17)" style="fill:#6c6c76"/><path d="M137.29,160.14v2.45h-.06v-2.44h0" transform="translate(0.04 -0.17)" style="fill:#696972"/><path d="M137.24,160.15v2.44h0v-2.44h.05" transform="translate(0.04 -0.17)" style="fill:#66666f"/><path d="M137.19,160.15v2.44h-.05v-2.45h.05" transform="translate(0.04 -0.17)" style="fill:#63636b"/><path d="M137.14,160.14v2.45h0v-2.44h0" transform="translate(0.04 -0.17)" style="fill:#5f5f68"/><path d="M137.09,160.14v2.44H137v-2.44h.05" transform="translate(0.04 -0.17)" style="fill:#5c5c64"/><path d="M137,160.13v2.44h0v-2.44h0" transform="translate(0.04 -0.17)" style="fill:#595961"/><path d="M137,160.12v2.44l-.06,0V160.1l.06,0" transform="translate(0.04 -0.17)" style="fill:#56565d"/><path d="M136.93,160.1v2.44l-.08,0a.27.27,0,0,1-.15-.21v-2.45a.25.25,0,0,0,.15.21l.07,0" transform="translate(0.04 -0.17)" style="fill:#53535a"/></g></g></g><polygon points="340.88 61.61 340.87 64.06 154.73 172.23 154.73 169.79 340.88 61.61" style="fill:#a3a0a0"/><g style="isolation:isolate"><g style="clip-path:url(#x)"><g style="isolation:isolate"><polyline points="154.73 169.79 154.73 172.23 154.72 172.24 154.73 169.79 154.73 169.79" style="fill:#989595"/><path d="M154.69,170v2.44l-.06,0V170l.06,0" transform="translate(0.04 -0.17)" style="fill:#949191"/><path d="M154.63,170v2.45l0,0V170l0,0" transform="translate(0.04 -0.17)" style="fill:#8f8d8d"/><path d="M154.6,170v2.44l0,0v-2.44l0,0" transform="translate(0.04 -0.17)" style="fill:#8b8989"/><path d="M154.58,170.07v2.44s0,0,0,0v-2.45s0,0,0,0" transform="translate(0.04 -0.17)" style="fill:#878484"/><path d="M154.57,170.09v2.45s0,0,0,0v-2.45a0,0,0,0,1,0,0" transform="translate(0.04 -0.17)" style="fill:#838080"/><path d="M154.56,170.12v0s0,0,0,0" transform="translate(0.04 -0.17)" style="fill:#7f7c7c"/><polyline points="154.59 169.98 154.58 172.43 154.58 172.43 154.59 169.99 154.59 169.98" style="fill:#7a7878"/></g></g></g><polygon points="341.59 62.02 341.58 64.47 155.44 172.64 155.44 170.2 341.59 62.02" style="fill:#7b7b85"/><g style="isolation:isolate"><g style="clip-path:url(#y)"><g style="isolation:isolate"><path d="M155.41,170.36v2.45l-.11.05v-2.45l.11,0" transform="translate(0.04 -0.17)" style="fill:#72727d"/><path d="M155.3,170.41v2.45l-.09,0v-2.45l.09,0" transform="translate(0.04 -0.17)" style="fill:#6f6f79"/><path d="M155.21,170.43v2.45h-.06v-2.45h.07" transform="translate(0.04 -0.17)" style="fill:#6c6c76"/><path d="M155.14,170.44v2.45h-.06v-2.44h0" transform="translate(0.04 -0.17)" style="fill:#696972"/><path d="M155.09,170.45v2.44H155v-2.44h.06" transform="translate(0.04 -0.17)" style="fill:#66666f"/><path d="M155,170.45v2.44H155v-2.45H155" transform="translate(0.04 -0.17)" style="fill:#63636b"/><path d="M155,170.44v2.45h0v-2.44h0" transform="translate(0.04 -0.17)" style="fill:#5f5f68"/><path d="M154.94,170.44v2.44h-.05v-2.45h.05" transform="translate(0.04 -0.17)" style="fill:#5c5c64"/><path d="M154.89,170.43v2.45l0,0v-2.44h.06" transform="translate(0.04 -0.17)" style="fill:#595961"/><path d="M154.83,170.42v2.44l-.06,0V170.4l.05,0" transform="translate(0.04 -0.17)" style="fill:#56565d"/><path d="M154.78,170.4v2.44l-.07,0a.25.25,0,0,1-.15-.21v-2.44a.24.24,0,0,0,.15.2l.07,0" transform="translate(0.04 -0.17)" style="fill:#53535a"/></g></g></g><polygon points="358.72 71.91 358.72 74.36 172.57 182.54 172.58 180.09 358.72 71.91" style="fill:#a3a0a0"/><g style="isolation:isolate"><g style="clip-path:url(#z)"><g style="isolation:isolate"><polyline points="172.58 180.09 172.57 182.54 172.56 182.54 172.57 180.09 172.58 180.09" style="fill:#989595"/><path d="M172.54,180.26v2.45l-.06,0v-2.44l.07-.05" transform="translate(0.04 -0.17)" style="fill:#949191"/><path d="M172.47,180.31v2.44l0,0v-2.45l0,0" transform="translate(0.04 -0.17)" style="fill:#8f8d8d"/><path d="M172.44,180.34v2.45l0,0v-2.45l0,0" transform="translate(0.04 -0.17)" style="fill:#8b8989"/><path d="M172.42,180.37v2.45l0,0V180.4s0,0,0,0" transform="translate(0.04 -0.17)" style="fill:#878484"/><path d="M172.41,180.4v0s0,0,0,0" transform="translate(0.04 -0.17)" style="fill:#838080"/><path d="M172.4,180.43v2.44a0,0,0,0,0,0,0v-2.47" transform="translate(0.04 -0.17)" style="fill:#7f7c7c"/><polyline points="172.44 180.29 172.43 182.73 172.43 182.74 172.44 180.29 172.44 180.29" style="fill:#7a7878"/></g></g></g><polygon points="359.43 72.32 359.43 74.77 173.28 182.94 173.29 180.5 359.43 72.32" style="fill:#7b7b85"/><g style="isolation:isolate"><g style="clip-path:url(#aa)"><g style="isolation:isolate"><path d="M173.25,180.67v2.44a.31.31,0,0,1-.1,0v-2.45l.1,0" transform="translate(0.04 -0.17)" style="fill:#72727d"/><path d="M173.15,180.71v2.45l-.09,0v-2.44l.1,0" transform="translate(0.04 -0.17)" style="fill:#6f6f79"/><path d="M173.05,180.74v2.44H173v-2.44h.06" transform="translate(0.04 -0.17)" style="fill:#6c6c76"/><path d="M173,180.75v2.44h0v-2.44H173" transform="translate(0.04 -0.17)" style="fill:#696972"/><path d="M172.93,180.75v2.44h-.06v-2.45h.05" transform="translate(0.04 -0.17)" style="fill:#66666f"/><path d="M172.88,180.75v2.45h0v-2.44h0" transform="translate(0.04 -0.17)" style="fill:#63636b"/><path d="M172.83,180.75v2.44h-.05v-2.45h.05" transform="translate(0.04 -0.17)" style="fill:#5f5f68"/><path d="M172.78,180.74v2.45h-.05v-2.45h.05" transform="translate(0.04 -0.17)" style="fill:#5c5c64"/><path d="M172.73,180.73v2.45h-.06v-2.45h0" transform="translate(0.04 -0.17)" style="fill:#595961"/><path d="M172.68,180.72v2.45l-.06,0V180.7l.06,0" transform="translate(0.04 -0.17)" style="fill:#56565d"/><path d="M172.62,180.7v2.44l-.07,0a.25.25,0,0,1-.15-.21v-2.44a.25.25,0,0,0,.14.2l.08,0" transform="translate(0.04 -0.17)" style="fill:#53535a"/></g></g></g><path d="M359.39,72.08a.22.22,0,0,1,0,.41L173.25,180.67a.77.77,0,0,1-.71,0,.21.21,0,0,1,0-.4L358.69,72.08A.78.78,0,0,1,359.39,72.08Z" transform="translate(0.04 -0.17)" style="fill:#898995"/><polygon points="376.57 82.22 376.56 84.66 190.42 192.84 190.42 190.39 376.57 82.22" style="fill:#a3a0a0"/><g style="isolation:isolate"><g style="clip-path:url(#ab)"><g style="isolation:isolate"><polyline points="190.42 190.39 190.42 192.84 190.41 192.84 190.42 190.4 190.42 190.39" style="fill:#989595"/><path d="M190.38,190.56V193l-.06.05v-2.45l.06-.05" transform="translate(0.04 -0.17)" style="fill:#949191"/><path d="M190.32,190.61v2.45l0,0v-2.45l0,0" transform="translate(0.04 -0.17)" style="fill:#8f8d8d"/><path d="M190.29,190.64v2.45l0,0v-2.45l0,0" transform="translate(0.04 -0.17)" style="fill:#8b8989"/><path d="M190.27,190.67v2.45s0,0,0,0V190.7a0,0,0,0,1,0,0" transform="translate(0.04 -0.17)" style="fill:#878484"/><path d="M190.26,190.7v0a0,0,0,0,1,0,0" transform="translate(0.04 -0.17)" style="fill:#838080"/><path d="M190.25,190.73v0s0,0,0,0" transform="translate(0.04 -0.17)" style="fill:#7f7c7c"/><polyline points="190.28 190.59 190.27 193.04 190.27 193.04 190.28 190.59 190.28 190.59" style="fill:#7a7878"/></g></g></g><polygon points="377.28 82.63 377.27 85.07 191.13 193.25 191.13 190.8 377.28 82.63" style="fill:#7b7b85"/><g style="isolation:isolate"><g style="clip-path:url(#ac)"><g style="isolation:isolate"><path d="M191.1,191v2.45l-.11,0V191l.11-.05" transform="translate(0.04 -0.17)" style="fill:#72727d"/><path d="M191,191v2.44l-.09,0V191l.09,0" transform="translate(0.04 -0.17)" style="fill:#6f6f79"/><path d="M190.9,191v2.45h-.06v-2.44h.07" transform="translate(0.04 -0.17)" style="fill:#6c6c76"/><path d="M190.83,191.05v2.44h-.06v-2.45h.05" transform="translate(0.04 -0.17)" style="fill:#696972"/><path d="M190.78,191.05v2.45h-.05v-2.45h.05" transform="translate(0.04 -0.17)" style="fill:#66666f"/><path d="M190.73,191.05v2.45h-.05v-2.45h0" transform="translate(0.04 -0.17)" style="fill:#63636b"/><path d="M190.68,191.05v2.45h0V191h.05" transform="translate(0.04 -0.17)" style="fill:#5f5f68"/><path d="M190.63,191v2.45h-.05V191h0" transform="translate(0.04 -0.17)" style="fill:#5c5c64"/><path d="M190.58,191v2.44h0V191l.06,0" transform="translate(0.04 -0.17)" style="fill:#595961"/><path d="M190.52,191v2.45l-.06,0V191l.06,0" transform="translate(0.04 -0.17)" style="fill:#56565d"/><path d="M190.46,191v2.45l-.08,0a.25.25,0,0,1-.14-.2v-2.45a.24.24,0,0,0,.14.21l.07,0" transform="translate(0.04 -0.17)" style="fill:#53535a"/></g></g></g><polygon points="305.77 144.03 305.77 146.48 208.26 203.14 208.27 200.7 305.77 144.03" style="fill:#a3a0a0"/><g style="isolation:isolate"><g style="clip-path:url(#ad)"><g style="isolation:isolate"><polyline points="208.27 200.7 208.26 203.14 208.25 203.15 208.26 200.7 208.27 200.7" style="fill:#989595"/><path d="M208.23,200.87v2.44s-.05,0-.06.05v-2.45l.07,0" transform="translate(0.04 -0.17)" style="fill:#949191"/><path d="M208.16,200.91v2.45l0,0V201l0,0" transform="translate(0.04 -0.17)" style="fill:#8f8d8d"/><path d="M208.13,201v2.44s0,0,0,0V201l0,0" transform="translate(0.04 -0.17)" style="fill:#8b8989"/><path d="M208.11,201v2.44s0,0,0,0V201s0,0,0,0" transform="translate(0.04 -0.17)" style="fill:#878484"/><path d="M208.1,201v2.44a0,0,0,0,1,0,0V201s0,0,0,0" transform="translate(0.04 -0.17)" style="fill:#838080"/><path d="M208.09,201v0" transform="translate(0.04 -0.17)" style="fill:#7f7c7c"/><polyline points="208.12 200.89 208.12 203.34 208.12 203.34 208.12 200.9 208.12 200.89" style="fill:#7a7878"/></g></g></g><polygon points="306.48 144.44 306.48 146.89 208.97 203.55 208.98 201.1 306.48 144.44" style="fill:#7b7b85"/><g style="isolation:isolate"><g style="clip-path:url(#ae)"><g style="isolation:isolate"><path d="M208.94,201.27v2.45l-.1,0v-2.44l.1,0" transform="translate(0.04 -0.17)" style="fill:#72727d"/><path d="M208.84,201.32v2.44l-.09,0v-2.45l.1,0" transform="translate(0.04 -0.17)" style="fill:#6f6f79"/><path d="M208.74,201.34v2.45h-.07v-2.45h.06" transform="translate(0.04 -0.17)" style="fill:#6c6c76"/><path d="M208.68,201.35v2.45h0v-2.44h.06" transform="translate(0.04 -0.17)" style="fill:#696972"/><path d="M208.62,201.36v2.44h-.05v-2.44h.05" transform="translate(0.04 -0.17)" style="fill:#66666f"/><path d="M208.57,201.36v2.44h0v-2.45h0" transform="translate(0.04 -0.17)" style="fill:#63636b"/><path d="M208.52,201.35v2.45h-.05v-2.44h.05" transform="translate(0.04 -0.17)" style="fill:#5f5f68"/><path d="M208.47,201.35v2.44h-.05v-2.44h.05" transform="translate(0.04 -0.17)" style="fill:#5c5c64"/><path d="M208.42,201.34v2.44h-.06v-2.44h0" transform="translate(0.04 -0.17)" style="fill:#595961"/><path d="M208.37,201.33v2.44l-.06,0V201.3l.06,0" transform="translate(0.04 -0.17)" style="fill:#56565d"/><path d="M208.31,201.3v2.45l-.07,0a.24.24,0,0,1-.15-.2v-2.44a.26.26,0,0,0,.14.2l.08,0" transform="translate(0.04 -0.17)" style="fill:#53535a"/></g></g></g><g style="isolation:isolate"><g style="clip-path:url(#af)"><g style="isolation:isolate"><path d="M413.66,206.22v2.45a.25.25,0,0,0-.15-.21l-.08,0V206l.07,0a.28.28,0,0,1,.16.21" transform="translate(0.04 -0.17)" style="fill:#6e6c6c"/><path d="M413.43,206v2.44l-.06,0V206l.07,0" transform="translate(0.04 -0.17)" style="fill:#727070"/><path d="M413.36,206v2.45h-.06v-2.45h.05" transform="translate(0.04 -0.17)" style="fill:#767474"/><path d="M413.31,205.94v2.45h-.05v-2.45h.05" transform="translate(0.04 -0.17)" style="fill:#7a7878"/><path d="M413.26,205.93v2.45h0v-2.44h.05" transform="translate(0.04 -0.17)" style="fill:#7f7c7c"/><path d="M413.21,205.93v2.44h0v-2.44h0" transform="translate(0.04 -0.17)" style="fill:#838080"/><path d="M413.16,205.93v2.44h-.05v-2.44a0,0,0,0,1,.05,0" transform="translate(0.04 -0.17)" style="fill:#878484"/><path d="M413.11,205.93v2.44h-.06v-2.44h.05" transform="translate(0.04 -0.17)" style="fill:#8b8989"/><path d="M413.06,205.93v2.44H413v-2.44h.06" transform="translate(0.04 -0.17)" style="fill:#8f8d8d"/><path d="M413,205.94v2.44l-.09,0V206l.09,0" transform="translate(0.04 -0.17)" style="fill:#949191"/><path d="M412.91,206v2.45l-.11,0V206l.11,0" transform="translate(0.04 -0.17)" style="fill:#989595"/></g></g></g><g style="isolation:isolate"><g style="clip-path:url(#ag)"><g style="isolation:isolate"><path d="M413.66,206.22v2.45a.25.25,0,0,0-.15-.21l-.08,0V206l.07,0a.28.28,0,0,1,.16.21" transform="translate(0.04 -0.17)" style="fill:#6e6c6c"/></g></g></g><g style="isolation:isolate"><g style="clip-path:url(#ah)"><g style="isolation:isolate"><polyline points="413.69 206.05 413.69 208.5 413.69 208.5 413.69 206.06 413.69 206.05" style="fill:#5c5c64"/><path d="M413.66,206.23v0a0,0,0,0,0,0,0" transform="translate(0.04 -0.17)" style="fill:#5f5f68"/><path d="M413.65,206.25v2.45a0,0,0,0,0,0,0v-2.48" transform="translate(0.04 -0.17)" style="fill:#63636b"/><path d="M413.65,206.28v0l0,0" transform="translate(0.04 -0.17)" style="fill:#66666f"/><path d="M413.63,206.31v2.44l0,0v-2.44l0,0" transform="translate(0.04 -0.17)" style="fill:#696972"/><path d="M413.61,206.34v2.44l0,0v-2.45l0,0" transform="translate(0.04 -0.17)" style="fill:#6c6c76"/><path d="M413.58,206.37v2.45l-.07,0v-2.44l.06,0" transform="translate(0.04 -0.17)" style="fill:#6f6f79"/><polyline points="413.56 206.25 413.55 208.7 413.54 208.7 413.55 206.25 413.56 206.25" style="fill:#72727d"/></g></g></g><polygon points="430.1 113.12 430.09 115.57 243.94 223.74 243.95 221.3 430.1 113.12" style="fill:#a3a0a0"/><g style="isolation:isolate"><g style="clip-path:url(#ai)"><g style="isolation:isolate"><polyline points="243.95 221.3 243.94 223.74 243.94 223.75 243.95 221.3 243.95 221.3" style="fill:#989595"/><path d="M243.91,221.47v2.44l-.06.05v-2.45l.06,0" transform="translate(0.04 -0.17)" style="fill:#949191"/><path d="M243.85,221.51V224l0,0v-2.44l0,0" transform="translate(0.04 -0.17)" style="fill:#8f8d8d"/><path d="M243.82,221.55V224l0,0v-2.44s0,0,0,0" transform="translate(0.04 -0.17)" style="fill:#8b8989"/><path d="M243.8,221.58V224s0,0,0,0v-2.44a0,0,0,0,1,0,0" transform="translate(0.04 -0.17)" style="fill:#878484"/><path d="M243.79,221.61v2.44s0,0,0,0v-2.45s0,0,0,0" transform="translate(0.04 -0.17)" style="fill:#838080"/><path d="M243.78,221.63v0" transform="translate(0.04 -0.17)" style="fill:#7f7c7c"/><polyline points="243.81 221.49 243.8 223.94 243.8 223.94 243.81 221.5 243.81 221.49" style="fill:#7a7878"/></g></g></g><polygon points="430.81 113.53 430.8 115.98 244.65 224.15 244.66 221.71 430.81 113.53" style="fill:#7b7b85"/><g style="isolation:isolate"><g style="clip-path:url(#aj)"><g style="isolation:isolate"><path d="M244.62,221.88v2.44l-.11.05v-2.45l.1,0" transform="translate(0.04 -0.17)" style="fill:#72727d"/><path d="M244.52,221.92v2.45l-.09,0v-2.45l.09,0" transform="translate(0.04 -0.17)" style="fill:#6f6f79"/><path d="M244.43,221.94v2.45h-.07V222h.07" transform="translate(0.04 -0.17)" style="fill:#6c6c76"/><path d="M244.36,222v2.45h0V222h.05" transform="translate(0.04 -0.17)" style="fill:#696972"/><path d="M244.31,222v2.44h-.05V222h.06" transform="translate(0.04 -0.17)" style="fill:#66666f"/><path d="M244.25,222v2.44h-.05V222h.05" transform="translate(0.04 -0.17)" style="fill:#63636b"/><path d="M244.2,222v2.44h0V222h0" transform="translate(0.04 -0.17)" style="fill:#5f5f68"/><path d="M244.15,222v2.45h-.05v-2.45h0" transform="translate(0.04 -0.17)" style="fill:#5c5c64"/><path d="M244.11,221.94v2.45l0,0v-2.44h.06" transform="translate(0.04 -0.17)" style="fill:#595961"/><path d="M244.05,221.93v2.44l-.06,0v-2.44l.06,0" transform="translate(0.04 -0.17)" style="fill:#56565d"/><path d="M244,221.91v2.44l-.07,0a.25.25,0,0,1-.15-.21v-2.44a.27.27,0,0,0,.15.21l.07,0" transform="translate(0.04 -0.17)" style="fill:#53535a"/></g></g></g><polygon points="447.94 123.42 447.94 125.87 261.79 234.05 261.8 231.6 447.94 123.42" style="fill:#a3a0a0"/><g style="isolation:isolate"><g style="clip-path:url(#ak)"><g style="isolation:isolate"><polyline points="261.8 231.6 261.79 234.05 261.78 234.05 261.79 231.6 261.8 231.6" style="fill:#989595"/><path d="M261.76,231.77v2.45l-.06,0v-2.44l.07,0" transform="translate(0.04 -0.17)" style="fill:#949191"/><path d="M261.69,231.82v2.44l0,0v-2.45l0,0" transform="translate(0.04 -0.17)" style="fill:#8f8d8d"/><path d="M261.66,231.85v2.45l0,0v-2.44s0,0,0,0" transform="translate(0.04 -0.17)" style="fill:#8b8989"/><path d="M261.64,231.88v2.44l0,0v-2.47" transform="translate(0.04 -0.17)" style="fill:#878484"/><path d="M261.63,231.91v0" transform="translate(0.04 -0.17)" style="fill:#838080"/><path d="M261.62,231.94v2.44a0,0,0,0,0,0,0v-2.47" transform="translate(0.04 -0.17)" style="fill:#7f7c7c"/><polyline points="261.65 231.8 261.65 234.24 261.65 234.25 261.65 231.8 261.65 231.8" style="fill:#7a7878"/></g></g></g><polygon points="448.65 123.83 448.65 126.28 262.5 234.46 262.51 232.01 448.65 123.83" style="fill:#7b7b85"/><g style="isolation:isolate"><g style="clip-path:url(#al)"><g style="isolation:isolate"><path d="M262.47,232.18v2.44l-.1,0v-2.45l.11,0" transform="translate(0.04 -0.17)" style="fill:#72727d"/><path d="M262.36,232.22v2.45l-.1,0v-2.44l.09,0" transform="translate(0.04 -0.17)" style="fill:#6f6f79"/><path d="M262.27,232.25v2.44h-.06v-2.44h.06" transform="translate(0.04 -0.17)" style="fill:#6c6c76"/><path d="M262.21,232.26v2.44h-.06v-2.45h.06" transform="translate(0.04 -0.17)" style="fill:#696972"/><path d="M262.15,232.26v2.45h-.05v-2.45h0" transform="translate(0.04 -0.17)" style="fill:#66666f"/><path d="M262.1,232.26v2.45h0v-2.44h.05" transform="translate(0.04 -0.17)" style="fill:#63636b"/><path d="M262.05,232.26v2.44H262v-2.45h.05" transform="translate(0.04 -0.17)" style="fill:#5f5f68"/><path d="M262,232.25v2.45h-.05v-2.45H262" transform="translate(0.04 -0.17)" style="fill:#5c5c64"/><path d="M262,232.24v2.45h-.05v-2.45H262" transform="translate(0.04 -0.17)" style="fill:#595961"/><path d="M261.9,232.23v2.45l-.06,0v-2.45l.06,0" transform="translate(0.04 -0.17)" style="fill:#56565d"/><path d="M261.84,232.21v2.45l-.07,0a.24.24,0,0,1-.15-.21V232a.27.27,0,0,0,.15.21l.07,0" transform="translate(0.04 -0.17)" style="fill:#53535a"/></g></g></g><path d="M448.62,123.59a.22.22,0,0,1,0,.41L262.47,232.18a.78.78,0,0,1-.7,0c-.2-.12-.2-.3,0-.41L447.91,123.59A.8.8,0,0,1,448.62,123.59Z" transform="translate(0.04 -0.17)" style="fill:#898995"/><polygon points="465.79 133.73 465.78 136.17 279.63 244.35 279.64 241.9 465.79 133.73" style="fill:#a3a0a0"/><g style="isolation:isolate"><g style="clip-path:url(#am)"><g style="isolation:isolate"><polyline points="279.64 241.9 279.63 244.35 279.63 244.35 279.64 241.91 279.64 241.9" style="fill:#989595"/><path d="M279.6,242.07v2.45l-.06,0v-2.45l.06-.05" transform="translate(0.04 -0.17)" style="fill:#949191"/><path d="M279.54,242.12v2.45l0,0v-2.45l0,0" transform="translate(0.04 -0.17)" style="fill:#8f8d8d"/><path d="M279.51,242.15v2.45l0,0v-2.45s0,0,0,0" transform="translate(0.04 -0.17)" style="fill:#8b8989"/><path d="M279.49,242.18v0l0,0" transform="translate(0.04 -0.17)" style="fill:#878484"/><path d="M279.47,242.21v2.45a0,0,0,0,0,0,0v-2.48" transform="translate(0.04 -0.17)" style="fill:#838080"/><path d="M279.47,242.24v0a0,0,0,0,1,0,0" transform="translate(0.04 -0.17)" style="fill:#7f7c7c"/><polyline points="279.5 242.1 279.49 244.55 279.49 244.55 279.5 242.1 279.5 242.1" style="fill:#7a7878"/></g></g></g><polygon points="466.5 134.14 466.49 136.58 280.34 244.76 280.35 242.31 466.5 134.14" style="fill:#7b7b85"/><g style="isolation:isolate"><g style="clip-path:url(#an)"><g style="isolation:isolate"><path d="M280.32,242.48v2.45l-.11,0v-2.44l.11-.05" transform="translate(0.04 -0.17)" style="fill:#72727d"/><path d="M280.21,242.53V245l-.09,0v-2.45l.09,0" transform="translate(0.04 -0.17)" style="fill:#6f6f79"/><path d="M280.12,242.55V245h-.06v-2.44h.07" transform="translate(0.04 -0.17)" style="fill:#6c6c76"/><path d="M280.05,242.56V245H280v-2.45h.05" transform="translate(0.04 -0.17)" style="fill:#696972"/><path d="M280,242.56V245h-.05v-2.45H280" transform="translate(0.04 -0.17)" style="fill:#66666f"/><path d="M280,242.56V245h-.05v-2.45H280" transform="translate(0.04 -0.17)" style="fill:#63636b"/><path d="M279.9,242.56V245h-.05v-2.45h0" transform="translate(0.04 -0.17)" style="fill:#5f5f68"/><path d="M279.85,242.55V245h0v-2.44h.05" transform="translate(0.04 -0.17)" style="fill:#5c5c64"/><path d="M279.8,242.55V245h-.05v-2.45l.06,0" transform="translate(0.04 -0.17)" style="fill:#595961"/><path d="M279.74,242.53V245l-.06,0v-2.45l.06,0" transform="translate(0.04 -0.17)" style="fill:#56565d"/><path d="M279.68,242.51V245a.2.2,0,0,1-.08,0,.25.25,0,0,1-.14-.2v-2.45a.25.25,0,0,0,.15.21l.07,0" transform="translate(0.04 -0.17)" style="fill:#53535a"/></g></g></g><polygon points="483.63 144.03 483.63 146.48 297.48 254.65 297.49 252.21 483.63 144.03" style="fill:#a3a0a0"/><g style="isolation:isolate"><g style="clip-path:url(#ao)"><g style="isolation:isolate"><polyline points="297.49 252.21 297.48 254.65 297.48 254.66 297.48 252.21 297.49 252.21" style="fill:#989595"/><path d="M297.45,252.38v2.44s-.05,0-.06.05v-2.44a.18.18,0,0,1,.07-.05" transform="translate(0.04 -0.17)" style="fill:#949191"/><path d="M297.38,252.43v2.44l0,0v-2.44l0,0" transform="translate(0.04 -0.17)" style="fill:#8f8d8d"/><path d="M297.35,252.46v2.44l0,0v-2.44l0,0" transform="translate(0.04 -0.17)" style="fill:#8b8989"/><path d="M297.33,252.49v2.44s0,0,0,0v-2.44s0,0,0,0" transform="translate(0.04 -0.17)" style="fill:#878484"/><path d="M297.32,252.52V255s0,0,0,0v-2.47" transform="translate(0.04 -0.17)" style="fill:#838080"/><path d="M297.31,252.54v0" transform="translate(0.04 -0.17)" style="fill:#7f7c7c"/><polyline points="297.34 252.41 297.34 254.85 297.34 254.85 297.34 252.41 297.34 252.41" style="fill:#7a7878"/></g></g></g><polygon points="484.34 144.44 484.34 146.88 298.19 255.06 298.2 252.62 484.34 144.44" style="fill:#7b7b85"/><path d="M484.3,144.19c.2.12.2.3,0,.42L298.16,252.78a.8.8,0,0,1-.71,0c-.19-.11-.19-.29,0-.41L483.6,144.2A.75.75,0,0,1,484.3,144.19Z" transform="translate(0.04 -0.17)" style="fill:#898995"/><g style="isolation:isolate"><g style="clip-path:url(#ap)"><g style="isolation:isolate"><path d="M298.16,252.78v2.45l-.1.05v-2.45l.11-.05" transform="translate(0.04 -0.17)" style="fill:#72727d"/><path d="M298.05,252.83v2.45l-.1,0v-2.45l.09,0" transform="translate(0.04 -0.17)" style="fill:#6f6f79"/><path d="M298,252.85v2.45h-.06v-2.45H298" transform="translate(0.04 -0.17)" style="fill:#6c6c76"/><path d="M297.9,252.86v2.45h-.05v-2.44h.06" transform="translate(0.04 -0.17)" style="fill:#696972"/><path d="M297.84,252.87v2.44h-.06v-2.44h0" transform="translate(0.04 -0.17)" style="fill:#66666f"/><path d="M297.79,252.87v2.44h0v-2.45h.05" transform="translate(0.04 -0.17)" style="fill:#63636b"/><path d="M297.74,252.86v2.45h0v-2.44h.05" transform="translate(0.04 -0.17)" style="fill:#5f5f68"/><path d="M297.69,252.86v2.44h-.06v-2.44h.05" transform="translate(0.04 -0.17)" style="fill:#5c5c64"/><path d="M297.64,252.85v2.44h-.05v-2.44h.05" transform="translate(0.04 -0.17)" style="fill:#595961"/><path d="M297.59,252.84v2.44l-.06,0v-2.44l.06,0" transform="translate(0.04 -0.17)" style="fill:#56565d"/><path d="M297.53,252.82v2.44l-.07,0a.25.25,0,0,1-.15-.21v-2.44a.26.26,0,0,0,.14.2l.08,0" transform="translate(0.04 -0.17)" style="fill:#53535a"/></g></g></g><polygon points="412.83 205.84 412.83 208.29 315.32 264.95 315.33 262.51 412.83 205.84" style="fill:#a3a0a0"/><g style="isolation:isolate"><g style="clip-path:url(#aq)"><g style="isolation:isolate"><polyline points="315.33 262.51 315.32 264.95 315.31 264.95 315.32 262.51 315.33 262.51" style="fill:#989595"/><path d="M315.28,262.68v2.44s0,0-.06.05v-2.45l.06,0" transform="translate(0.04 -0.17)" style="fill:#949191"/><path d="M315.22,262.72v2.45l0,0v-2.44l0,0" transform="translate(0.04 -0.17)" style="fill:#8f8d8d"/><path d="M315.19,262.76v2.44l0,0v-2.45l0,0" transform="translate(0.04 -0.17)" style="fill:#8b8989"/><path d="M315.17,262.78v2.45l0,0v-2.45s0,0,0,0" transform="translate(0.04 -0.17)" style="fill:#878484"/><path d="M315.16,262.81v2.45a0,0,0,0,1,0,0v-2.48" transform="translate(0.04 -0.17)" style="fill:#838080"/><path d="M315.15,262.84v0" transform="translate(0.04 -0.17)" style="fill:#7f7c7c"/><polyline points="315.18 262.7 315.18 265.15 315.18 265.15 315.18 262.71 315.18 262.7" style="fill:#7a7878"/></g></g></g><polygon points="413.55 206.25 413.54 208.7 316.04 265.36 316.04 262.92 413.55 206.25" style="fill:#7b7b85"/><g style="isolation:isolate"><g style="clip-path:url(#ar)"><g style="isolation:isolate"><path d="M316,263.09v2.44l-.11.05v-2.45l.11,0" transform="translate(0.04 -0.17)" style="fill:#72727d"/><path d="M315.9,263.13v2.45l-.09,0v-2.44l.09,0" transform="translate(0.04 -0.17)" style="fill:#6f6f79"/><path d="M315.81,263.16v2.44h-.06v-2.45h.07" transform="translate(0.04 -0.17)" style="fill:#6c6c76"/><path d="M315.74,263.16v2.45h-.06v-2.44h.05" transform="translate(0.04 -0.17)" style="fill:#696972"/><path d="M315.69,263.17v2.44h-.05v-2.44h.05" transform="translate(0.04 -0.17)" style="fill:#66666f"/><path d="M315.64,263.17v2.44h-.05v-2.44h.05" transform="translate(0.04 -0.17)" style="fill:#63636b"/><path d="M315.59,263.17v2.44h-.05v-2.45h0" transform="translate(0.04 -0.17)" style="fill:#5f5f68"/><path d="M315.54,263.16v2.45h0v-2.45h.05" transform="translate(0.04 -0.17)" style="fill:#5c5c64"/><path d="M315.49,263.15v2.45l-.05,0v-2.44h.06" transform="translate(0.04 -0.17)" style="fill:#595961"/><path d="M315.43,263.14v2.44l-.06,0v-2.44l.06,0" transform="translate(0.04 -0.17)" style="fill:#56565d"/><path d="M315.37,263.12v2.44l-.08,0a.27.27,0,0,1-.15-.21v-2.45a.24.24,0,0,0,.15.21l.07,0" transform="translate(0.04 -0.17)" style="fill:#53535a"/></g></g></g><path d="M413.5,206c.2.12.21.3,0,.41L316,263.09a.77.77,0,0,1-.71,0,.22.22,0,0,1,0-.41L412.8,206A.75.75,0,0,1,413.5,206Z" transform="translate(0.04 -0.17)" style="fill:#898995"/><path d="M635.33,180.46c4.91,2.83,4.93,7.47.06,10.3L378.33,340.14c-4.87,2.84-12.87,2.84-17.78,0L3.67,134.1c-4.91-2.83-4.94-7.47-.06-10.3L216.35.17,261,25.92c4.91,2.84,12.91,2.84,17.79,0L323.06.17Zm-355,62L466.46,134.3c.2-.11.2-.29,0-.41a.77.77,0,0,0-.71,0L279.61,242.07a.22.22,0,0,0,0,.41.78.78,0,0,0,.7,0m17.85,10.3L484.31,144.61c.19-.12.19-.3,0-.42a.75.75,0,0,0-.7,0L297.45,252.37c-.19.12-.2.3,0,.41a.8.8,0,0,0,.71,0m-160.6-92.72L323.71,51.88c.19-.11.2-.29,0-.4a.75.75,0,0,0-.71,0L136.85,159.65a.22.22,0,0,0,0,.41.75.75,0,0,0,.7,0m124.91,72.12L448.62,124a.22.22,0,0,0,0-.41.8.8,0,0,0-.71,0L261.76,231.77c-.19.11-.19.29,0,.41a.78.78,0,0,0,.7,0M191.1,191,377.24,82.79a.22.22,0,0,0,0-.41.8.8,0,0,0-.71,0L190.39,190.56a.22.22,0,0,0,0,.41.81.81,0,0,0,.71,0m-35.7-20.61L341.55,62.19c.2-.12.2-.3,0-.41a.75.75,0,0,0-.71,0L154.7,170c-.19.12-.19.3,0,.41a.75.75,0,0,0,.7,0m89.22,51.51L430.77,113.7c.2-.12.2-.3,0-.41a.8.8,0,0,0-.71,0L243.92,221.47c-.19.11-.19.29,0,.41a.75.75,0,0,0,.7,0m-71.37-41.2L359.4,72.49a.22.22,0,0,0,0-.41.78.78,0,0,0-.7,0L172.54,180.26a.21.21,0,0,0,0,.4.77.77,0,0,0,.71,0M316,263.09l97.51-56.67c.2-.11.19-.29,0-.41a.75.75,0,0,0-.7,0l-97.51,56.66a.22.22,0,0,0,0,.41.75.75,0,0,0,.7,0M208.94,201.27l97.51-56.66c.19-.12.19-.3,0-.41a.73.73,0,0,0-.7,0l-97.51,56.66a.22.22,0,0,0,0,.41.8.8,0,0,0,.71,0" transform="translate(0.04 -0.17)" style="fill:#b6b2b2"/><path d="M323.71,51.48c.2.11.19.29,0,.41L137.56,160.06a.75.75,0,0,1-.7,0,.22.22,0,0,1,0-.41L323,51.48A.75.75,0,0,1,323.71,51.48Z" transform="translate(0.04 -0.17)" style="fill:#898995"/><path d="M341.56,61.78c.19.11.19.29,0,.41L155.41,170.36a.73.73,0,0,1-.7,0c-.2-.11-.2-.29,0-.4L340.84,61.78A.76.76,0,0,1,341.56,61.78Z" transform="translate(0.04 -0.17)" style="fill:#898995"/><g style="isolation:isolate"><g style="clip-path:url(#as)"><g style="isolation:isolate"><path d="M639,185.64v0" transform="translate(0.04 -0.17)" style="fill:#7a7878"/><path d="M639,185.76v2.44a4.53,4.53,0,0,1-.08.73v-2.45a4.43,4.43,0,0,0,.09-.72" transform="translate(0.04 -0.17)" style="fill:#7f7c7c"/><path d="M638.94,186.48v2.45a4.77,4.77,0,0,1-.21.71v-2.45a3.58,3.58,0,0,0,.2-.71" transform="translate(0.04 -0.17)" style="fill:#838080"/><path d="M638.74,187.19v2.45a5.76,5.76,0,0,1-.33.72v-2.45a3.94,3.94,0,0,0,.34-.72" transform="translate(0.04 -0.17)" style="fill:#878484"/><path d="M638.4,187.91v2.45a8.29,8.29,0,0,1-.51.75v-2.45a5.15,5.15,0,0,0,.5-.75" transform="translate(0.04 -0.17)" style="fill:#8b8989"/><path d="M637.9,188.66v2.45a6.76,6.76,0,0,1-.78.84V189.5a7.62,7.62,0,0,0,.78-.84" transform="translate(0.04 -0.17)" style="fill:#8f8d8d"/><path d="M637.12,189.5V192a9.4,9.4,0,0,1-1.57,1.16v-2.44a10.12,10.12,0,0,0,1.58-1.17" transform="translate(0.04 -0.17)" style="fill:#949191"/><path d="M635.54,190.67v2.44l-.16.09v-2.44l.15-.09" transform="translate(0.04 -0.17)" style="fill:#989595"/></g></g></g><path d="M377.24,82.38c.2.12.2.3,0,.41L191.1,191a.8.8,0,0,1-.71,0,.22.22,0,0,1,0-.41L376.53,82.38A.8.8,0,0,1,377.24,82.38Z" transform="translate(0.04 -0.17)" style="fill:#898995"/><path d="M306.44,144.2c.2.11.2.29,0,.41l-97.51,56.66a.8.8,0,0,1-.71,0,.22.22,0,0,1,0-.41l97.51-56.66A.73.73,0,0,1,306.44,144.2Z" transform="translate(0.04 -0.17)" style="fill:#898995"/><path d="M430.78,113.29c.19.11.19.29,0,.41L244.62,221.88a.78.78,0,0,1-.7,0c-.19-.12-.19-.3,0-.41L430.06,113.29A.83.83,0,0,1,430.78,113.29Z" transform="translate(0.04 -0.17)" style="fill:#898995"/><path d="M466.46,133.89c.2.12.2.3,0,.41L280.32,242.48a.81.81,0,0,1-.71,0,.22.22,0,0,1,0-.41L465.75,133.9A.77.77,0,0,1,466.46,133.89Z" transform="translate(0.04 -0.17)" style="fill:#898995"/><polygon points="635.43 190.59 635.42 193.03 378.36 342.42 378.37 339.98 635.43 190.59" style="fill:#a3a0a0"/><polygon points="360.58 339.98 360.58 342.42 3.7 136.38 3.71 133.94 360.58 339.98" style="fill:#716f6f"/><g style="isolation:isolate"><g style="clip-path:url(#at)"><g style="isolation:isolate"><path d="M378.33,340.14v2.45a14.75,14.75,0,0,1-2.74,1.2v-2.44a13.62,13.62,0,0,0,2.74-1.21" transform="translate(0.04 -0.17)" style="fill:#989595"/><path d="M375.59,341.35v2.44a18.16,18.16,0,0,1-2.39.6v-2.45a19.71,19.71,0,0,0,2.38-.59" transform="translate(0.04 -0.17)" style="fill:#949191"/><path d="M373.21,341.94v2.45c-.53.09-1.06.17-1.61.22v-2.45c.54-.05,1.08-.12,1.61-.22" transform="translate(0.04 -0.17)" style="fill:#8f8d8d"/><path d="M371.6,342.16v2.45c-.46.05-.93.08-1.4.09v-2.44c.47,0,.94-.05,1.4-.1" transform="translate(0.04 -0.17)" style="fill:#8b8989"/><path d="M370.2,342.26v2.44c-.43,0-.86,0-1.3,0v-2.45h1.3" transform="translate(0.04 -0.17)" style="fill:#878484"/><path d="M368.9,342.26v2.45c-.41,0-.83,0-1.24-.07V342.2c.42,0,.83.05,1.25.06" transform="translate(0.04 -0.17)" style="fill:#838080"/><path d="M367.65,342.2v2.44c-.42,0-.83-.08-1.23-.13v-2.45c.4.06.81.1,1.22.14" transform="translate(0.04 -0.17)" style="fill:#7f7c7c"/><path d="M366.43,342.06v2.45c-.42-.06-.84-.14-1.25-.22v-2.45c.41.09.82.16,1.25.22" transform="translate(0.04 -0.17)" style="fill:#7a7878"/><path d="M365.18,341.84v2.45c-.45-.09-.88-.2-1.31-.32v-2.45c.42.12.86.23,1.31.32" transform="translate(0.04 -0.17)" style="fill:#767474"/><path d="M363.87,341.52V344a15.1,15.1,0,0,1-1.52-.52V341q.74.28,1.53.51" transform="translate(0.04 -0.17)" style="fill:#727070"/><path d="M362.34,341v2.44a12.45,12.45,0,0,1-1.8-.86v-2.44a14.09,14.09,0,0,0,1.79.86" transform="translate(0.04 -0.17)" style="fill:#6e6c6c"/></g></g></g></g></svg>