<svg xmlns="http://www.w3.org/2000/svg" xmlns:xlink="http://www.w3.org/1999/xlink" viewBox="0 0 639.06 344.54"><defs><clipPath id="a"><path d="M278.78,25.76v2.45C273.9,31,265.9,31,261,28.21V25.76C265.89,28.59,273.9,28.59,278.78,25.76Z" style="fill:none"/></clipPath><clipPath id="b"><path d="M323.89,51.52V54a.25.25,0,0,0-.15-.21.75.75,0,0,0-.71,0V51.31a.81.81,0,0,1,.71,0A.27.27,0,0,1,323.89,51.52Z" style="fill:none"/></clipPath><clipPath id="c"><path d="M323.89,51.52V54a.25.25,0,0,1-.14.2V51.72A.22.22,0,0,0,323.89,51.52Z" style="fill:none"/></clipPath><clipPath id="d"><path d="M341.73,61.82v2.44a.25.25,0,0,0-.14-.2.81.81,0,0,0-.71,0V61.61a.78.78,0,0,1,.7,0A.25.25,0,0,1,341.73,61.82Z" style="fill:none"/></clipPath><clipPath id="e"><path d="M341.73,61.82v2.45a.25.25,0,0,1-.14.2V62A.25.25,0,0,0,341.73,61.82Z" style="fill:none"/></clipPath><clipPath id="f"><path d="M359.57,72.12v2.45a.24.24,0,0,0-.14-.21.81.81,0,0,0-.71,0V71.91a.75.75,0,0,1,.71,0A.26.26,0,0,1,359.57,72.12Z" style="fill:none"/></clipPath><clipPath id="g"><path d="M359.57,72.12v2.45a.25.25,0,0,1-.14.2V72.32A.22.22,0,0,0,359.57,72.12Z" style="fill:none"/></clipPath><clipPath id="h"><path d="M377.26,84.66a.78.78,0,0,0-.7,0V82.22a.78.78,0,0,1,.7,0l.07,0v2.44Z" style="fill:none"/></clipPath><clipPath id="i"><path d="M377.33,84.71V82.27a.21.21,0,0,1,.08.16v2.44A.25.25,0,0,0,377.33,84.71Z" style="fill:none"/></clipPath><clipPath id="j"><path d="M377.42,82.4v2.44a.22.22,0,0,1-.14.2V82.6A.2.2,0,0,0,377.42,82.4Z" style="fill:none"/></clipPath><clipPath id="k"><path d="M431,113.33v2.45a.25.25,0,0,0-.15-.21.78.78,0,0,0-.7,0v-2.45a.75.75,0,0,1,.71,0A.24.24,0,0,1,431,113.33Z" style="fill:none"/></clipPath><clipPath id="l"><path d="M431,113.33v2.45a.25.25,0,0,1-.14.2v-2.45A.25.25,0,0,0,431,113.33Z" style="fill:none"/></clipPath><clipPath id="m"><path d="M448.79,123.63v2.45a.24.24,0,0,0-.14-.21.81.81,0,0,0-.71,0V123.4a.75.75,0,0,1,.71,0A.24.24,0,0,1,448.79,123.63Z" style="fill:none"/></clipPath><clipPath id="n"><path d="M448.79,123.63v2.45a.22.22,0,0,1-.14.2v-2.45A.22.22,0,0,0,448.79,123.63Z" style="fill:none"/></clipPath><clipPath id="o"><path d="M466.64,133.94v2.46a.27.27,0,0,0-.15-.21.78.78,0,0,0-.7,0v-2.44a.78.78,0,0,1,.7,0A.24.24,0,0,1,466.64,133.94Z" style="fill:none"/></clipPath><clipPath id="p"><path d="M466.63,133.94v2.46a.22.22,0,0,1-.14.2v-2.44A.24.24,0,0,0,466.63,133.94Z" style="fill:none"/></clipPath><clipPath id="q"><path d="M0,131.2v-2.45c0,1.88,1.22,3.76,3.69,5.19v2.46C1.23,135,0,133.08,0,131.2Z" style="fill:none"/></clipPath><clipPath id="r"><path d="M484.48,144.24v2.45a.23.23,0,0,0-.15-.21.78.78,0,0,0-.7,0V144a.78.78,0,0,1,.7,0A.25.25,0,0,1,484.48,144.24Z" style="fill:none"/></clipPath><clipPath id="s"><path d="M484.48,144.24v2.45a.25.25,0,0,1-.14.2V144.4A.25.25,0,0,0,484.48,144.24Z" style="fill:none"/></clipPath><clipPath id="t"><path d="M306.62,144.24v2.45a.25.25,0,0,0-.15-.21.73.73,0,0,0-.7,0V144a.78.78,0,0,1,.7,0A.27.27,0,0,1,306.62,144.24Z" style="fill:none"/></clipPath><clipPath id="u"><path d="M306.62,144.24v2.45a.25.25,0,0,1-.14.2V144.4A.25.25,0,0,0,306.62,144.24Z" style="fill:none"/></clipPath><clipPath id="v"><path d="M136.74,162.13v-2.44a.22.22,0,0,1,.14-.2v2.44A.25.25,0,0,0,136.74,162.13Z" style="fill:none"/></clipPath><clipPath id="w"><path d="M136.74,162.13v-2.44a.24.24,0,0,0,.15.2.75.75,0,0,0,.71,0v2.44a.78.78,0,0,1-.7,0A.24.24,0,0,1,136.74,162.13Z" style="fill:none"/></clipPath><clipPath id="x"><path d="M154.58,172.4V170a.22.22,0,0,1,.14-.2v2.44A.25.25,0,0,0,154.58,172.4Z" style="fill:none"/></clipPath><clipPath id="y"><path d="M154.58,172.4V170a.27.27,0,0,0,.15.21.78.78,0,0,0,.7,0v2.44a.78.78,0,0,1-.7,0A.23.23,0,0,1,154.58,172.4Z" style="fill:none"/></clipPath><clipPath id="z"><path d="M172.43,182.74v-2.45a.25.25,0,0,1,.14-.2v2.45A.22.22,0,0,0,172.43,182.74Z" style="fill:none"/></clipPath><clipPath id="aa"><path d="M172.43,182.74v-2.45a.25.25,0,0,0,.15.21.78.78,0,0,0,.7,0V183a.78.78,0,0,1-.7,0A.27.27,0,0,1,172.43,182.74Z" style="fill:none"/></clipPath><clipPath id="ab"><path d="M190.41,192.84a.25.25,0,0,0-.14.2v-2.45a.25.25,0,0,1,.14-.2C190.42,191.13,190.41,192.11,190.41,192.84Z" style="fill:none"/></clipPath><clipPath id="ac"><path d="M190.27,193V190.6a.25.25,0,0,0,.14.2.81.81,0,0,0,.71,0v2.45a.81.81,0,0,1-.71,0A.26.26,0,0,1,190.27,193Z" style="fill:none"/></clipPath><clipPath id="ad"><path d="M208.11,203.34V200.9a.25.25,0,0,1,.14-.2v2.44A.26.26,0,0,0,208.11,203.34Z" style="fill:none"/></clipPath><clipPath id="ae"><path d="M208.11,203.34V200.9a.24.24,0,0,0,.15.2.73.73,0,0,0,.7,0v2.44a.81.81,0,0,1-.71,0A.25.25,0,0,1,208.11,203.34Z" style="fill:none"/></clipPath><clipPath id="af"><path d="M413.53,208.29a.78.78,0,0,0-.7,0v-2.44a.73.73,0,0,1,.7,0,.23.23,0,0,1,.15.21v2.44A.27.27,0,0,0,413.53,208.29Z" style="fill:none"/></clipPath><clipPath id="ag"><path d="M413.69,206.05v2.45a.25.25,0,0,1-.14.2v-2.45A.22.22,0,0,0,413.69,206.05Z" style="fill:none"/></clipPath><clipPath id="ah"><path d="M243.8,223.94V221.5a.22.22,0,0,1,.14-.2v2.44A.25.25,0,0,0,243.8,223.94Z" style="fill:none"/></clipPath><clipPath id="ai"><path d="M243.8,223.94V221.5a.27.27,0,0,0,.15.21.78.78,0,0,0,.7,0v2.44a.78.78,0,0,1-.7,0A.23.23,0,0,1,243.8,223.94Z" style="fill:none"/></clipPath><clipPath id="aj"><path d="M261.79,234.05a.22.22,0,0,0-.14.2V231.8a.25.25,0,0,1,.14-.2Z" style="fill:none"/></clipPath><clipPath id="ak"><path d="M261.65,234.25V231.8a.25.25,0,0,0,.15.21.78.78,0,0,0,.7,0v2.45a.78.78,0,0,1-.7,0A.25.25,0,0,1,261.65,234.25Z" style="fill:none"/></clipPath><clipPath id="al"><path d="M279.49,244.55v-2.44a.24.24,0,0,1,.14-.21v2.5A.23.23,0,0,0,279.49,244.55Z" style="fill:none"/></clipPath><clipPath id="am"><path d="M279.49,244.55v-2.44a.25.25,0,0,0,.14.2.81.81,0,0,0,.71,0v2.45a.81.81,0,0,1-.71,0A.26.26,0,0,1,279.49,244.55Z" style="fill:none"/></clipPath><clipPath id="an"><path d="M297.48,254.65a.28.28,0,0,0-.15.2V252.4a.25.25,0,0,1,.14-.2Z" style="fill:none"/></clipPath><clipPath id="ao"><path d="M297.33,254.85V252.4a.24.24,0,0,0,.15.2.73.73,0,0,0,.7,0V255a.81.81,0,0,1-.71,0A.25.25,0,0,1,297.33,254.85Z" style="fill:none"/></clipPath><clipPath id="ap"><path d="M315.32,265a.22.22,0,0,0-.14.2v-2.45c0-.07.05-.14.15-.2Z" style="fill:none"/></clipPath><clipPath id="aq"><path d="M315.18,265.16v-2.45a.25.25,0,0,0,.15.21.81.81,0,0,0,.71,0v2.48a.75.75,0,0,1-.71,0A.27.27,0,0,1,315.18,265.16Z" style="fill:none"/></clipPath><clipPath id="ar"><path d="M639.06,185.48v2.44c0,1.86-1.22,3.71-3.65,5.12v-2.45C637.84,189.19,639.06,187.33,639.06,185.48Z" style="fill:none"/></clipPath><clipPath id="as"><path d="M378.37,340v2.42c-4.88,2.84-12.88,2.84-17.79,0V340C365.49,342.81,373.49,342.81,378.37,340Z" style="fill:none"/></clipPath></defs><polygon points="323.1 0 323.09 2.45 278.77 28.2 278.78 25.76 323.1 0" style="fill:#b5b5b5"/><polygon points="260.99 25.76 260.98 28.21 216.38 2.45 216.38 0.01 260.99 25.76" style="fill:#7e7e7e"/><path d="M323.1,0,278.78,25.76c-4.88,2.83-12.89,2.83-17.79,0L216.38,0Z" style="fill:#cacaca"/><g style="clip-path:url(#a)"><path d="M278.78,25.76v2.45A14.55,14.55,0,0,1,276,29.4V27a14.51,14.51,0,0,0,2.74-1.2" style="fill:#a8a8a8"/><path d="M276,27V29.4a17.6,17.6,0,0,1-2.38.59V27.56A19.27,19.27,0,0,0,276,27" style="fill:#a4a4a4"/><path d="M273.66,27.56V30c-.53.1-1.07.17-1.61.23V27.78a9.74,9.74,0,0,0,1.61-.22" style="fill:#9f9f9f"/><path d="M272.05,27.78v2.45c-.47,0-.93.07-1.41.09V27.87a11.12,11.12,0,0,0,1.41-.09" style="fill:#9a9a9a"/><path d="M270.64,27.87v2.45h-1.29V27.88h1.3" style="fill:#969696"/><path d="M269.34,27.88v2.45l-1.25-.07V27.81c.41,0,.83.06,1.24.07" style="fill:#919191"/><path d="M268.1,27.81v2.45a8.58,8.58,0,0,1-1.23-.14V27.68c.4,0,.81.1,1.23.13" style="fill:#8c8c8c"/><path d="M266.87,27.68v2.44c-.42-.06-.84-.13-1.25-.22V27.46c.41.08.83.16,1.25.22" style="fill:#888"/><path d="M265.62,27.46V29.9c-.45-.09-.88-.2-1.31-.32V27.14c.42.12.86.23,1.31.32" style="fill:#838383"/><path d="M264.31,27.14v2.44c-.52-.15-1-.32-1.52-.51V26.62a13.61,13.61,0,0,0,1.52.52" style="fill:#7e7e7e"/><path d="M262.79,26.62v2.45a14.85,14.85,0,0,1-1.8-.86V25.76a13.49,13.49,0,0,0,1.8.86" style="fill:#7a7a7a"/></g><g style="clip-path:url(#b)"><path d="M323.89,51.52V54a.25.25,0,0,0-.15-.21h-.07V51.28h.08a.27.27,0,0,1,.15.21" style="fill:#858585"/><path d="M323.66,51.28v2.44h-.06V51.26h.06" style="fill:#8a8a8a"/><path d="M323.6,51.26V53.7h-.06V51.24h0" style="fill:#8f8f8f"/><path d="M323.55,51.24v2.45h-.05V51.23h.05" style="fill:#949494"/><path d="M323.5,51.23v2.45h-.05V51.23h.05" style="fill:#999"/><path d="M323.45,51.23v2.44h-.05V51.23h.05" style="fill:#9e9e9e"/><path d="M323.4,51.23v2.44h0V51.23h0" style="fill:#a3a3a3"/><path d="M323.35,51.23v2.44h0V51.23h.06" style="fill:#a8a8a8"/><path d="M323.29,51.23v2.45h-.07V51.24h.06" style="fill:#adadad"/><path d="M323.23,51.24v2.44h-.09V51.26h.09" style="fill:#b3b3b3"/><path d="M323.14,51.26v2.45H323v-2.4h.11" style="fill:#b8b8b8"/></g><g style="clip-path:url(#c)"><polyline points="323.89 51.52 323.88 53.96 323.88 53.97 323.89 51.52 323.89 51.52" style="fill:#5c5c64"/><path d="M323.89,51.53h0" style="fill:#5f5f68"/><path d="M323.88,51.56V54h0V51.56" style="fill:#63636b"/><path d="M323.88,51.58V54h0V51.61h0" style="fill:#66666f"/><path d="M323.86,51.61v2.45h0V51.64h0" style="fill:#696972"/><path d="M323.84,51.64v2.45h0V51.67h0" style="fill:#6c6c76"/><path d="M323.81,51.67v2.45h-.07v-2.4h.06" style="fill:#6f6f79"/><polyline points="323.75 51.72 323.74 54.16 323.74 54.16 323.75 51.72 323.75 51.72" style="fill:#72727d"/></g><g style="clip-path:url(#d)"><path d="M341.73,61.82v2.44a.25.25,0,0,0-.14-.2h-.08V61.58h.07a.25.25,0,0,1,.15.21" style="fill:#858585"/><path d="M341.51,61.58V64h-.06V61.56h.06" style="fill:#8a8a8a"/><path d="M341.45,61.56V64h-.05V61.55h.06" style="fill:#8f8f8f"/><path d="M341.39,61.55V64h-.05V61.54h.05" style="fill:#949494"/><path d="M341.34,61.54V64h0V61.53h0" style="fill:#999"/><path d="M341.29,61.53V64h-.05V61.53h0" style="fill:#9e9e9e"/><path d="M341.25,61.53V64h-.05V61.53h.06" style="fill:#a3a3a3"/><path d="M341.19,61.53V64h-.06V61.53h.05" style="fill:#a8a8a8"/><path d="M341.14,61.53V64h-.06V61.54h.07" style="fill:#adadad"/><path d="M341.07,61.54V64H341V61.56h.09" style="fill:#b3b3b3"/><path d="M341,61.56V64h-.1v-2.4h.1" style="fill:#b8b8b8"/></g><g style="clip-path:url(#e)"><polyline points="341.73 61.82 341.72 64.26 341.72 64.27 341.73 61.82 341.73 61.82" style="fill:#5c5c64"/><path d="M341.73,61.82h0" style="fill:#5f5f68"/><path d="M341.72,61.85V64.3h0V61.88h0" style="fill:#63636b"/><path d="M341.71,61.88v2.45h0V61.91h0" style="fill:#66666f"/><path d="M341.7,61.91V64.4h0V61.94h0" style="fill:#696972"/><path d="M341.68,61.94V64.4h0V62h0" style="fill:#6c6c76"/><path d="M341.65,62V64.4h-.06V62l.06-.05" style="fill:#6f6f79"/><polyline points="341.59 62.01 341.58 64.46 341.58 64.46 341.58 62.02 341.59 62.01" style="fill:#72727d"/></g><g style="clip-path:url(#f)"><path d="M359.57,72.12v2.45a.24.24,0,0,0-.14-.21h-.07V71.91h.08a.25.25,0,0,1,.14.2" style="fill:#858585"/><path d="M359.35,71.88v2.45h-.06V71.88h.06" style="fill:#8a8a8a"/><path d="M359.29,71.86v2.45h-.06V71.87h0" style="fill:#8f8f8f"/><path d="M359.24,71.85v2.44h-.05V71.84h.05" style="fill:#949494"/><path d="M359.19,71.84v2.45h-.05V71.84h.05" style="fill:#999"/><path d="M359.14,71.83v2.45h-.05V71.83h.05" style="fill:#9e9e9e"/><path d="M359.09,71.83v2.45H359V71.83h0" style="fill:#a3a3a3"/><path d="M359,71.83v2.45h0V71.84h0" style="fill:#a8a8a8"/><path d="M359,71.84v2.44h-.07V71.83H359" style="fill:#adadad"/><path d="M358.92,71.84v2.45h-.09V71.85h.09" style="fill:#b3b3b3"/><path d="M358.83,71.87v2.44h-.11V71.86h.11" style="fill:#b8b8b8"/></g><g style="clip-path:url(#g)"><polyline points="359.57 72.12 359.56 74.56 359.56 74.57 359.57 72.12 359.57 72.12" style="fill:#5c5c64"/><path d="M359.57,72.13h0" style="fill:#5f5f68"/><path d="M359.57,72.16V74.6h0V72.13" style="fill:#63636b"/><path d="M359.56,72.18v2.45h0V72.18h0" style="fill:#66666f"/><path d="M359.55,72.21v2.45h0V72.21h0" style="fill:#696972"/><path d="M359.53,72.24v2.45h0V72.25h0" style="fill:#6c6c76"/><path d="M359.5,72.28v2.44l-.06,0V72.32h.06" style="fill:#6f6f79"/><polyline points="359.44 72.32 359.43 74.76 359.42 74.77 359.43 72.32 359.44 72.32" style="fill:#72727d"/></g><g style="clip-path:url(#h)"><path d="M377.42,82.4v2.44a.27.27,0,0,0-.15-.21h-.07V82.18h.07a.23.23,0,0,1,.15.21" style="fill:#858585"/><path d="M377.2,82.18v2.45h-.06V82.18h.06" style="fill:#8a8a8a"/><path d="M377.14,82.16v2.45h-.05V82.16h.05" style="fill:#8f8f8f"/><path d="M377.09,82.15V84.6H377V82.15h0" style="fill:#949494"/><path d="M377,82.14v2.45h0V82.15h0" style="fill:#999"/><path d="M377,82.14v2.44H377V82.13H377" style="fill:#9e9e9e"/><path d="M376.94,82.13v2.45h-.05V82.13h.05" style="fill:#a3a3a3"/><path d="M376.89,82.13v2.45h-.06V82.14h.06" style="fill:#a8a8a8"/><path d="M376.83,82.14v2.44h-.06V82.14h.06" style="fill:#adadad"/><path d="M376.77,82.15v2.44h-.1V82.14h.1" style="fill:#b3b3b3"/><path d="M376.67,82.17v2.45h-.1V82.18a.17.17,0,0,1,.1,0" style="fill:#b8b8b8"/></g><g style="clip-path:url(#i)"><path d="M377.42,82.4v2.44a.27.27,0,0,0-.15-.21h-.07V82.18h.07a.23.23,0,0,1,.15.21" style="fill:#858585"/></g><g style="clip-path:url(#j)"><polyline points="377.42 82.42 377.41 84.87 377.41 84.87 377.42 82.43 377.42 82.42" style="fill:#5c5c64"/><path d="M377.42,82.4h0" style="fill:#5f5f68"/><path d="M377.41,82.46v2.45h0V82.47h0" style="fill:#63636b"/><path d="M377.4,82.49v2.44h0V82.49h0" style="fill:#66666f"/><path d="M377.39,82.52V85h0V82.52h0" style="fill:#696972"/><path d="M377.37,82.55V85h0V82.55h0" style="fill:#6c6c76"/><path d="M377.34,82.58V85h-.06V82.57h.06" style="fill:#6f6f79"/><polyline points="377.28 82.62 377.27 85.06 377.27 85.07 377.27 82.62 377.28 82.62" style="fill:#72727d"/></g><g style="clip-path:url(#k)"><path d="M431,113.33v2.45a.25.25,0,0,0-.15-.21h-.07v-2.45h.07a.24.24,0,0,1,.15.2" style="fill:#858585"/><path d="M430.73,113.09v2.45h-.06v-2.45h.06" style="fill:#8a8a8a"/><path d="M430.67,113.07v2.45h-.05v-2.44h.06" style="fill:#8f8f8f"/><path d="M430.61,113.06v2.44h-.05v-2.44h.05" style="fill:#949494"/><path d="M430.56,113.05v2.44h-.05V113h.05" style="fill:#999"/><path d="M430.51,113v2.45h-.05V113h.05" style="fill:#9e9e9e"/><path d="M430.46,113v2.45h0V113h0" style="fill:#a3a3a3"/><path d="M430.41,113v2.45h-.06V113h0" style="fill:#a8a8a8"/><path d="M430.36,113v2.45h-.06V113h.07" style="fill:#adadad"/><path d="M430.29,113.05v2.45h-.1v-2.44h.09" style="fill:#b3b3b3"/><path d="M430.2,113.08v2.44h-.1v-2.45h.11" style="fill:#b8b8b8"/></g><g style="clip-path:url(#l)"><polyline points="430.95 113.33 430.94 115.77 430.94 115.78 430.94 113.33 430.95 113.33" style="fill:#5c5c64"/><path d="M431,113.33h0" style="fill:#5f5f68"/><path d="M430.94,113.4v2.45h0V113.4h0" style="fill:#63636b"/><path d="M430.93,113.4v2.45h0V113.4h0" style="fill:#66666f"/><path d="M430.92,113.4v2.45h0V113.4h0" style="fill:#696972"/><path d="M430.9,113.45v2.45h0v-2.45h0" style="fill:#6c6c76"/><path d="M430.87,113.48v2.45h-.06v-2.44h.06" style="fill:#6f6f79"/><polyline points="430.81 113.53 430.8 115.97 430.8 115.97 430.8 113.53 430.81 113.53" style="fill:#72727d"/></g><g style="clip-path:url(#m)"><path d="M448.79,123.63v2.45a.24.24,0,0,0-.14-.21h-.07V123.4h.08a.25.25,0,0,1,.14.2" style="fill:#858585"/><path d="M448.57,123.4v2.45h-.07V123.4h.06" style="fill:#8a8a8a"/><path d="M448.51,123.4v2.45h-.05V123.4h.05" style="fill:#8f8f8f"/><path d="M448.46,123.4v2.45h0V123.4h0" style="fill:#949494"/><path d="M448.41,123.4v2.45h0V123.4h0" style="fill:#999"/><path d="M448.36,123.4v2.44h-.05v-2.45h.05" style="fill:#9e9e9e"/><path d="M448.31,123.34v2.45h-.05v-2.45h.05" style="fill:#a3a3a3"/><path d="M448.26,123.34v2.45h-.06V123.4h.06" style="fill:#a8a8a8"/><path d="M448.2,123.4v2.44h-.06V123.4h.06" style="fill:#adadad"/><path d="M448.14,123.4v2.44h-.09V123.4h.1" style="fill:#b3b3b3"/><path d="M448,123.4v2.44l-.11,0V123.4h.1" style="fill:#b8b8b8"/></g><g style="clip-path:url(#n)"><polyline points="448.79 123.63 448.78 126.08 448.78 126.08 448.79 123.63 448.79 123.63" style="fill:#5c5c64"/><path d="M448.79,123.64h0" style="fill:#5f5f68"/><path d="M448.79,123.67v2.44h0V123.7h0" style="fill:#63636b"/><path d="M448.78,123.7v2.44h0V123.7" style="fill:#66666f"/><path d="M448.77,123.72v2.45h0v-2.45h0" style="fill:#696972"/><path d="M448.75,123.75v2.45h0v-2.44h0" style="fill:#6c6c76"/><path d="M448.72,123.79v2.44h-.06v-2.45h.07" style="fill:#6f6f79"/><polyline points="448.65 123.83 448.65 126.27 448.64 126.28 448.65 123.83 448.65 123.83" style="fill:#72727d"/></g><g style="clip-path:url(#o)"><path d="M466.64,133.94v2.46a.27.27,0,0,0-.15-.21h-.07v-2.45h.07a.25.25,0,0,1,.15.21" style="fill:#858585"/><path d="M466.42,133.69v2.45h-.06v-2.45h.06" style="fill:#8a8a8a"/><path d="M466.36,133.67v2.45h-.05v-2.45h.05" style="fill:#8f8f8f"/><path d="M466.31,133.66v2.45h-.05v-2.45h.05" style="fill:#949494"/><path d="M466.26,133.65v2.45h-.05v-2.44h.05" style="fill:#999"/><path d="M466.21,133.65v2.44h0v-2.44h0" style="fill:#9e9e9e"/><path d="M466.16,133.65v2.44h0v-2.44h0" style="fill:#a3a3a3"/><path d="M466.11,133.65v2.44H466v-2.44h.06" style="fill:#a8a8a8"/><path d="M466.05,133.65v2.44H466v-2.44h.06" style="fill:#adadad"/><path d="M466,133.66v2.44h-.1v-2.45h.1" style="fill:#b3b3b3"/><path d="M465.89,133.68v2.45h-.1v-2.44l.1-.05" style="fill:#b8b8b8"/></g><g style="clip-path:url(#p)"><polyline points="466.63 133.93 466.63 136.38 466.63 136.38 466.63 133.94 466.63 133.93" style="fill:#5c5c64"/><path d="M466.63,133.94v2.46h0v-2.48" style="fill:#5f5f68"/><path d="M466.63,134h0" style="fill:#63636b"/><path d="M466.62,134v2.4h0V134h0" style="fill:#66666f"/><path d="M466.61,134v2.44h0V134h0" style="fill:#696972"/><path d="M466.59,134.06v2.44h0v-2.44h0" style="fill:#6c6c76"/><path d="M466.56,134.09v2.44a.1.1,0,0,1-.06.05v-2.45h.06" style="fill:#6f6f79"/><polyline points="466.5 134.13 466.49 136.58 466.49 136.58 466.49 134.13 466.5 134.13" style="fill:#72727d"/></g><g style="clip-path:url(#q)"><path d="M3.7,133.94v2.46C1.23,135,0,133.08,0,131.2v-2.45c0,1.88,1.22,3.76,3.69,5.19" style="fill:#858585"/></g><g style="clip-path:url(#r)"><path d="M484.48,144.24v2.45a.23.23,0,0,0-.15-.21h-.07V144h.07a.25.25,0,0,1,.15.21" style="fill:#858585"/><path d="M484.26,144v2.4h-.05V144h.06" style="fill:#8a8a8a"/><path d="M484.2,144v2.42h-.06V144h.05" style="fill:#8f8f8f"/><path d="M484.15,144v2.44h0V144h0" style="fill:#949494"/><path d="M484.1,144v2.44h0V144h0" style="fill:#999"/><path d="M484.05,144v2.45H484V144h.05" style="fill:#9e9e9e"/><path d="M484,144v2.45H484V144H484" style="fill:#a3a3a3"/><path d="M484,144v2.45H484V144H484" style="fill:#a8a8a8"/><path d="M483.89,144v2.45h-.07V144h.06" style="fill:#adadad"/><path d="M483.83,144v2.44h-.09V144h.09" style="fill:#b3b3b3"/><path d="M483.74,144v2.42l-.11,0V144h.11" style="fill:#b8b8b8"/></g><g style="clip-path:url(#s)"><polyline points="484.48 144.24 484.47 146.68 484.47 146.69 484.48 144.24 484.48 144.24" style="fill:#5c5c64"/><path d="M484.48,144.24h0" style="fill:#5f5f68"/><path d="M484.48,144.27v2.45h0V144.3h0" style="fill:#63636b"/><path d="M484.47,144.3v2.45h0V144.3h0" style="fill:#66666f"/><path d="M484.46,144.33v2.45h0V144.4h0" style="fill:#696972"/><path d="M484.44,144.4v2.44h0V144.4h0" style="fill:#6c6c76"/><path d="M484.41,144.4v2.45h-.06V144.4h.07" style="fill:#6f6f79"/><polyline points="484.35 144.43 484.34 146.88 484.33 146.88 484.34 144.44 484.35 144.43" style="fill:#72727d"/></g><g style="clip-path:url(#t)"><path d="M306.62,144.24v2.45a.25.25,0,0,0-.15-.21h-.07V144h.07a.27.27,0,0,1,.15.21" style="fill:#858585"/><path d="M306.4,144v2.4h-.06V144h.06" style="fill:#8a8a8a"/><path d="M306.34,144v2.42h0V144h0" style="fill:#8f8f8f"/><path d="M306.29,144v2.44h0V144h0" style="fill:#949494"/><path d="M306.24,144v2.44h-.05V144h.05" style="fill:#999"/><path d="M306.19,144v2.45h0V144h.05" style="fill:#9e9e9e"/><path d="M306.14,144v2.45h-.05V144h.05" style="fill:#a3a3a3"/><path d="M306.09,144v2.45H306V144h0" style="fill:#a8a8a8"/><path d="M306,144v2.45h0V144h0" style="fill:#adadad"/><path d="M306,144v2.44h-.1V144h.1" style="fill:#b3b3b3"/><path d="M305.88,144v2.42l-.11,0V144h.11" style="fill:#b8b8b8"/></g><g style="clip-path:url(#u)"><polyline points="306.62 144.24 306.62 146.68 306.62 146.69 306.62 144.24 306.62 144.24" style="fill:#5c5c64"/><path d="M306.62,144.25h0" style="fill:#5f5f68"/><path d="M306.62,144.27v2.45h0V144.3h0" style="fill:#63636b"/><path d="M306.61,144.3v2.45h0V144.3h0" style="fill:#66666f"/><path d="M306.6,144.33v2.45h0V144.4h0" style="fill:#696972"/><path d="M306.58,144.4v2.45h0V144.4h0" style="fill:#6c6c76"/><path d="M306.55,144.4v2.45h-.06V144.4h.06" style="fill:#6f6f79"/><polyline points="306.49 144.43 306.48 146.88 306.47 146.88 306.48 144.44 306.49 144.43" style="fill:#72727d"/></g><polygon points="323.03 51.3 323.02 53.75 136.88 161.93 136.88 159.48 323.03 51.3" style="fill:#c5c5c5"/><g style="clip-path:url(#v)"><polyline points="136.88 159.48 136.88 161.93 136.87 161.93 136.88 159.49 136.88 159.48" style="fill:#b8b8b8"/><path d="M136.88,159.49v2.44l-.06,0v-2.45h.06" style="fill:#b3b3b3"/><path d="M136.82,159.53V162h0v-2.44h0" style="fill:#adadad"/><path d="M136.79,159.57V162h0V159.6h0" style="fill:#a8a8a8"/><path d="M136.77,159.6V162h0v-2.45h0" style="fill:#a3a3a3"/><path d="M136.75,159.62v2.45h0v-2.48" style="fill:#9e9e9e"/><path d="M136.75,159.65h0" style="fill:#999"/><polyline points="136.74 159.68 136.74 162.12 136.74 162.13 136.74 159.68 136.74 159.68" style="fill:#949494"/></g><polygon points="323.75 51.72 323.74 54.16 137.59 162.34 137.6 159.9 323.75 51.72" style="fill:#7b7b85"/><g style="clip-path:url(#w)"><path d="M137.6,159.9v2.44l-.1,0v-2.45h.11" style="fill:#72727d"/><path d="M137.49,159.94v2.46h-.1V160h.09" style="fill:#6f6f79"/><path d="M137.4,160v2.43h-.06V160h.06" style="fill:#6c6c76"/><path d="M137.34,160v2.42h-.06V160h.06" style="fill:#696972"/><path d="M137.28,160v2.42h-.05V160h.05" style="fill:#66666f"/><path d="M137.23,160v2.42h0V160h0" style="fill:#63636b"/><path d="M137.18,160v2.42h0V160h0" style="fill:#5f5f68"/><path d="M137.13,160v2.43h0V160h0" style="fill:#5c5c64"/><path d="M137.08,160v2.44h0V160h0" style="fill:#595961"/><path d="M137,160v2.45h-.06V160H137" style="fill:#56565d"/><path d="M137,159.93v2.47h-.07a.25.25,0,0,1-.15-.21v-2.44a.24.24,0,0,0,.15.2H137" style="fill:#53535a"/></g><polygon points="340.88 61.61 340.87 64.05 154.72 172.23 154.73 169.78 340.88 61.61" style="fill:#c5c5c5"/><g style="clip-path:url(#x)"><polyline points="154.73 169.78 154.72 172.23 154.72 172.23 154.72 169.79 154.73 169.78" style="fill:#b8b8b8"/><path d="M154.72,169.79v2.45h-.06V169.8l.06-.05" style="fill:#b3b3b3"/><path d="M154.66,169.84v2.44h0v-2.44h0" style="fill:#adadad"/><path d="M154.63,169.87v2.44h0V169.9h0" style="fill:#a8a8a8"/><path d="M154.61,169.9v2.44h0V169.9" style="fill:#a3a3a3"/><path d="M154.6,169.93v2.47h0v-2.47" style="fill:#9e9e9e"/><path d="M154.59,170h0" style="fill:#999"/><polyline points="154.59 169.98 154.58 172.43 154.58 172.43 154.59 169.99 154.59 169.98" style="fill:#949494"/></g><polygon points="341.58 62.02 341.58 64.46 155.43 172.64 155.44 170.19 341.58 62.02" style="fill:#7b7b85"/><g style="clip-path:url(#y)"><path d="M155.44,170.2v2.44h-.11v-2.45h.11" style="fill:#72727d"/><path d="M155.33,170.24v2.45h-.09v-2.44h.09" style="fill:#6f6f79"/><path d="M155.24,170.27v2.44h-.06v-2.44h.07" style="fill:#6c6c76"/><path d="M155.17,170.28v2.44h-.06v-2.45h0" style="fill:#696972"/><path d="M155.12,170.28v2.45h-.05v-2.45h.05" style="fill:#66666f"/><path d="M155.07,170.28v2.45H155v-2.44h0" style="fill:#63636b"/><path d="M155,170.28v2.44h0v-2.45h0" style="fill:#5f5f68"/><path d="M155,170.27v2.45H155v-2.45H155" style="fill:#5c5c64"/><path d="M154.92,170.26v2.45h0v-2.45h0" style="fill:#595961"/><path d="M154.87,170.25v2.45h-.06v-2.45h.06" style="fill:#56565d"/><path d="M154.81,170.23v2.45h-.07a.23.23,0,0,1-.15-.21V170a.27.27,0,0,0,.15.21h.07" style="fill:#53535a"/></g><polygon points="358.72 71.91 358.71 74.36 172.57 182.53 172.57 180.09 358.72 71.91" style="fill:#c5c5c5"/><g style="clip-path:url(#z)"><polyline points="172.57 180.09 172.57 182.53 172.56 182.54 172.57 180.09 172.57 180.09" style="fill:#b8b8b8"/><path d="M172.57,180.09v2.45h-.06V180.1l.06,0" style="fill:#b3b3b3"/><path d="M172.51,180.14v2.44h0v-2.45h0" style="fill:#adadad"/><path d="M172.48,180.17v2.45h0V180.2h0" style="fill:#a8a8a8"/><path d="M172.46,180.2h0" style="fill:#a3a3a3"/><path d="M172.44,180.23v2.44h0V180.2" style="fill:#9e9e9e"/><path d="M172.44,180.26h0" style="fill:#999"/><polyline points="172.43 180.28 172.43 182.73 172.43 182.73 172.43 180.29 172.43 180.28" style="fill:#949494"/></g><polygon points="359.43 72.32 359.42 74.77 173.28 182.94 173.28 180.5 359.43 72.32" style="fill:#7b7b85"/><g style="clip-path:url(#aa)"><path d="M173.28,180.5V183h-.11v-2.44l.1,0" style="fill:#72727d"/><path d="M173.18,180.55V183h-.09v-2.45h.1" style="fill:#6f6f79"/><path d="M173.08,180.57V183H173v-2.44h.06" style="fill:#6c6c76"/><path d="M173,180.58V183h0v-2.45h0" style="fill:#696972"/><path d="M173,180.58V183h-.06v-2.45H173" style="fill:#66666f"/><path d="M172.91,180.58V183h0v-2.45h0" style="fill:#63636b"/><path d="M172.86,180.58V183h0v-2.44h0" style="fill:#5f5f68"/><path d="M172.81,180.58V183h-.05v-2.44h.05" style="fill:#5c5c64"/><path d="M172.76,180.57V183h-.06v-2.45h0" style="fill:#595961"/><path d="M172.71,180.55V183h0v-2.45h.06" style="fill:#56565d"/><path d="M172.65,180.53V183h-.07a.27.27,0,0,1-.15-.21v-2.45a.25.25,0,0,0,.15.21h.07" style="fill:#53535a"/></g><polygon points="376.57 82.21 376.56 84.66 190.41 192.84 190.42 190.39 376.57 82.21" style="fill:#c5c5c5"/><g style="clip-path:url(#ab)"><polyline points="190.42 190.39 190.41 192.84 190.41 192.84 190.41 190.39 190.42 190.39" style="fill:#b8b8b8"/><path d="M190.41,190.4v2.44l-.06,0V190.4h.06" style="fill:#b3b3b3"/><path d="M190.35,190.4v2.45h0V190.4h0" style="fill:#adadad"/><path d="M190.32,190.47v2.45h0V190.5h0" style="fill:#a8a8a8"/><path d="M190.3,190.5V193h0V190.5h0" style="fill:#a3a3a3"/><path d="M190.29,190.53V193h0V190.5" style="fill:#9e9e9e"/><path d="M190.28,190.56h0" style="fill:#999"/><polyline points="190.28 190.59 190.27 193.03 190.27 193.04 190.28 190.59 190.28 190.59" style="fill:#949494"/></g><polygon points="377.27 82.62 377.27 85.07 191.12 193.25 191.13 190.8 377.27 82.62" style="fill:#7b7b85"/><g style="clip-path:url(#ac)"><path d="M191.13,190.8v2.45l-.1.05v-2.45h.11" style="fill:#72727d"/><path d="M191,190.85v2.45h-.1v-2.45H191" style="fill:#6f6f79"/><path d="M190.93,190.87v2.45h-.06v-2.45h.06" style="fill:#6c6c76"/><path d="M190.87,190.88v2.45h-.06v-2.44h.06" style="fill:#696972"/><path d="M190.81,190.89v2.44h-.05v-2.44h.05" style="fill:#66666f"/><path d="M190.76,190.89v2.44h0v-2.45h0" style="fill:#63636b"/><path d="M190.71,190.88v2.45h0v-2.44h0" style="fill:#5f5f68"/><path d="M190.66,190.88v2.44h0v-2.44h0" style="fill:#5c5c64"/><path d="M190.61,190.87v2.44h0v-2.44h0" style="fill:#595961"/><path d="M190.56,190.86v2.44h-.06v-2.45h.07" style="fill:#56565d"/><path d="M190.49,190.83v2.45h-.08a.26.26,0,0,1-.14-.21V190.6a.25.25,0,0,0,.14.2h.07" style="fill:#53535a"/></g><polygon points="305.77 144.03 305.76 146.47 208.26 203.14 208.26 200.69 305.77 144.03" style="fill:#c5c5c5"/><g style="clip-path:url(#ad)"><polyline points="208.26 200.69 208.26 203.14 208.25 203.14 208.26 200.7 208.26 200.69" style="fill:#b8b8b8"/><path d="M208.26,200.7v2.45h-.06v-2.44a.06.06,0,0,1,.06,0" style="fill:#b3b3b3"/><path d="M208.2,200.75v2.44h0v-2.45h0" style="fill:#adadad"/><path d="M208.16,200.78v2.45h0v-2.45h0" style="fill:#a8a8a8"/><path d="M208.14,200.81v2.45h0v-2.44h0" style="fill:#a3a3a3"/><path d="M208.13,200.84h0" style="fill:#9e9e9e"/><path d="M208.12,200.87v2.44h0v-2.47" style="fill:#999"/><polyline points="208.12 200.89 208.11 203.34 208.11 203.34 208.12 200.9 208.12 200.89" style="fill:#949494"/></g><polygon points="306.48 144.44 306.47 146.88 208.97 203.55 208.97 201.1 306.48 144.44" style="fill:#7b7b85"/><g style="clip-path:url(#ae)"><path d="M209,201.11v2.44h-.11V201.1h.1" style="fill:#72727d"/><path d="M208.87,201.15v2.45h-.09v-2.44h.1" style="fill:#6f6f79"/><path d="M208.77,201.18v2.44h-.07v-2.45h.06" style="fill:#6c6c76"/><path d="M208.71,201.18v2.45h0v-2.44h0" style="fill:#696972"/><path d="M208.66,201.19v2.44h0v-2.44h.06" style="fill:#66666f"/><path d="M208.6,201.19v2.44h0v-2.44h0" style="fill:#63636b"/><path d="M208.55,201.19v2.44h-.05v-2.45h0" style="fill:#5f5f68"/><path d="M208.51,201.18v2.45h0v-2.45h.06" style="fill:#5c5c64"/><path d="M208.45,201.17v2.45h-.06v-2.44h0" style="fill:#595961"/><path d="M208.4,201.16v2.44h-.06v-2.44h.06" style="fill:#56565d"/><path d="M208.34,201.14v2.44h-.07a.25.25,0,0,1-.15-.21V200.9a.24.24,0,0,0,.15.2h.07" style="fill:#53535a"/></g><g style="clip-path:url(#af)"><path d="M413.69,206.06v2.44a.27.27,0,0,0-.15-.21h-.07v-2.45h.08a.23.23,0,0,1,.15.21" style="fill:#858585"/><path d="M413.46,205.81v2.45h-.06v-2.45h.06" style="fill:#8a8a8a"/><path d="M413.4,205.79v2.45h-.06V205.8h0" style="fill:#8f8f8f"/><path d="M413.35,205.78v2.44h0v-2.44h0" style="fill:#949494"/><path d="M413.3,205.77v2.44h-.05v-2.45h0" style="fill:#999"/><path d="M413.26,205.76v2.45h-.05v-2.45h.05" style="fill:#9e9e9e"/><path d="M413.21,205.76v2.45h0v-2.45h0" style="fill:#a3a3a3"/><path d="M413.16,205.76v2.45h-.06v-2.45h.06" style="fill:#a8a8a8"/><path d="M413.1,205.76v2.45H413v-2.45h.06" style="fill:#adadad"/><path d="M413,205.77v2.45h-.09V205.8h.1" style="fill:#b3b3b3"/><path d="M412.94,205.8v2.44h-.11V205.8h.1" style="fill:#b8b8b8"/></g><g style="clip-path:url(#ag)"><polyline points="413.69 206.05 413.68 208.5 413.68 208.5 413.69 206.06 413.69 206.05" style="fill:#5c5c64"/><path d="M413.69,206.06h0" style="fill:#5f5f68"/><path d="M413.68,206.09v2.44h0v-2.44h0" style="fill:#63636b"/><path d="M413.67,206.12v2.44h0v-2.45h0" style="fill:#66666f"/><path d="M413.66,206.14v2.45h0v-2.45h0" style="fill:#696972"/><path d="M413.64,206.17v2.45h0v-2.44h0" style="fill:#6c6c76"/><path d="M413.61,206.21v2.44l-.06,0v-2.45h.06" style="fill:#6f6f79"/><polyline points="413.55 206.25 413.54 208.69 413.54 208.7 413.55 206.25 413.55 206.25" style="fill:#72727d"/></g><polygon points="430.1 113.12 430.09 115.56 243.94 223.74 243.95 221.29 430.1 113.12" style="fill:#c5c5c5"/><g style="clip-path:url(#ah)"><polyline points="243.95 221.29 243.94 223.74 243.94 223.74 243.94 221.3 243.95 221.29" style="fill:#b8b8b8"/><path d="M243.94,221.3v2.45h-.07V221.4l.06-.05" style="fill:#b3b3b3"/><path d="M243.88,221.4v2.44h0V221.4h0" style="fill:#adadad"/><path d="M243.85,221.4v2.44h0V221.4h0" style="fill:#a8a8a8"/><path d="M243.83,221.4v2.44h0V221.4h0" style="fill:#a3a3a3"/><path d="M243.82,221.4v2.44h0V221.4" style="fill:#9e9e9e"/><path d="M243.81,221.47h0" style="fill:#999"/><polyline points="243.81 221.49 243.8 223.94 243.8 223.94 243.81 221.5 243.81 221.49" style="fill:#949494"/></g><polygon points="430.8 113.53 430.8 115.97 244.65 224.15 244.66 221.71 430.8 113.53" style="fill:#7b7b85"/><g style="clip-path:url(#ai)"><path d="M244.66,221.71v2.44l-.11,0v-2.45h.11" style="fill:#72727d"/><path d="M244.55,221.75v2.45h-.09v-2.44h.09" style="fill:#6f6f79"/><path d="M244.46,221.78v2.44h-.06v-2.44h.07" style="fill:#6c6c76"/><path d="M244.39,221.79v2.44h-.06v-2.45h0" style="fill:#696972"/><path d="M244.34,221.79v2.45h-.05v-2.45h.05" style="fill:#66666f"/><path d="M244.29,221.79v2.45h0V221.8h0" style="fill:#63636b"/><path d="M244.24,221.79v2.44h0v-2.45h0" style="fill:#5f5f68"/><path d="M244.19,221.78v2.45h-.05v-2.45h.05" style="fill:#5c5c64"/><path d="M244.14,221.77v2.45h0v-2.45h0" style="fill:#595961"/><path d="M244.09,221.76v2.45H244v-2.45h.06" style="fill:#56565d"/><path d="M244,221.74v2.45h-.07a.23.23,0,0,1-.15-.21V221.5a.27.27,0,0,0,.15.21H244" style="fill:#53535a"/></g><polygon points="447.94 123.42 447.93 125.87 261.79 234.04 261.79 231.6 447.94 123.42" style="fill:#c5c5c5"/><g style="clip-path:url(#aj)"><polyline points="261.79 231.6 261.79 234.04 261.78 234.05 261.79 231.6 261.79 231.6" style="fill:#b8b8b8"/><path d="M261.79,231.6v2.45h-.06v-2.44l.06-.05" style="fill:#b3b3b3"/><path d="M261.73,231.65v2.44h0v-2.45h0" style="fill:#adadad"/><path d="M261.7,231.68v2.45h0v-2.45h0" style="fill:#a8a8a8"/><path d="M261.68,231.71v2.45h0v-2.45h0" style="fill:#a3a3a3"/><path d="M261.66,231.74v2.45h0v-2.47" style="fill:#9e9e9e"/><path d="M261.66,231.77h0" style="fill:#999"/><polyline points="261.65 231.79 261.64 234.24 261.64 234.24 261.65 231.8 261.65 231.79" style="fill:#949494"/></g><polygon points="448.65 123.83 448.64 126.28 262.5 234.45 262.5 232.01 448.65 123.83" style="fill:#7b7b85"/><g style="clip-path:url(#ak)"><path d="M262.5,232v2.45h-.11V232l.1-.05" style="fill:#72727d"/><path d="M262.4,232.06v2.44h-.09v-2.45h.1" style="fill:#6f6f79"/><path d="M262.3,232.08v2.45h-.07v-2.45h.06" style="fill:#6c6c76"/><path d="M262.24,232.09v2.45h-.05v-2.45h.06" style="fill:#696972"/><path d="M262.18,232.09v2.45h-.06v-2.45h.05" style="fill:#66666f"/><path d="M262.13,232.09v2.45h-.05v-2.45h.05" style="fill:#63636b"/><path d="M262.08,232.09v2.45h0V232.1h.05" style="fill:#5f5f68"/><path d="M262,232.09v2.44h0v-2.44h0" style="fill:#5c5c64"/><path d="M262,232.08v2.44h-.06v-2.45H262" style="fill:#595961"/><path d="M261.93,232.06v2.45h-.06v-2.45h.06" style="fill:#56565d"/><path d="M261.87,232v2.45h-.06a.25.25,0,0,1-.15-.21V231.8a.25.25,0,0,0,.15.21h.07" style="fill:#53535a"/></g><polygon points="465.79 133.72 465.78 136.17 279.63 244.35 279.64 241.9 465.79 133.72" style="fill:#c5c5c5"/><g style="clip-path:url(#al)"><polyline points="279.64 241.9 279.63 244.35 279.63 244.35 279.63 241.91 279.64 241.9" style="fill:#b8b8b8"/><path d="M279.63,241.91v2.49a.06.06,0,0,0-.06,0V242h.06" style="fill:#b3b3b3"/><path d="M279.57,242v2.45h0V242h0" style="fill:#adadad"/><path d="M279.54,242v2.41h0V242h0" style="fill:#a8a8a8"/><path d="M279.52,242h0" style="fill:#a3a3a3"/><path d="M279.51,242v2.45h0V242h0" style="fill:#9e9e9e"/><path d="M279.5,242.07h0" style="fill:#999"/><polyline points="279.5 242.1 279.49 244.54 279.49 244.55 279.5 242.1 279.5 242.1" style="fill:#949494"/></g><polygon points="466.49 134.13 466.49 136.58 280.34 244.76 280.35 242.31 466.49 134.13" style="fill:#7b7b85"/><g style="clip-path:url(#am)"><path d="M280.35,242.31v2.45l-.11.05V242.4h.11" style="fill:#72727d"/><path d="M280.24,242.4v2.45h-.09V242.4h.09" style="fill:#6f6f79"/><path d="M280.15,242.4v2.45h-.06V242.4h.06" style="fill:#6c6c76"/><path d="M280.09,242.4v2.45H280V242.4h.06" style="fill:#696972"/><path d="M280,242.4v2.44h0V242.4h0" style="fill:#66666f"/><path d="M280,242.4v2.44H280V242.4H280" style="fill:#63636b"/><path d="M279.93,242.4v2.45h-.05V242.4h.05" style="fill:#5f5f68"/><path d="M279.88,242.4v2.44h-.05V242.4h.05" style="fill:#5c5c64"/><path d="M279.83,242.4v2.44h-.05V242.4h.05" style="fill:#595961"/><path d="M279.78,242.4v2.44h-.06V242.4h.07" style="fill:#56565d"/><path d="M279.71,242.4v2.44h-.08a.26.26,0,0,1-.14-.21v-2.44a.25.25,0,0,0,.14.2h.07" style="fill:#53535a"/></g><path d="M466.49,133.73a.22.22,0,0,1,.13.28.24.24,0,0,1-.13.13L280.35,242.31a.81.81,0,0,1-.71,0c-.19-.11-.19-.29,0-.41L465.79,133.73A.78.78,0,0,1,466.49,133.73Z" style="fill:#898995"/><polygon points="483.63 144.03 483.62 146.47 297.48 254.65 297.48 252.2 483.63 144.03" style="fill:#c5c5c5"/><g style="clip-path:url(#an)"><polyline points="297.48 252.2 297.48 254.65 297.47 254.65 297.48 252.21 297.48 252.2" style="fill:#b8b8b8"/><path d="M297.48,252.21v2.45h-.06v-2.44a.1.1,0,0,1,.06-.05" style="fill:#b3b3b3"/><path d="M297.42,252.26v2.44h0v-2.44h0" style="fill:#adadad"/><path d="M297.39,252.29v2.44h0v-2.44h0" style="fill:#a8a8a8"/><path d="M297.37,252.32v2.44h0V252.4h0" style="fill:#a3a3a3"/><path d="M297.35,252.4v2.44h0V252.4" style="fill:#9e9e9e"/><path d="M297.35,252.4h0" style="fill:#999"/><polyline points="297.34 252.4 297.33 254.85 297.33 254.85 297.34 252.41 297.34 252.4" style="fill:#949494"/></g><polygon points="484.34 144.44 484.33 146.88 298.19 255.06 298.19 252.61 484.34 144.44" style="fill:#7b7b85"/><g style="clip-path:url(#ao)"><path d="M298.19,252.62v2.44h-.11v-2.45h.1" style="fill:#72727d"/><path d="M298.09,252.66v2.45H298v-2.44h.1" style="fill:#6f6f79"/><path d="M298,252.69v2.44h-.07V252.7H298" style="fill:#6c6c76"/><path d="M297.93,252.7v2.44h-.05V252.7h.06" style="fill:#696972"/><path d="M297.87,252.7v2.44h-.05V252.7h.05" style="fill:#66666f"/><path d="M297.82,252.7v2.44h-.05V252.7h.05" style="fill:#63636b"/><path d="M297.77,252.7v2.44h0v-2.45h0" style="fill:#5f5f68"/><path d="M297.72,252.69v2.45h-.05v-2.45h.05" style="fill:#5c5c64"/><path d="M297.67,252.68v2.45h-.06v-2.44h.05" style="fill:#595961"/><path d="M297.62,252.67v2.44h-.06v-2.44h.06" style="fill:#56565d"/><path d="M297.56,252.65v2.44h-.07a.25.25,0,0,1-.15-.21V252.4a.24.24,0,0,0,.15.2h.07" style="fill:#53535a"/></g><path d="M484.33,144c.2.12.2.3,0,.41L298.19,252.62a.73.73,0,0,1-.7,0c-.2-.11-.2-.29,0-.4L483.63,144A.78.78,0,0,1,484.33,144Z" style="fill:#898995"/><polygon points="412.83 205.84 412.83 208.29 315.32 264.95 315.33 262.51 412.83 205.84" style="fill:#c5c5c5"/><g style="clip-path:url(#ap)"><polyline points="315.33 262.51 315.32 264.95 315.31 264.96 315.32 262.51 315.33 262.51" style="fill:#b8b8b8"/><path d="M315.32,262.51V265a.18.18,0,0,0-.07.05v-2.45l.06-.05" style="fill:#b3b3b3"/><path d="M315.26,262.56V265h0v-2.45h0" style="fill:#adadad"/><path d="M315.23,262.59V265h0v-2.45h0" style="fill:#a8a8a8"/><path d="M315.21,262.62h0" style="fill:#a3a3a3"/><path d="M315.2,262.65h0" style="fill:#9e9e9e"/><path d="M315.19,262.68h0" style="fill:#999"/><polyline points="315.18 262.7 315.18 265.15 315.18 265.15 315.18 262.71 315.18 262.7" style="fill:#949494"/></g><polygon points="413.55 206.25 413.54 208.7 316.03 265.36 316.04 262.92 413.55 206.25" style="fill:#7b7b85"/><g style="clip-path:url(#aq)"><path d="M316,262.92v2.48h-.1V263l.11,0" style="fill:#72727d"/><path d="M315.93,263v2.43h-.1V263h.09" style="fill:#6f6f79"/><path d="M315.84,263v2.41h-.06V263h.06" style="fill:#6c6c76"/><path d="M315.78,263v2.4h-.06V263h.06" style="fill:#696972"/><path d="M315.72,263v2.45h0V263h0" style="fill:#66666f"/><path d="M315.67,263v2.45h-.05V263h.05" style="fill:#63636b"/><path d="M315.62,263v2.4h-.05V263h.05" style="fill:#5f5f68"/><path d="M315.57,263v2.41h-.05V263h.05" style="fill:#5c5c64"/><path d="M315.52,263v2.41h0V263h0" style="fill:#595961"/><path d="M315.47,263v2.43h-.06V263h.07" style="fill:#56565d"/><path d="M315.4,263v2.45h-.08a.25.25,0,0,1-.14-.2v-2.45a.25.25,0,0,0,.15.21h.07" style="fill:#53535a"/></g><path d="M413.54,205.85a.21.21,0,0,1,0,.4L316,262.92a.81.81,0,0,1-.71,0c-.2-.12-.19-.3,0-.41l97.51-56.66A.75.75,0,0,1,413.54,205.85Z" style="fill:#898995"/><path d="M635.37,180.29c4.91,2.84,4.93,7.47,0,10.3L378.37,340c-4.88,2.83-12.88,2.83-17.79,0L3.7,133.94c-4.91-2.84-4.93-7.47-.05-10.31L216.38,0,261,25.76c4.9,2.83,12.91,2.83,17.79,0L323.1,0ZM137.6,159.9,323.75,51.72c.19-.11.18-.29,0-.41a.81.81,0,0,0-.71,0L136.88,159.49a.21.21,0,0,0,0,.4.75.75,0,0,0,.71,0M262.49,232,448.65,123.83a.21.21,0,0,0,0-.4.75.75,0,0,0-.71,0L261.79,231.6a.22.22,0,0,0-.13.28.24.24,0,0,0,.13.13.78.78,0,0,0,.7,0M191.13,190.8,377.28,82.63a.22.22,0,0,0,0-.41.78.78,0,0,0-.7,0L190.42,190.4a.22.22,0,0,0-.13.28.24.24,0,0,0,.13.13.81.81,0,0,0,.71,0m89.22,51.51L466.49,134.14a.22.22,0,0,0,.13-.28.24.24,0,0,0-.13-.13.78.78,0,0,0-.7,0L279.64,241.9a.22.22,0,0,0-.13.28.24.24,0,0,0,.13.13.81.81,0,0,0,.71,0m-35.69-20.6L430.8,113.53a.21.21,0,0,0,0-.4.75.75,0,0,0-.71,0L244,221.3c-.19.11-.19.29,0,.41a.78.78,0,0,0,.7,0M173.28,180.5,359.43,72.32a.21.21,0,0,0,0-.4.75.75,0,0,0-.71,0L172.57,180.09a.22.22,0,0,0,0,.41.78.78,0,0,0,.7,0m124.91,72.12L484.34,144.4c.19-.11.19-.29,0-.41a.78.78,0,0,0-.7,0L297.48,252.21a.21.21,0,0,0,0,.4.73.73,0,0,0,.7,0M155.44,170.2,341.58,62c.19-.11.19-.29,0-.41a.78.78,0,0,0-.7,0L154.73,169.79c-.19.11-.19.29,0,.41a.78.78,0,0,0,.7,0M316,262.92l97.5-56.67c.2-.11.19-.29,0-.4a.73.73,0,0,0-.7,0l-97.51,56.66c-.19.11-.2.29,0,.41a.81.81,0,0,0,.71,0M209,201.11l97.48-56.71c.19-.11.19-.29,0-.41a.78.78,0,0,0-.7,0L208.26,200.7a.21.21,0,0,0,0,.4.73.73,0,0,0,.7,0" style="fill:#dcdcdc"/><path d="M323.74,51.31c.19.12.2.3,0,.41L137.6,159.9a.75.75,0,0,1-.71,0c-.2-.11-.2-.29,0-.4L323,51.31A.81.81,0,0,1,323.74,51.31Z" style="fill:#898995"/><path d="M341.58,61.62a.21.21,0,0,1,0,.4L155.44,170.2a.78.78,0,0,1-.7,0c-.2-.12-.2-.3,0-.41L340.88,61.61A.75.75,0,0,1,341.58,61.62Z" style="fill:#898995"/><path d="M359.43,71.92a.21.21,0,0,1,0,.4L173.28,180.5a.78.78,0,0,1-.7,0,.22.22,0,0,1,0-.41L358.72,71.91A.77.77,0,0,1,359.43,71.92Z" style="fill:#898995"/><g style="clip-path:url(#ar)"><path d="M639.06,185.48v0" style="fill:#949494"/><path d="M639.06,185.59V188a3.55,3.55,0,0,1-.08.73v-2.45a4.41,4.41,0,0,0,.08-.72" style="fill:#999"/><path d="M639,186.31v2.45a5.75,5.75,0,0,1-.2.71V187a4.27,4.27,0,0,0,.21-.72" style="fill:#9e9e9e"/><path d="M638.77,187v2.44a5.93,5.93,0,0,1-.34.72v-2.45a5.05,5.05,0,0,0,.33-.71" style="fill:#a3a3a3"/><path d="M638.44,187.74v2.45a5.5,5.5,0,0,1-.51.75V188.5a6.3,6.3,0,0,0,.51-.76" style="fill:#a8a8a8"/><path d="M637.93,188.5v2.44a5.63,5.63,0,0,1-.78.84v-2.45a8.71,8.71,0,0,0,.78-.83" style="fill:#adadad"/><path d="M637.15,189.33v2.45a8.62,8.62,0,0,1-1.58,1.17V190.5a9.1,9.1,0,0,0,1.58-1.17" style="fill:#b3b3b3"/><path d="M635.57,190.5V193l-.15.09v-2.45l.15-.09" style="fill:#b8b8b8"/></g><path d="M377.27,82.22a.22.22,0,0,1,.13.28.24.24,0,0,1-.13.13L191.13,190.8a.81.81,0,0,1-.71,0,.22.22,0,0,1-.13-.28.24.24,0,0,1,.13-.13L376.57,82.22A.78.78,0,0,1,377.27,82.22Z" style="fill:#898995"/><path d="M306.47,144c.2.12.2.3,0,.41L209,201.11a.73.73,0,0,1-.7,0c-.2-.11-.2-.29,0-.4L305.81,144A.8.8,0,0,1,306.47,144Z" style="fill:#898995"/><path d="M430.8,113.13a.21.21,0,0,1,0,.4L244.66,221.71a.78.78,0,0,1-.7,0c-.2-.12-.2-.3,0-.41L430.09,113.12A.77.77,0,0,1,430.8,113.13Z" style="fill:#898995"/><path d="M448.65,123.4a.21.21,0,0,1,0,.4L262.5,232a.78.78,0,0,1-.7,0,.22.22,0,0,1-.13-.28.24.24,0,0,1,.13-.13L447.94,123.4A.75.75,0,0,1,448.65,123.4Z" style="fill:#898995"/><polygon points="635.42 190.59 635.41 193.04 378.36 342.42 378.37 339.97 635.42 190.59" style="fill:#c5c5c5"/><polygon points="360.58 339.98 360.57 342.42 3.7 136.38 3.7 133.93 360.58 339.98" style="fill:#898989"/><g style="clip-path:url(#as)"><path d="M378.37,340v2.42a13.93,13.93,0,0,1-2.74,1.21v-2.45a15.18,15.18,0,0,0,2.74-1.2" style="fill:#b8b8b8"/><path d="M375.63,341.18v2.45a19.69,19.69,0,0,1-2.38.59v-2.45a17.74,17.74,0,0,0,2.39-.59" style="fill:#b3b3b3"/><path d="M373.24,341.77v2.45c-.53.09-1.07.17-1.61.22V342c.55-.06,1.08-.13,1.61-.23" style="fill:#adadad"/><path d="M371.63,342v2.4c-.47,0-.94.08-1.41.1v-2.45c.47,0,.94-.05,1.4-.09" style="fill:#a8a8a8"/><path d="M370.23,342.09v2.45h-1.29V342.1h1.3" style="fill:#a3a3a3"/><path d="M368.93,342.1v2.44a8.65,8.65,0,0,1-1.25-.06V342c.41,0,.83.06,1.24.07" style="fill:#9e9e9e"/><path d="M367.69,342v2.45a8.58,8.58,0,0,1-1.23-.14v-2.45c.4.06.81.11,1.23.14" style="fill:#999"/><path d="M366.46,341.89v2.45c-.42-.06-.84-.13-1.25-.22v-2.44c.41.08.83.15,1.25.21" style="fill:#949494"/><path d="M365.21,341.68v2.44c-.44-.09-.88-.2-1.31-.32v-2.4c.43.13.86.23,1.31.33" style="fill:#8f8f8f"/><path d="M363.9,341.4v2.45c-.52-.15-1-.32-1.52-.51v-2.45a13.56,13.56,0,0,0,1.52.51" style="fill:#8a8a8a"/><path d="M362.38,340.84v2.45a12.42,12.42,0,0,1-1.8-.87V340a13.49,13.49,0,0,0,1.8.86" style="fill:#858585"/></g></svg>
