<svg xmlns="http://www.w3.org/2000/svg" xmlns:xlink="http://www.w3.org/1999/xlink" viewBox="0 0 505.17 270.42"><defs><clipPath id="a" transform="translate(0.02)"><polygon points="-4.13 101.8 213.08 -24.43 509.28 146.58 292.07 272.81 -4.13 101.8" fill="none"/></clipPath></defs><g clip-path="url(#a)"><path d="M164.6,167.15a.22.22,0,0,1-.13-.28.24.24,0,0,1,.13-.13L241.67,122a.81.81,0,0,1,.71,0c.2.11.2.29,0,.41l-77.07,44.79a.78.78,0,0,1-.7,0M249.23,216a.22.22,0,0,1-.13-.28.24.24,0,0,1,.13-.13l77.07-44.79a.81.81,0,0,1,.71,0,.22.22,0,0,1,.13.28.24.24,0,0,1-.13.13L249.94,216a.83.83,0,0,1-.72,0m-141-81.44c-.19-.12-.19-.3,0-.41l147.14-85.5a.75.75,0,0,1,.71,0c.2.11.2.29,0,.41l-147.15,85.5a.83.83,0,0,1-.72,0m14.11,8.14a.22.22,0,0,1-.13-.28.24.24,0,0,1,.13-.13L269.42,56.8a.78.78,0,0,1,.7,0,.22.22,0,0,1,.13.28.24.24,0,0,1-.13.13L123,142.72a.81.81,0,0,1-.71,0m14.11,8.14c-.2-.11-.2-.29,0-.41L283.52,65a.75.75,0,0,1,.71,0c.2.11.2.29,0,.4L137.09,150.86a.73.73,0,0,1-.7,0m14.1,8.15c-.2-.12-.2-.3,0-.42l147.14-85.5a.75.75,0,0,1,.71,0c.19.11.19.29,0,.41L151.21,159a.75.75,0,0,1-.71,0m42.31,24.43a.22.22,0,0,1-.13-.28.24.24,0,0,1,.13-.13L339.94,97.57a.81.81,0,0,1,.71,0,.22.22,0,0,1,.13.28.24.24,0,0,1-.13.13L193.52,183.44a.83.83,0,0,1-.72,0m14.07,8.13a.22.22,0,0,1-.13-.28.24.24,0,0,1,.13-.13L354,105.65a.78.78,0,0,1,.7,0,.22.22,0,0,1,.13.28.24.24,0,0,1-.13.13L207.62,191.57a.81.81,0,0,1-.71,0M221,199.71c-.2-.11-.2-.29,0-.41l147.14-85.5a.75.75,0,0,1,.71,0c.19.11.2.29,0,.41l-147.14,85.5a.73.73,0,0,1-.7,0m14.1,8.15c-.2-.12-.2-.3,0-.42l147.13-85.5a.77.77,0,0,1,.72,0c.19.11.19.29,0,.41L235.87,207.86a.75.75,0,0,1-.71,0M502.27,142.5,255.4,0H171L2.87,97.72C-1,100-1,103.63,2.87,105.87L285,268.74a15.55,15.55,0,0,0,14.06,0L502.27,150.66c3.85-2.24,3.84-5.91,0-8.15" transform="translate(0.02)" fill="#eae8e8"/><path d="M256,48.66a.75.75,0,0,0-.71,0L108.18,134.17c-.2.11-.2.29,0,.41a.83.83,0,0,0,.72,0L256,49.07c.2-.12.2-.3,0-.41" transform="translate(0.02)" fill="#f1f0f0"/><path d="M270.12,56.8a.78.78,0,0,0-.7,0L122.28,142.31a.22.22,0,0,0-.13.28.24.24,0,0,0,.13.13.81.81,0,0,0,.71,0L270.13,57.21a.22.22,0,0,0,.13-.28.24.24,0,0,0-.13-.13" transform="translate(0.02)" fill="#f1f0f0"/><path d="M284.23,65a.75.75,0,0,0-.71,0l-147.13,85.5c-.2.12-.2.3,0,.41a.73.73,0,0,0,.7,0L284.23,65.35c.2-.11.2-.29,0-.4" transform="translate(0.02)" fill="#f1f0f0"/><path d="M298.34,73.09a.75.75,0,0,0-.71,0L150.49,158.57c-.2.12-.2.3,0,.42a.75.75,0,0,0,.71,0l147.13-85.5c.2-.12.2-.3,0-.41" transform="translate(0.02)" fill="#f1f0f0"/><path d="M242.37,122a.81.81,0,0,0-.71,0l-77.07,44.79a.22.22,0,0,0-.13.28.24.24,0,0,0,.13.13.78.78,0,0,0,.7,0l77.07-44.79c.2-.12.2-.3,0-.41" transform="translate(0.02)" fill="#f1f0f0"/><path d="M340.65,97.57a.81.81,0,0,0-.71,0L192.81,183a.22.22,0,0,0-.13.28.24.24,0,0,0,.13.13.83.83,0,0,0,.72,0L340.66,97.93a.22.22,0,0,0,.13-.28.24.24,0,0,0-.13-.13" transform="translate(0.02)" fill="#f1f0f0"/><path d="M354.75,105.66a.78.78,0,0,0-.7,0L206.87,191.17a.22.22,0,0,0-.13.28.24.24,0,0,0,.13.13.81.81,0,0,0,.71,0l147.17-85.51a.22.22,0,0,0,.13-.28.24.24,0,0,0-.13-.13" transform="translate(0.02)" fill="#f1f0f0"/><path d="M368.87,113.81a.75.75,0,0,0-.71,0L221,199.31c-.19.12-.19.3,0,.41a.73.73,0,0,0,.7,0l147.15-85.5c.2-.12.19-.3,0-.41" transform="translate(0.02)" fill="#f1f0f0"/><path d="M383,122a.77.77,0,0,0-.72,0l-147.13,85.5c-.2.12-.2.3,0,.42a.75.75,0,0,0,.71,0L383,122.37c.2-.12.2-.3,0-.41" transform="translate(0.02)" fill="#f1f0f0"/><path d="M327,170.81a.81.81,0,0,0-.71,0l-77.07,44.76a.22.22,0,0,0-.13.28.24.24,0,0,0,.13.13.83.83,0,0,0,.72,0L327,171.19a.22.22,0,0,0,.13-.28.24.24,0,0,0-.13-.13" transform="translate(0.02)" fill="#f1f0f0"/></g></svg>