<svg xmlns="http://www.w3.org/2000/svg" viewBox="0 0 120.33 35.67"><defs><style>.cls-1{fill:#ffffff;}</style></defs><g id="Layer_2" data-name="Layer 2"><g id="Layer_1-2" data-name="Layer 1"><path class="cls-1" d="M0,28.55l5.84-4.66c2.28,3.61,5.37,5.46,9.5,5.46,3.76,0,5.7-1.8,5.7-4.32,0-3.23-3.32-3.89-8.12-5C7.74,19,2,17.29,2,10.26,2,4.56,7,0,14.25,0A16.59,16.59,0,0,1,27.74,6l-5.46,4.28A9,9,0,0,0,14.16,6C10.4,6,8.79,7.84,8.79,10.12c0,2.8,3.47,3.32,7.79,4.32C21.9,15.58,28,17.29,28,24.79c0,5.94-5,10.88-12.73,10.88C7.84,35.67,3.28,32.73,0,28.55Z"/><path class="cls-1" d="M32.64,21.85V.52h6.84V22c0,4.28,2.75,7.22,6.84,7.22S53.2,26.27,53.2,22V.52H60V21.85c0,8.65-5.51,13.82-13.72,13.82S32.64,30.5,32.64,21.85Z"/><path class="cls-1" d="M66.08.52H80.14c8,0,12.73,5.13,12.73,11.73a11.3,11.3,0,0,1-6.08,10.27L93.63,35.2H86.12L80.57,24.27H72.78V35.2h-6.7Zm6.7,6.18V18.15h6.84c4.41,0,6.46-2.76,6.46-5.85,0-3.42-2.19-5.6-6.46-5.6Z"/><path class="cls-1" d="M98,.52h22.33V6.89H104.75v8h15.58v6.27H104.75v14H98Z"/></g></g></svg>
